<svg xmlns:inkscape="http://www.inkscape.org/namespaces/inkscape" xmlns:sodipodi="http://sodipodi.sourceforge.net/DTD/sodipodi-0.dtd" xmlns:xlink="http://www.w3.org/1999/xlink" xmlns="http://www.w3.org/2000/svg" xmlns:svg="http://www.w3.org/2000/svg" id="svg1" width="1000" height="500" viewBox="0 0 1000 500" sodipodi:docname="azure-blob-storage-sql-db.svg" inkscape:version="1.3.2 (091e20e, 2023-11-25, custom)" xml:space="preserve"><defs id="defs1"><clipPath id="CLIPPATH_56">	<path id="pO20KKJNwU1CrE_FoZeM0" d="M -256,-256 H 256 V 256 H -256 Z" stroke-linecap="round"></path></clipPath><style id="style1">.cls-1{fill:#2684ff;}.cls-2{fill:url(#linear-gradient);}.cls-3{fill:url(#linear-gradient-2);}</style><linearGradient id="linear-gradient" x1="34.64" y1="15.35" x2="19" y2="30.99" gradientUnits="userSpaceOnUse"><stop offset="0.18" stop-color="#0052cc" id="stop1"></stop><stop offset="1" stop-color="#2684ff" id="stop2"></stop></linearGradient><linearGradient id="linear-gradient-2" x1="38.78" y1="60.28" x2="54.39" y2="44.67" xlink:href="#linear-gradient"></linearGradient><linearGradient id="SVGID_49" gradientUnits="userSpaceOnUse" gradientTransform="matrix(1.33,0,0,1.33,-128.21,304.56)" x1="465.52231" y1="388.4361" x2="465.52231" y2="-143.4539"><stop offset="0%" style="stop-color:rgb(148,148,148);stop-opacity: 1" id="stop2-5"></stop><stop offset="53%" style="stop-color:rgb(162,162,161);stop-opacity: 1" id="stop3"></stop><stop offset="100%" style="stop-color:rgb(180,180,180);stop-opacity: 1" id="stop4"></stop></linearGradient><linearGradient id="SVGID_50" gradientUnits="userSpaceOnUse" gradientTransform="matrix(1.33,0,0,1.33,-128.21,304.56)" x1="613.17419" y1="390.94379" x2="613.17419" y2="54.9795"><stop offset="0%" style="stop-color:rgb(41,116,186);stop-opacity: 1" id="stop8"></stop><stop offset="16%" style="stop-color:rgb(47,123,191);stop-opacity: 1" id="stop9"></stop><stop offset="53%" style="stop-color:rgb(75,140,203);stop-opacity: 1" id="stop10"></stop><stop offset="82%" style="stop-color:rgb(95,152,210);stop-opacity: 1" id="stop11"></stop><stop offset="100%" style="stop-color:rgb(103,156,211);stop-opacity: 1" id="stop12"></stop></linearGradient></defs><g id="g1" inkscape:groupmode="layer" inkscape:label="1"><path id="path3" d="m 318.137,130.637 c 77.636,0 36.09,113.726 113.726,113.726" style="fill:none;stroke:#00aaff;stroke-width:17.0079;stroke-linecap:butt;stroke-linejoin:miter;stroke-miterlimit:4;stroke-dasharray:none;stroke-opacity:1" transform="scale(1.3333333)"></path><path id="path4" d="m 318.031,244.469 c 77.637,0 36.09,-113.938 113.938,-113.938" style="fill:none;stroke:#696969;stroke-width:17.0079;stroke-linecap:butt;stroke-linejoin:miter;stroke-miterlimit:4;stroke-dasharray:none;stroke-opacity:1" transform="scale(1.3333333)"></path><path id="path5" d="m 330.848,187.5 c 0,81.004 -65.668,146.668 -146.672,146.668 -81,0 -146.668,-65.664 -146.668,-146.668 0,-81.004 65.668,-146.668 146.668,-146.668 81.004,0 146.672,65.664 146.672,146.668 z" style="fill:none;stroke:#4d4d4d;stroke-width:11.3386;stroke-linecap:butt;stroke-linejoin:miter;stroke-miterlimit:4;stroke-dasharray:none;stroke-opacity:1" transform="scale(1.3333333)"></path><path id="path6" d="m 711.984,187.5 c 0,81.004 -65.664,146.668 -146.668,146.668 -81.004,0 -146.671,-65.664 -146.671,-146.668 0,-81.004 65.667,-146.668 146.671,-146.668 81.004,0 146.668,65.664 146.668,146.668 z" style="fill:none;stroke:#4d4d4d;stroke-width:11.3386;stroke-linecap:butt;stroke-linejoin:miter;stroke-miterlimit:4;stroke-dasharray:none;stroke-opacity:1" transform="scale(1.3333333)"></path><path id="path15" d="m 457.152,243.441 -36.043,21.977 -1.007,-42.199 z" style="fill:#00aaff;fill-opacity:1;fill-rule:evenodd;stroke:none" transform="scale(1.3333333)"></path><path id="path16" d="m 292.48,130.711 36.04,-21.977 1.011,42.2 z" style="fill:#00aaff;fill-opacity:1;fill-rule:evenodd;stroke:none" transform="scale(1.3333333)"></path><g id="g17" transform="translate(4.4938833,22.637569)"><g transform="matrix(0.25646122,0,0,0.25646122,749.27195,227.37363)" id="Z4X0cEwKrjvkCT5Cqcnrv"><g id="g13">		<g transform="translate(-152.30142,-1.3)" id="dGWX9myTHXgasOqQdR2BO"><linearGradient id="linearGradient6" gradientUnits="userSpaceOnUse" gradientTransform="matrix(1.33,0,0,1.33,-128.21,304.56)" x1="465.52231" y1="388.4361" x2="465.52231" y2="-143.4539"><stop offset="0%" style="stop-color:rgb(148,148,148);stop-opacity: 1" id="stop1-3"></stop><stop offset="53%" style="stop-color:rgb(162,162,161);stop-opacity: 1" id="stop5"></stop><stop offset="100%" style="stop-color:rgb(180,180,180);stop-opacity: 1" id="stop6"></stop></linearGradient><path style="opacity:1;fill:url(#SVGID_49);fill-rule:nonzero;stroke:none;stroke-width:1;stroke-linecap:butt;stroke-linejoin:miter;stroke-miterlimit:4;stroke-dasharray:none;stroke-dashoffset:0" transform="translate(-490.89858,-466.6)" d="M 699.2,797 C 699,810.3 688.3,821 675,821.2 H 306.8 c -13.3,0 -24.2,-10.8 -24.2,-24.2 0,0 0,0 0,0 V 136.2 c -0.2,-13.1 10.2,-23.9 23.3,-24.2 0,0 0,0 0,0 0.3,0 0.6,0 0.8,0 H 675 c 13.3,0 24.2,10.8 24.2,24.1 0,0 0,0 0,0 z" stroke-linecap="round" id="path4-6"></path></g>		<g transform="translate(-149.8,-107.10905)" id="IOrV7ieQ2pWjnutR-H5la"><path style="opacity:1;fill:#1e3560;fill-rule:nonzero;stroke:none;stroke-width:1;stroke-linecap:butt;stroke-linejoin:miter;stroke-miterlimit:4;stroke-dasharray:none;stroke-dashoffset:0" transform="translate(-493.4,-360.79095)" d="m 343.7,360.6 c 0.2,-24.8 20.2,-44.8 45,-45 h 207.8 c 25.1,-0.7 45.9,19 46.6,44.1 0,0 0,0 0,0 0,0.3 0,0.6 0,0.9 v 0 c 0,25 -20.3,45.3 -45.4,45.4 h -1.3 -207.7 c -24.9,-0.3 -44.9,-20.6 -45,-45.4 z" stroke-linecap="round" id="path5-9"></path></g>		<g transform="translate(-149.8,-241.60831)" id="quYUMNWKGh6smn-Kioqgz"><path style="opacity:1;fill:#1e3560;fill-rule:nonzero;stroke:none;stroke-width:1;stroke-linecap:butt;stroke-linejoin:miter;stroke-miterlimit:4;stroke-dasharray:none;stroke-dashoffset:0" transform="translate(-493.4,-226.29169)" d="m 343.7,226.5 c 0,-24.9 20.1,-45.2 45,-45.4 h 207.8 c 25.1,-0.7 45.9,19 46.6,44.1 0,0 0,0 0,0 0,0.4 0,0.9 0,1.3 v 0 c -0.2,25.1 -20.7,45.2 -45.7,45 0,0 0,0 -0.1,0 H 388.7 c -24.7,-0.2 -44.7,-20.2 -45,-45 z" stroke-linecap="round" id="path6-9"></path></g>		<g transform="translate(-251.9,-241.4)" id="jyawKNvZgDGgnvBXNbPyI"><path style="opacity:1;fill:#76cae7;fill-rule:nonzero;stroke:none;stroke-width:1;stroke-linecap:butt;stroke-linejoin:miter;stroke-miterlimit:4;stroke-dasharray:none;stroke-dashoffset:0" transform="translate(-30.5,-30.5)" d="M 0,30.5 C 0,13.65532 13.65532,0 30.5,0 47.34468,0 61,13.65532 61,30.5 61,47.34468 47.34468,61 30.5,61 13.65532,61 0,47.34468 0,30.5 Z" stroke-linecap="round" id="path7"></path></g>		<g transform="matrix(1.0000157,0,0,1.0000157,-251.98448,-107.40297)" id="uv5LpI-I9cWudXoBgaKya"><path style="opacity:1;fill:#76cae7;fill-rule:nonzero;stroke:none;stroke-width:1;stroke-linecap:butt;stroke-linejoin:miter;stroke-miterlimit:4;stroke-dasharray:none;stroke-dashoffset:0" transform="translate(-30.5,-30.5)" d="M 0,30.5 C 0,13.65532 13.65532,0 30.5,0 47.34468,0 61,13.65532 61,30.5 61,47.34468 47.34468,61 30.5,61 13.65532,61 0,47.34468 0,30.5 Z" stroke-linecap="round" id="path8"></path></g>		<g transform="translate(44.1,132.41018)" id="jJEfhlL01DSu_eNS3iHiJ"><linearGradient id="linearGradient16" gradientUnits="userSpaceOnUse" gradientTransform="matrix(1.33,0,0,1.33,-128.21,304.56)" x1="613.17419" y1="390.94379" x2="613.17419" y2="54.9795"><stop offset="0%" style="stop-color:rgb(41,116,186);stop-opacity: 1" id="stop7"></stop><stop offset="16%" style="stop-color:rgb(47,123,191);stop-opacity: 1" id="stop13"></stop><stop offset="53%" style="stop-color:rgb(75,140,203);stop-opacity: 1" id="stop14"></stop><stop offset="82%" style="stop-color:rgb(95,152,210);stop-opacity: 1" id="stop15"></stop><stop offset="100%" style="stop-color:rgb(103,156,211);stop-opacity: 1" id="stop16"></stop></linearGradient><path style="opacity:1;fill:url(#SVGID_50);fill-rule:nonzero;stroke:none;stroke-width:1;stroke-linecap:butt;stroke-linejoin:miter;stroke-miterlimit:4;stroke-dasharray:none;stroke-dashoffset:0" transform="translate(-687.3,-600.31018)" d="M 1003.7,683.3 C 1001.4,613.7 949.2,556 880.3,546.7 875.3,449.3 793.2,373.9 695.8,377 c -77.6,-1.9 -148,45.4 -175.6,117.9 -83.3,10 -146.8,79.4 -149.3,163.3 3.7,94.8 83.3,168.8 178.1,165.4 h 313.4 c 77.2,-1.2 139.5,-63.2 141.3,-140.3 z" stroke-linecap="round" id="path12-0"></path></g>		<g transform="translate(44.091153,196.70907)" id="7ZvOywSDesTGV9hLxj9eF"><path style="opacity:1;fill:#f2f2f2;fill-rule:nonzero;stroke:none;stroke-width:1;stroke-linecap:butt;stroke-linejoin:miter;stroke-miterlimit:4;stroke-dasharray:none;stroke-dashoffset:0" transform="translate(-687.29115,-664.60907)" d="M 838.7,699 V 556.5 H 799.3 V 731.3 H 903.2 V 699 Z M 537.6,629 c -7.8,-3.4 -15,-7.8 -21.6,-13.1 -3.5,-3.7 -5.3,-8.5 -5.1,-13.6 -0.3,-5.1 2.1,-9.9 6.3,-12.8 5.2,-3.7 11.5,-5.5 17.8,-5.1 15.1,-0.6 30,3.8 42.4,12.3 v -36.5 c -13.7,-4.6 -28,-6.8 -42.4,-6.4 -16.6,-0.8 -32.9,4.1 -46.2,14 -11.4,9.2 -17.8,23.1 -17.4,37.8 1.4,23.6 17.3,43.9 39.9,50.9 9.3,3.8 18.1,9 25.9,15.3 4,3.4 6.3,8.3 6.4,13.6 0.2,5.1 -2.2,9.9 -6.4,12.7 -5.7,3.7 -12.3,5.5 -19.1,5.1 -16.9,-0.1 -33.2,-6.5 -45.8,-17.8 v 39 c 13.6,6.7 28.6,10 43.7,9.8 17.1,1.3 34.2,-2.8 48.8,-11.9 12.1,-9 19,-23.5 18.2,-38.6 0.4,-10.9 -3.4,-21.5 -10.6,-29.7 -9.7,-10.7 -21.5,-19.2 -34.8,-25 z m 218.8,67 c 9.6,-16.2 14.4,-34.7 14,-53.4 0.6,-16.5 -3.1,-32.8 -10.6,-47.5 -6.5,-13.1 -16.7,-24 -29.3,-31.4 -13.6,-7.9 -29.3,-11.7 -45,-11 -14.9,0.7 -29.4,4.9 -42.4,12.3 -13.3,7.7 -24,19 -31,32.7 -7.6,15 -11.5,31.6 -11.5,48.3 -0.3,15.4 3.2,30.7 10.2,44.5 6.6,12.9 16.6,23.8 28.9,31.4 12.8,7.8 27.4,12 42.4,12.3 l 36.1,42.4 h 50.9 L 718.7,730 c 16,-6.7 29.3,-18.7 37.7,-34 z M 717,685.5 c -7.7,9.8 -19.7,15.4 -32.2,14.8 -12.4,0.3 -24.3,-5.3 -31.8,-15.3 -8.9,-12.3 -13.1,-27.3 -11.9,-42.4 -1.2,-15.2 3.1,-30.3 12.3,-42.4 7.6,-10.3 19.9,-16.1 32.7,-15.7 12.5,-0.5 24.3,5.4 31.4,15.7 8.8,12.3 12.9,27.3 11.9,42.4 1.2,15.3 -3.2,30.6 -12.4,42.9 z" stroke-linecap="round" id="path13"></path></g></g></g><g id="g33" transform="matrix(1.1231475,0,0,1.1231475,-25.513841,-28.695183)"><path id="text31" style="font-style:normal;font-variant:normal;font-weight:bold;font-stretch:normal;font-size:53.3333px;font-family:'Microsoft JhengHei UI';-inkscape-font-specification:'Microsoft JhengHei UI Bold';text-align:end;text-anchor:end;fill:#2684ff;fill-opacity:1;fill-rule:evenodd;stroke:#4d4d4d;stroke-width:0" d="M 335.21208 167.83279 C 332.2607 167.83279 329.83901 168.75226 327.94665 170.59254 C 326.05429 172.41545 325.1069 174.89821 325.1069 178.04057 L 325.1069 182.31149 L 320.21169 182.31149 L 320.21169 187.15453 L 325.1069 187.15453 L 325.1069 211.11239 L 331.20201 211.11239 L 331.20201 187.15453 L 337.8675 187.15453 L 337.8675 182.31149 L 331.20201 182.31149 L 331.20201 178.35358 C 331.20201 174.62095 332.7461 172.75408 335.83638 172.75408 C 336.91276 172.75408 337.96309 172.9966 338.9874 173.48271 L 338.9874 168.35274 C 337.99782 168.00552 336.73986 167.83279 335.21208 167.83279 z M 171.56588 168.87443 C 170.48949 168.87443 169.59618 169.21291 168.88438 169.88999 C 168.18993 170.54971 167.84273 171.39068 167.84273 172.41498 C 167.84273 173.42193 168.19866 174.26463 168.91046 174.94171 C 169.62227 175.6188 170.50685 175.95727 171.56588 175.95727 C 172.6249 175.95727 173.51995 175.62752 174.24911 174.9678 C 174.97828 174.29072 175.34293 173.43929 175.34293 172.41498 C 175.34293 171.39068 174.97828 170.54971 174.24911 169.88999 C 173.51995 169.21291 172.6249 168.87443 171.56588 168.87443 z M 116.30648 170.77513 L 116.30648 211.11239 L 122.11292 211.11239 L 122.11292 185.77379 C 122.11292 182.33629 122.02568 179.40339 121.85207 176.97284 L 122.00858 176.97284 C 122.51205 179.31658 122.92032 180.86068 123.23282 181.6072 L 135.54997 211.11239 L 139.6383 211.11239 L 151.90503 181.37418 C 152.20017 180.67974 152.60844 179.21242 153.12927 176.97284 L 153.28404 176.97284 C 153.04098 180.09783 152.92059 182.79694 152.92059 185.07124 L 152.92059 211.11239 L 159.1183 211.11239 L 159.1183 170.77513 L 150.73296 170.77513 L 139.6383 197.33797 C 138.75289 199.75116 138.14572 201.50462 137.81586 202.59837 L 137.63327 202.59837 C 137.35549 201.22684 136.79194 199.49781 135.94124 197.41448 L 125.02918 170.77513 L 116.30648 170.77513 z M 351.43498 173.71748 L 345.34161 175.56601 L 345.34161 182.31149 L 340.47248 182.31149 L 340.47248 187.15453 L 345.34161 187.15453 L 345.34161 202.85747 C 345.34161 208.79496 348.07561 211.7645 353.54435 211.7645 C 355.66241 211.7645 357.28675 211.44347 358.41522 210.80111 L 358.41522 205.93024 C 357.52981 206.55524 356.54054 206.86755 355.44679 206.86755 C 354.04054 206.86755 353.01638 206.46974 352.37402 205.67113 C 351.74903 204.87252 351.43498 203.57793 351.43498 201.78974 L 351.43498 187.15453 L 358.41522 187.15453 L 358.41522 182.31149 L 351.43498 182.31149 L 351.43498 173.71748 z M 196.6958 181.63329 C 192.04303 181.63329 188.31976 183.05699 185.52463 185.90421 C 182.72949 188.75143 181.33196 192.57938 181.33196 197.3884 C 181.33196 201.67659 182.63353 205.15035 185.2377 207.8066 C 187.84186 210.46284 191.24409 211.79059 195.44548 211.79059 C 198.76144 211.79059 201.47974 211.15725 203.59779 209.88989 L 203.59779 204.55123 C 201.44502 206.11373 199.15244 206.89363 196.72188 206.89363 C 193.92675 206.89363 191.69697 206.01777 190.03031 204.2643 C 188.38101 202.49347 187.55575 200.05433 187.55575 196.9467 C 187.55575 193.76962 188.42289 191.24324 190.15899 189.36825 C 191.91246 187.47589 194.19632 186.53024 197.00881 186.53024 C 199.38728 186.53024 201.60135 187.26826 203.64996 188.74396 L 203.64996 183.01403 C 201.87913 182.0939 199.56038 181.63329 196.6958 181.63329 z M 243.67594 181.63329 C 239.02317 181.63329 235.34178 183.00639 232.63345 185.74944 C 229.94248 188.49249 228.59729 192.23321 228.59729 196.97278 C 228.59729 201.4693 229.90759 205.06346 232.52911 207.75443 C 235.168 210.44539 238.69236 211.79059 243.10208 211.79059 C 247.5986 211.79059 251.19275 210.40178 253.88372 207.624 C 256.57469 204.84623 257.91988 201.13867 257.91988 196.50326 C 257.91988 191.90257 256.64447 188.27526 254.0924 185.61902 C 251.54032 182.96277 248.06829 181.63329 243.67594 181.63329 z M 275.00357 181.63329 C 271.72232 181.63329 268.97087 182.4062 266.74865 183.95134 C 264.52643 185.49648 263.41504 187.59714 263.41504 190.25339 C 263.41504 192.18047 263.92625 193.78736 264.95055 195.07208 C 265.97486 196.33944 267.95513 197.53634 270.88915 198.66481 C 273.68429 199.70647 275.48136 200.54918 276.27997 201.19154 C 277.07858 201.81653 277.47813 202.62435 277.47813 203.61393 C 277.47813 205.97503 275.56764 207.15448 271.7482 207.15448 C 268.8489 207.15448 266.05384 206.24373 263.36287 204.42081 L 263.36287 210.17508 C 265.67189 211.25147 268.371 211.79059 271.46127 211.79059 C 275.07238 211.79059 277.98958 211.00895 280.21179 209.44645 C 282.43401 207.88395 283.54541 205.73967 283.54541 203.01398 C 283.54541 201.0869 282.97139 199.48174 281.82556 198.19702 C 280.69709 196.89494 278.572 195.67014 275.447 194.52431 C 272.91229 193.55209 271.28794 192.77045 270.57614 192.18017 C 269.88169 191.58989 269.53449 190.78382 269.53449 189.75952 C 269.53449 188.71785 270.01255 187.87515 270.96741 187.23279 C 271.92226 186.59043 273.1715 186.26939 274.71663 186.26939 C 277.42496 186.26939 279.87283 186.94635 282.06032 188.30052 L 282.06032 182.88361 C 279.87283 182.05028 277.52092 181.63329 275.00357 181.63329 z M 303.128 181.63329 C 298.47523 181.63329 294.79558 183.00639 292.08725 185.74944 C 289.39628 188.49249 288.05109 192.23321 288.05109 196.97278 C 288.05109 201.4693 289.36139 205.06346 291.98291 207.75443 C 294.6218 210.44539 298.14616 211.79059 302.55588 211.79059 C 307.0524 211.79059 310.64655 210.40178 313.33752 207.624 C 316.02849 204.84623 317.37368 201.13867 317.37368 196.50326 C 317.37368 191.90257 316.09654 188.27526 313.54446 185.61902 C 310.99238 182.96277 307.52036 181.63329 303.128 181.63329 z M 223.96118 181.81588 C 220.35008 181.81588 217.83416 183.89037 216.41055 188.03967 L 216.28013 188.03967 L 216.28013 182.31149 L 210.15894 182.31149 L 210.15894 211.11239 L 216.28013 211.11239 L 216.28013 196.76411 C 216.28013 193.89953 216.8873 191.59996 218.10258 189.86385 C 219.33521 188.12775 220.94037 187.25887 222.91954 187.25887 C 224.41259 187.25887 225.61122 187.55373 226.514 188.14401 L 226.514 182.18107 C 225.889 181.93801 225.03757 181.81588 223.96118 181.81588 z M 168.44094 182.31149 L 168.44094 211.11239 L 174.56039 211.11239 L 174.56039 182.31149 L 168.44094 182.31149 z M 243.38901 186.53024 C 246.07997 186.53024 248.13702 187.39738 249.56063 189.13349 C 250.98424 190.85223 251.69609 193.36116 251.69609 196.65977 C 251.69609 203.48267 248.92719 206.89363 243.38901 206.89363 C 240.75012 206.89363 238.65818 206.00905 237.11305 204.23822 C 235.58527 202.46739 234.82108 200.00208 234.82108 196.84236 C 234.82108 193.64792 235.57655 191.13027 237.08696 189.28999 C 238.59738 187.44972 240.69804 186.53024 243.38901 186.53024 z M 302.84281 186.53024 C 305.53378 186.53024 307.59082 187.39738 309.01443 189.13349 C 310.43804 190.85223 311.14989 193.36116 311.14989 196.65977 C 311.14989 203.48267 308.381 206.89363 302.84281 206.89363 C 300.20393 206.89363 298.11199 206.00905 296.56685 204.23822 C 295.03908 202.46739 294.27488 200.00208 294.27488 196.84236 C 294.27488 193.64792 295.03035 191.13027 296.54077 189.28999 C 298.05118 187.44972 300.15184 186.53024 302.84281 186.53024 z M 145.5143 223.24869 L 121.45732 287.0621 L 132.33287 287.0621 L 138.01758 270.46011 L 163.5579 270.46011 L 169.53128 287.0621 L 180.40682 287.0621 L 156.51331 223.24869 L 145.5143 223.24869 z M 150.62341 232.27049 L 150.91208 232.27049 C 151.24164 234.57744 151.57025 236.18463 151.89981 237.09093 L 160.79815 262.26085 L 140.7356 262.26085 L 149.59219 237.0092 C 150.03161 235.74587 150.37623 234.16549 150.62341 232.27049 z M 333.77917 240.42802 C 327.59983 240.42802 322.44967 242.70669 318.33012 247.26567 C 314.23803 251.82464 312.19154 257.61949 312.19154 264.6502 C 312.19154 272.0654 314.10053 277.83344 317.91798 281.953 C 321.73544 286.07255 327.0231 288.13157 333.77917 288.13157 C 340.39792 288.13157 345.73919 286.80113 349.80382 284.13715 L 349.80382 276.14482 C 345.6568 279.16583 341.05664 280.67659 336.00332 280.67659 C 327.05015 280.67659 322.36784 276.07643 321.95588 266.87609 L 353.26438 266.87609 L 353.26438 262.30258 C 353.26438 255.49158 351.54824 250.15031 348.11528 246.27793 C 344.70978 242.37808 339.93104 240.42802 333.77917 240.42802 z M 304.86002 240.71669 C 299.14757 240.71669 295.16529 243.99894 292.91327 250.56276 L 292.70633 250.56276 L 292.70633 241.49923 L 283.02546 241.49923 L 283.02546 287.0621 L 292.70633 287.0621 L 292.70633 264.36327 C 292.70633 259.83175 293.66709 256.19235 295.58955 253.44598 C 297.53947 250.69961 300.08061 249.32635 303.21147 249.32635 C 305.57335 249.32635 307.46807 249.79246 308.89618 250.72623 L 308.89618 241.29229 C 307.90749 240.9078 306.56277 240.71669 304.86002 240.71669 z M 185.10379 241.49923 L 185.10379 249.16115 L 208.17303 249.16115 L 182.67271 283.55981 L 182.67271 287.0621 L 221.31446 287.0621 L 221.31446 279.39844 L 196.30975 279.39844 L 221.39619 245.28845 L 221.39619 241.49923 L 185.10379 241.49923 z M 229.38852 241.49923 L 229.38852 268.81156 C 229.38852 281.69204 234.75833 288.13157 245.49664 288.13157 C 251.67598 288.13157 256.34402 285.39932 259.50235 279.93405 L 259.70928 279.93405 L 259.70928 287.0621 L 269.34842 287.0621 L 269.34842 241.49923 L 259.70928 241.49923 L 259.70928 267.69862 C 259.70928 271.48861 258.69318 274.55121 256.66086 276.88562 C 254.62855 279.22004 252.01953 280.38792 248.83374 280.38792 C 242.29737 280.38792 239.0294 276.13064 239.0294 267.61689 L 239.0294 241.49923 L 229.38852 241.49923 z M 333.6957 247.71954 C 336.93642 247.71954 339.43648 248.76245 341.19416 250.84969 C 342.95183 252.93694 343.84471 255.93165 343.87218 259.8315 L 321.99588 259.8315 C 322.51769 256.17883 323.86414 253.25373 326.03378 251.05663 C 328.20341 248.83207 330.75708 247.71954 333.6957 247.71954 z "></path></g></g></g></svg>