<svg xmlns="http://www.w3.org/2000/svg" xmlns:xlink="http://www.w3.org/1999/xlink" width="800" height="400" viewBox="0 0 800 400" xml:space="preserve"><desc>Created with Fabric.js 5.3.0</desc><defs></defs><g transform="matrix(1 0 0 1 399.5240985442 200)" id="ih3Kuf8m1kcVNVv1LVyXA"><g style="">		<g transform="matrix(1.560844536 0 0 0.5853066529 0 17.2017264753)" id="pO_6K9RkmLS60X-A1vSjQ"><path style="stroke: none; stroke-width: 1; stroke-dasharray: none; stroke-linecap: butt; stroke-dashoffset: 0; stroke-linejoin: miter; stroke-miterlimit: 4; fill: rgb(47,193,255); fill-rule: nonzero; opacity: 1;" transform=" translate(0, 0.000005)" d="M 13.67793 28.88925 L 40 -0.3510099999999987 L 13.67793 -28.88926 L 13.67793 -12.246010000000002 L -40 -12.246010000000002 L -40 11.60099 L 13.677930000000003 11.60099 z" stroke-linecap="round"></path></g>		<g transform="matrix(-1.560844536 0 0 -0.5853066529 -1.9e-9 -17.2017256923)" id="7Us8dCiZWPrP5ER07V9de"><path style="stroke: none; stroke-width: 1; stroke-dasharray: none; stroke-linecap: butt; stroke-dashoffset: 0; stroke-linejoin: miter; stroke-miterlimit: 4; fill: rgb(103,103,103); fill-rule: nonzero; opacity: 1;" transform=" translate(0, 0.000005)" d="M 13.67793 28.88925 L 40 -0.3510099999999987 L 13.67793 -28.88926 L 13.67793 -12.246010000000002 L -40 -12.246010000000002 L -40 11.60099 L 13.677930000000003 11.60099 z" stroke-linecap="round"></path></g></g></g><g transform="matrix(0.23635301 0 0 0.23635301 622.8995720387 195.6848184818)" id="Z4X0cEwKrjvkCT5Cqcnrv"><g style="">		<g transform="matrix(1 0 0 1 -152.3014184284 -1.3)" id="dGWX9myTHXgasOqQdR2BO"><linearGradient id="SVGID_49" gradientUnits="userSpaceOnUse" gradientTransform="matrix(1.33 0 0 1.33 -128.21 304.56)" x1="465.5223" y1="388.4361" x2="465.5223" y2="-143.4539"><stop offset="0%" style="stop-color:rgb(148,148,148);stop-opacity: 1"></stop><stop offset="53%" style="stop-color:rgb(162,162,161);stop-opacity: 1"></stop><stop offset="100%" style="stop-color:rgb(180,180,180);stop-opacity: 1"></stop></linearGradient><path style="stroke: none; stroke-width: 1; stroke-dasharray: none; stroke-linecap: butt; stroke-dashoffset: 0; stroke-linejoin: miter; stroke-miterlimit: 4; fill: url(#SVGID_49); fill-rule: nonzero; opacity: 1;" transform=" translate(-490.8985815716, -466.6)" d="M 699.2 797 C 699 810.3 688.3000000000001 821 675 821.2 L 306.8 821.2 C 293.5 821.2 282.6 810.4000000000001 282.6 797 C 282.6 797 282.6 797 282.6 797 L 282.6 136.2 C 282.40000000000003 123.1 292.8 112.29999999999998 305.90000000000003 111.99999999999999 C 305.90000000000003 111.99999999999999 305.90000000000003 111.99999999999999 305.90000000000003 111.99999999999999 C 306.20000000000005 111.99999999999999 306.50000000000006 111.99999999999999 306.70000000000005 111.99999999999999 L 675 111.99999999999999 C 688.3 111.99999999999999 699.2 122.79999999999998 699.2 136.1 C 699.2 136.1 699.2 136.1 699.2 136.1 L 699.2 797 z" stroke-linecap="round"></path></g>		<g transform="matrix(1 0 0 1 -149.8 -107.1090455928)" id="IOrV7ieQ2pWjnutR-H5la"><path style="stroke: none; stroke-width: 1; stroke-dasharray: none; stroke-linecap: butt; stroke-dashoffset: 0; stroke-linejoin: miter; stroke-miterlimit: 4; fill: rgb(30,53,96); fill-rule: nonzero; opacity: 1;" transform=" translate(-493.4, -360.7909544072)" d="M 343.7 360.6 C 343.9 335.8 363.9 315.8 388.7 315.6 L 596.5 315.6 C 621.6 314.90000000000003 642.4 334.6 643.1 359.70000000000005 C 643.1 359.70000000000005 643.1 359.70000000000005 643.1 359.70000000000005 C 643.1 360.00000000000006 643.1 360.30000000000007 643.1 360.6 L 643.1 360.6 C 643.1 385.6 622.8000000000001 405.90000000000003 597.7 406 L 596.4000000000001 406 L 388.7 406 C 363.8 405.7 343.8 385.4 343.7 360.6 z" stroke-linecap="round"></path></g>		<g transform="matrix(1 0 0 1 -149.8 -241.6083057596)" id="quYUMNWKGh6smn-Kioqgz"><path style="stroke: none; stroke-width: 1; stroke-dasharray: none; stroke-linecap: butt; stroke-dashoffset: 0; stroke-linejoin: miter; stroke-miterlimit: 4; fill: rgb(30,53,96); fill-rule: nonzero; opacity: 1;" transform=" translate(-493.4, -226.2916942404)" d="M 343.7 226.5 C 343.7 201.6 363.8 181.3 388.7 181.1 L 596.5 181.1 C 621.6 180.4 642.4 200.1 643.1 225.2 C 643.1 225.2 643.1 225.2 643.1 225.2 C 643.1 225.6 643.1 226.1 643.1 226.5 L 643.1 226.5 C 642.9 251.6 622.4 271.7 597.4 271.5 C 597.4 271.5 597.4 271.5 597.3 271.5 L 388.7 271.5 C 364 271.3 344 251.3 343.7 226.5 z" stroke-linecap="round"></path></g>		<g transform="matrix(1 0 0 1 -251.9 -241.4)" id="jyawKNvZgDGgnvBXNbPyI"><path style="stroke: none; stroke-width: 1; stroke-dasharray: none; stroke-linecap: butt; stroke-dashoffset: 0; stroke-linejoin: miter; stroke-miterlimit: 4; fill: rgb(118,202,231); fill-rule: nonzero; opacity: 1;" transform=" translate(-30.5, -30.5)" d="M 0 30.5 C 0 13.65532 13.65532 0 30.5 0 C 47.34468 0 61 13.65532 61 30.5 C 61 47.34468 47.34468 61 30.5 61 C 13.65532 61 0 47.34468 0 30.5 z" stroke-linecap="round"></path></g>		<g transform="matrix(1.00001575 0 0 1.00001575 -251.9844843 -107.4029655)" id="uv5LpI-I9cWudXoBgaKya"><path style="stroke: none; stroke-width: 1; stroke-dasharray: none; stroke-linecap: butt; stroke-dashoffset: 0; stroke-linejoin: miter; stroke-miterlimit: 4; fill: rgb(118,202,231); fill-rule: nonzero; opacity: 1;" transform=" translate(-30.5, -30.5)" d="M 0 30.5 C 0 13.65532 13.65532 0 30.5 0 C 47.34468 0 61 13.65532 61 30.5 C 61 47.34468 47.34468 61 30.5 61 C 13.65532 61 0 47.34468 0 30.5 z" stroke-linecap="round"></path></g>		<g transform="matrix(1 0 0 1 44.1 132.4101838101)" id="jJEfhlL01DSu_eNS3iHiJ"><linearGradient id="SVGID_50" gradientUnits="userSpaceOnUse" gradientTransform="matrix(1.33 0 0 1.33 -128.21 304.56)" x1="613.1742" y1="390.9438" x2="613.1742" y2="54.9795"><stop offset="0%" style="stop-color:rgb(41,116,186);stop-opacity: 1"></stop><stop offset="16%" style="stop-color:rgb(47,123,191);stop-opacity: 1"></stop><stop offset="53%" style="stop-color:rgb(75,140,203);stop-opacity: 1"></stop><stop offset="82%" style="stop-color:rgb(95,152,210);stop-opacity: 1"></stop><stop offset="100%" style="stop-color:rgb(103,156,211);stop-opacity: 1"></stop></linearGradient><path style="stroke: none; stroke-width: 1; stroke-dasharray: none; stroke-linecap: butt; stroke-dashoffset: 0; stroke-linejoin: miter; stroke-miterlimit: 4; fill: url(#SVGID_50); fill-rule: nonzero; opacity: 1;" transform=" translate(-687.3, -600.3101838101)" d="M 1003.7 683.3 C 1001.4000000000001 613.6999999999999 949.2 556 880.3000000000001 546.6999999999999 C 875.3000000000001 449.29999999999995 793.2 373.8999999999999 695.8000000000001 376.99999999999994 C 618.2 375.09999999999997 547.8000000000001 422.3999999999999 520.2 494.9 C 436.90000000000003 504.9 373.40000000000003 574.3 370.90000000000003 658.2 C 374.6 753 454.20000000000005 827 549 823.6 L 862.4 823.6 C 939.6 822.4 1001.9 760.4 1003.7 683.3 z" stroke-linecap="round"></path></g>		<g transform="matrix(1 0 0 1 44.0911534374 196.7090720738)" id="7ZvOywSDesTGV9hLxj9eF"><path style="stroke: none; stroke-width: 1; stroke-dasharray: none; stroke-linecap: butt; stroke-dashoffset: 0; stroke-linejoin: miter; stroke-miterlimit: 4; fill: rgb(242,242,242); fill-rule: nonzero; opacity: 1;" transform=" translate(-687.2911534374, -664.6090720738)" d="M 838.7 699 L 838.7 556.5 L 799.3000000000001 556.5 L 799.3000000000001 731.3 L 903.2 731.3 L 903.2 699 L 838.7 699 z M 537.6 629 C 529.8000000000001 625.6 522.6 621.2 516 615.9 C 512.5 612.1999999999999 510.7 607.4 510.9 602.3 C 510.59999999999997 597.1999999999999 513 592.4 517.1999999999999 589.5 C 522.4 585.8 528.6999999999999 584 534.9999999999999 584.4 C 550.0999999999999 583.8 564.9999999999999 588.1999999999999 577.3999999999999 596.6999999999999 L 577.3999999999999 560.1999999999999 C 563.6999999999998 555.5999999999999 549.3999999999999 553.4 534.9999999999999 553.8 C 518.3999999999999 553 502.0999999999999 557.9 488.7999999999999 567.8 C 477.3999999999999 577 470.9999999999999 590.9 471.3999999999999 605.5999999999999 C 472.7999999999999 629.1999999999999 488.69999999999993 649.4999999999999 511.2999999999999 656.4999999999999 C 520.5999999999999 660.2999999999998 529.3999999999999 665.4999999999999 537.1999999999999 671.7999999999998 C 541.1999999999999 675.1999999999998 543.4999999999999 680.0999999999998 543.5999999999999 685.3999999999999 C 543.8 690.4999999999999 541.3999999999999 695.2999999999998 537.1999999999999 698.0999999999999 C 531.4999999999999 701.8 524.9 703.5999999999999 518.0999999999999 703.1999999999999 C 501.19999999999993 703.0999999999999 484.8999999999999 696.6999999999999 472.2999999999999 685.4 L 472.2999999999999 724.4 C 485.8999999999999 731.1 500.8999999999999 734.4 515.9999999999999 734.1999999999999 C 533.0999999999999 735.4999999999999 550.1999999999999 731.4 564.7999999999998 722.3 C 576.8999999999999 713.3 583.7999999999998 698.8 582.9999999999999 683.6999999999999 C 583.3999999999999 672.8 579.5999999999999 662.1999999999999 572.3999999999999 653.9999999999999 C 562.7 643.3 550.9 634.8 537.6 629 L 537.6 629 z M 756.4 696 C 766 679.8 770.8 661.3 770.4 642.6 C 771 626.1 767.3 609.8000000000001 759.8 595.1 C 753.3 582 743.0999999999999 571.1 730.5 563.7 C 716.9 555.8000000000001 701.2 552 685.5 552.7 C 670.6 553.4000000000001 656.1 557.6 643.1 565 C 629.8000000000001 572.7 619.1 584 612.1 597.7 C 604.5 612.7 600.6 629.3000000000001 600.6 646 C 600.3000000000001 661.4 603.8000000000001 676.7 610.8000000000001 690.5 C 617.4000000000001 703.4 627.4000000000001 714.3 639.7 721.9 C 652.5 729.6999999999999 667.1 733.9 682.1 734.1999999999999 L 718.2 776.5999999999999 L 769.1 776.5999999999999 L 718.7 730 C 734.7 723.3 748 711.3 756.4 696 L 756.4 696 z M 717 685.5 C 709.3 695.3 697.3 700.9 684.8 700.3 C 672.4 700.5999999999999 660.5 695 653 685 C 644.1 672.7 639.9 657.7 641.1 642.6 C 639.9 627.4 644.2 612.3000000000001 653.4 600.2 C 661 589.9000000000001 673.3 584.1 686.1 584.5 C 698.6 584 710.4 589.9 717.5 600.2 C 726.3 612.5 730.4 627.5 729.4 642.6 C 730.6 657.9 726.2 673.2 717 685.5 z" stroke-linecap="round"></path></g></g></g><g transform="matrix(7.8557503059 0 0 7.8557503059 193.0645583679 195.6848184818)" id="Z1WInZfBBNJJiAhr3NvLY"><g style="">		<g transform="matrix(1 0 0 1 3.202 -0.1930134304)" id="hDL1OpDzW-BPojdxLc8sq"><path style="stroke: none; stroke-width: 1; stroke-dasharray: none; stroke-linecap: butt; stroke-dashoffset: 0; stroke-linejoin: miter; stroke-miterlimit: 4; fill: rgb(0,137,214); fill-rule: nonzero; opacity: 1;" transform=" translate(-19.202, -15.8069865696)" d="M 14.98 25.994 C 18.55 25.268 21.498 24.667 21.532 24.659 L 21.594 24.644 L 18.224 20.028999999999996 C 16.37 17.490999999999996 14.854 15.403999999999996 14.854 15.391999999999996 C 14.854 15.379999999999995 18.334 4.335999999999997 18.354 4.296999999999995 C 18.361 4.283999999999995 20.729 8.990999999999996 24.095 15.707999999999995 L 29.869 27.228999999999996 L 29.913 27.316999999999997 L 19.201999999999998 27.316999999999997 L 8.490999999999998 27.316999999999997 Z" stroke-linecap="round"></path></g>		<g transform="matrix(1 0 0 1 -6.2245 -2.432134733)" id="mOlPxqP5vGBrUUumFsfET"><path style="stroke: none; stroke-width: 1; stroke-dasharray: none; stroke-linecap: butt; stroke-dashoffset: 0; stroke-linejoin: miter; stroke-miterlimit: 4; fill: rgb(0,137,214); fill-rule: nonzero; opacity: 1;" transform=" translate(-9.7755, -13.567865267)" d="M 2.125 24.586 C 2.125 24.58 3.713 21.406 5.654 17.532999999999998 L 9.183 10.491999999999997 L 13.3 6.52 C 15.562000000000001 4.334999999999999 17.419 2.5439999999999996 17.426000000000002 2.5409999999999995 C 17.41119849319022 2.607252421077534 17.38906195964136 2.6716496095833184 17.360000000000003 2.7329999999999997 L 12.89 13.759 L 8.5 24.589 L 5.311 24.589 C 3.56 24.6 2.125 24.593 2.125 24.586 Z" stroke-linecap="round"></path></g></g></g></svg>