<?xml version="1.0" encoding="UTF-8" standalone="no"?>
<!-- Created with Inkscape (http://www.inkscape.org/) -->

<svg
   version="1.1"
   id="svg1"
   width="1000"
   height="500"
   viewBox="0 0 1000 500"
   sodipodi:docname="azure-blob-storage-sql-db.svg"
   inkscape:version="1.3.2 (091e20e, 2023-11-25, custom)"
   xml:space="preserve"
   xmlns:inkscape="http://www.inkscape.org/namespaces/inkscape"
   xmlns:sodipodi="http://sodipodi.sourceforge.net/DTD/sodipodi-0.dtd"
   xmlns:xlink="http://www.w3.org/1999/xlink"
   xmlns="http://www.w3.org/2000/svg"
   xmlns:svg="http://www.w3.org/2000/svg"><defs
     id="defs1"><clipPath
       id="CLIPPATH_56">	<path
   id="pO20KKJNwU1CrE_FoZeM0"
   d="M -256,-256 H 256 V 256 H -256 Z"
   stroke-linecap="round" /></clipPath><style
       id="style1">.cls-1{fill:#2684ff;}.cls-2{fill:url(#linear-gradient);}.cls-3{fill:url(#linear-gradient-2);}</style><linearGradient
       id="linear-gradient"
       x1="34.64"
       y1="15.35"
       x2="19"
       y2="30.99"
       gradientUnits="userSpaceOnUse"><stop
         offset="0.18"
         stop-color="#0052cc"
         id="stop1" /><stop
         offset="1"
         stop-color="#2684ff"
         id="stop2" /></linearGradient><linearGradient
       id="linear-gradient-2"
       x1="38.78"
       y1="60.28"
       x2="54.39"
       y2="44.67"
       xlink:href="#linear-gradient" /><linearGradient
       id="SVGID_49"
       gradientUnits="userSpaceOnUse"
       gradientTransform="matrix(1.33,0,0,1.33,-128.21,304.56)"
       x1="465.52231"
       y1="388.4361"
       x2="465.52231"
       y2="-143.4539"><stop
         offset="0%"
         style="stop-color:rgb(148,148,148);stop-opacity: 1"
         id="stop2-5" /><stop
         offset="53%"
         style="stop-color:rgb(162,162,161);stop-opacity: 1"
         id="stop3" /><stop
         offset="100%"
         style="stop-color:rgb(180,180,180);stop-opacity: 1"
         id="stop4" /></linearGradient><linearGradient
       id="SVGID_50"
       gradientUnits="userSpaceOnUse"
       gradientTransform="matrix(1.33,0,0,1.33,-128.21,304.56)"
       x1="613.17419"
       y1="390.94379"
       x2="613.17419"
       y2="54.9795"><stop
         offset="0%"
         style="stop-color:rgb(41,116,186);stop-opacity: 1"
         id="stop8" /><stop
         offset="16%"
         style="stop-color:rgb(47,123,191);stop-opacity: 1"
         id="stop9" /><stop
         offset="53%"
         style="stop-color:rgb(75,140,203);stop-opacity: 1"
         id="stop10" /><stop
         offset="82%"
         style="stop-color:rgb(95,152,210);stop-opacity: 1"
         id="stop11" /><stop
         offset="100%"
         style="stop-color:rgb(103,156,211);stop-opacity: 1"
         id="stop12" /></linearGradient></defs><sodipodi:namedview
     id="namedview1"
     pagecolor="#ffffff"
     bordercolor="#111111"
     borderopacity="1"
     inkscape:showpageshadow="0"
     inkscape:pageopacity="0"
     inkscape:pagecheckerboard="1"
     inkscape:deskcolor="#d1d1d1"
     showgrid="false"
     inkscape:zoom="1.677"
     inkscape:cx="490.45915"
     inkscape:cy="250.14908"
     inkscape:window-width="2560"
     inkscape:window-height="1369"
     inkscape:window-x="1072"
     inkscape:window-y="210"
     inkscape:window-maximized="1"
     inkscape:current-layer="g17"><inkscape:page
       x="0"
       y="0"
       inkscape:label="1"
       id="page1"
       width="1000"
       height="500"
       margin="0"
       bleed="0" /></sodipodi:namedview><g
     id="g1"
     inkscape:groupmode="layer"
     inkscape:label="1"><path
       id="path3"
       d="m 318.137,130.637 c 77.636,0 36.09,113.726 113.726,113.726"
       style="fill:none;stroke:#00aaff;stroke-width:17.0079;stroke-linecap:butt;stroke-linejoin:miter;stroke-miterlimit:4;stroke-dasharray:none;stroke-opacity:1"
       transform="scale(1.3333333)" /><path
       id="path4"
       d="m 318.031,244.469 c 77.637,0 36.09,-113.938 113.938,-113.938"
       style="fill:none;stroke:#696969;stroke-width:17.0079;stroke-linecap:butt;stroke-linejoin:miter;stroke-miterlimit:4;stroke-dasharray:none;stroke-opacity:1"
       transform="scale(1.3333333)" /><path
       id="path5"
       d="m 330.848,187.5 c 0,81.004 -65.668,146.668 -146.672,146.668 -81,0 -146.668,-65.664 -146.668,-146.668 0,-81.004 65.668,-146.668 146.668,-146.668 81.004,0 146.672,65.664 146.672,146.668 z"
       style="fill:none;stroke:#4d4d4d;stroke-width:11.3386;stroke-linecap:butt;stroke-linejoin:miter;stroke-miterlimit:4;stroke-dasharray:none;stroke-opacity:1"
       transform="scale(1.3333333)" /><path
       id="path6"
       d="m 711.984,187.5 c 0,81.004 -65.664,146.668 -146.668,146.668 -81.004,0 -146.671,-65.664 -146.671,-146.668 0,-81.004 65.667,-146.668 146.671,-146.668 81.004,0 146.668,65.664 146.668,146.668 z"
       style="fill:none;stroke:#4d4d4d;stroke-width:11.3386;stroke-linecap:butt;stroke-linejoin:miter;stroke-miterlimit:4;stroke-dasharray:none;stroke-opacity:1"
       transform="scale(1.3333333)" /><path
       id="path15"
       d="m 457.152,243.441 -36.043,21.977 -1.007,-42.199 z"
       style="fill:#00aaff;fill-opacity:1;fill-rule:evenodd;stroke:none"
       transform="scale(1.3333333)" /><path
       id="path16"
       d="m 292.48,130.711 36.04,-21.977 1.011,42.2 z"
       style="fill:#00aaff;fill-opacity:1;fill-rule:evenodd;stroke:none"
       transform="scale(1.3333333)" /><g
       id="g17"
       transform="translate(4.4938833,22.637569)"><g
         transform="matrix(0.25646122,0,0,0.25646122,749.27195,227.37363)"
         id="Z4X0cEwKrjvkCT5Cqcnrv"><g
           id="g13">		<g
   transform="translate(-152.30142,-1.3)"
   id="dGWX9myTHXgasOqQdR2BO"><linearGradient
     id="linearGradient6"
     gradientUnits="userSpaceOnUse"
     gradientTransform="matrix(1.33,0,0,1.33,-128.21,304.56)"
     x1="465.52231"
     y1="388.4361"
     x2="465.52231"
     y2="-143.4539"><stop
       offset="0%"
       style="stop-color:rgb(148,148,148);stop-opacity: 1"
       id="stop1-3" /><stop
       offset="53%"
       style="stop-color:rgb(162,162,161);stop-opacity: 1"
       id="stop5" /><stop
       offset="100%"
       style="stop-color:rgb(180,180,180);stop-opacity: 1"
       id="stop6" /></linearGradient><path
     style="opacity:1;fill:url(#SVGID_49);fill-rule:nonzero;stroke:none;stroke-width:1;stroke-linecap:butt;stroke-linejoin:miter;stroke-miterlimit:4;stroke-dasharray:none;stroke-dashoffset:0"
     transform="translate(-490.89858,-466.6)"
     d="M 699.2,797 C 699,810.3 688.3,821 675,821.2 H 306.8 c -13.3,0 -24.2,-10.8 -24.2,-24.2 0,0 0,0 0,0 V 136.2 c -0.2,-13.1 10.2,-23.9 23.3,-24.2 0,0 0,0 0,0 0.3,0 0.6,0 0.8,0 H 675 c 13.3,0 24.2,10.8 24.2,24.1 0,0 0,0 0,0 z"
     stroke-linecap="round"
     id="path4-6" /></g>		<g
   transform="translate(-149.8,-107.10905)"
   id="IOrV7ieQ2pWjnutR-H5la"><path
     style="opacity:1;fill:#1e3560;fill-rule:nonzero;stroke:none;stroke-width:1;stroke-linecap:butt;stroke-linejoin:miter;stroke-miterlimit:4;stroke-dasharray:none;stroke-dashoffset:0"
     transform="translate(-493.4,-360.79095)"
     d="m 343.7,360.6 c 0.2,-24.8 20.2,-44.8 45,-45 h 207.8 c 25.1,-0.7 45.9,19 46.6,44.1 0,0 0,0 0,0 0,0.3 0,0.6 0,0.9 v 0 c 0,25 -20.3,45.3 -45.4,45.4 h -1.3 -207.7 c -24.9,-0.3 -44.9,-20.6 -45,-45.4 z"
     stroke-linecap="round"
     id="path5-9" /></g>		<g
   transform="translate(-149.8,-241.60831)"
   id="quYUMNWKGh6smn-Kioqgz"><path
     style="opacity:1;fill:#1e3560;fill-rule:nonzero;stroke:none;stroke-width:1;stroke-linecap:butt;stroke-linejoin:miter;stroke-miterlimit:4;stroke-dasharray:none;stroke-dashoffset:0"
     transform="translate(-493.4,-226.29169)"
     d="m 343.7,226.5 c 0,-24.9 20.1,-45.2 45,-45.4 h 207.8 c 25.1,-0.7 45.9,19 46.6,44.1 0,0 0,0 0,0 0,0.4 0,0.9 0,1.3 v 0 c -0.2,25.1 -20.7,45.2 -45.7,45 0,0 0,0 -0.1,0 H 388.7 c -24.7,-0.2 -44.7,-20.2 -45,-45 z"
     stroke-linecap="round"
     id="path6-9" /></g>		<g
   transform="translate(-251.9,-241.4)"
   id="jyawKNvZgDGgnvBXNbPyI"><path
     style="opacity:1;fill:#76cae7;fill-rule:nonzero;stroke:none;stroke-width:1;stroke-linecap:butt;stroke-linejoin:miter;stroke-miterlimit:4;stroke-dasharray:none;stroke-dashoffset:0"
     transform="translate(-30.5,-30.5)"
     d="M 0,30.5 C 0,13.65532 13.65532,0 30.5,0 47.34468,0 61,13.65532 61,30.5 61,47.34468 47.34468,61 30.5,61 13.65532,61 0,47.34468 0,30.5 Z"
     stroke-linecap="round"
     id="path7" /></g>		<g
   transform="matrix(1.0000157,0,0,1.0000157,-251.98448,-107.40297)"
   id="uv5LpI-I9cWudXoBgaKya"><path
     style="opacity:1;fill:#76cae7;fill-rule:nonzero;stroke:none;stroke-width:1;stroke-linecap:butt;stroke-linejoin:miter;stroke-miterlimit:4;stroke-dasharray:none;stroke-dashoffset:0"
     transform="translate(-30.5,-30.5)"
     d="M 0,30.5 C 0,13.65532 13.65532,0 30.5,0 47.34468,0 61,13.65532 61,30.5 61,47.34468 47.34468,61 30.5,61 13.65532,61 0,47.34468 0,30.5 Z"
     stroke-linecap="round"
     id="path8" /></g>		<g
   transform="translate(44.1,132.41018)"
   id="jJEfhlL01DSu_eNS3iHiJ"><linearGradient
     id="linearGradient16"
     gradientUnits="userSpaceOnUse"
     gradientTransform="matrix(1.33,0,0,1.33,-128.21,304.56)"
     x1="613.17419"
     y1="390.94379"
     x2="613.17419"
     y2="54.9795"><stop
       offset="0%"
       style="stop-color:rgb(41,116,186);stop-opacity: 1"
       id="stop7" /><stop
       offset="16%"
       style="stop-color:rgb(47,123,191);stop-opacity: 1"
       id="stop13" /><stop
       offset="53%"
       style="stop-color:rgb(75,140,203);stop-opacity: 1"
       id="stop14" /><stop
       offset="82%"
       style="stop-color:rgb(95,152,210);stop-opacity: 1"
       id="stop15" /><stop
       offset="100%"
       style="stop-color:rgb(103,156,211);stop-opacity: 1"
       id="stop16" /></linearGradient><path
     style="opacity:1;fill:url(#SVGID_50);fill-rule:nonzero;stroke:none;stroke-width:1;stroke-linecap:butt;stroke-linejoin:miter;stroke-miterlimit:4;stroke-dasharray:none;stroke-dashoffset:0"
     transform="translate(-687.3,-600.31018)"
     d="M 1003.7,683.3 C 1001.4,613.7 949.2,556 880.3,546.7 875.3,449.3 793.2,373.9 695.8,377 c -77.6,-1.9 -148,45.4 -175.6,117.9 -83.3,10 -146.8,79.4 -149.3,163.3 3.7,94.8 83.3,168.8 178.1,165.4 h 313.4 c 77.2,-1.2 139.5,-63.2 141.3,-140.3 z"
     stroke-linecap="round"
     id="path12-0" /></g>		<g
   transform="translate(44.091153,196.70907)"
   id="7ZvOywSDesTGV9hLxj9eF"><path
     style="opacity:1;fill:#f2f2f2;fill-rule:nonzero;stroke:none;stroke-width:1;stroke-linecap:butt;stroke-linejoin:miter;stroke-miterlimit:4;stroke-dasharray:none;stroke-dashoffset:0"
     transform="translate(-687.29115,-664.60907)"
     d="M 838.7,699 V 556.5 H 799.3 V 731.3 H 903.2 V 699 Z M 537.6,629 c -7.8,-3.4 -15,-7.8 -21.6,-13.1 -3.5,-3.7 -5.3,-8.5 -5.1,-13.6 -0.3,-5.1 2.1,-9.9 6.3,-12.8 5.2,-3.7 11.5,-5.5 17.8,-5.1 15.1,-0.6 30,3.8 42.4,12.3 v -36.5 c -13.7,-4.6 -28,-6.8 -42.4,-6.4 -16.6,-0.8 -32.9,4.1 -46.2,14 -11.4,9.2 -17.8,23.1 -17.4,37.8 1.4,23.6 17.3,43.9 39.9,50.9 9.3,3.8 18.1,9 25.9,15.3 4,3.4 6.3,8.3 6.4,13.6 0.2,5.1 -2.2,9.9 -6.4,12.7 -5.7,3.7 -12.3,5.5 -19.1,5.1 -16.9,-0.1 -33.2,-6.5 -45.8,-17.8 v 39 c 13.6,6.7 28.6,10 43.7,9.8 17.1,1.3 34.2,-2.8 48.8,-11.9 12.1,-9 19,-23.5 18.2,-38.6 0.4,-10.9 -3.4,-21.5 -10.6,-29.7 -9.7,-10.7 -21.5,-19.2 -34.8,-25 z m 218.8,67 c 9.6,-16.2 14.4,-34.7 14,-53.4 0.6,-16.5 -3.1,-32.8 -10.6,-47.5 -6.5,-13.1 -16.7,-24 -29.3,-31.4 -13.6,-7.9 -29.3,-11.7 -45,-11 -14.9,0.7 -29.4,4.9 -42.4,12.3 -13.3,7.7 -24,19 -31,32.7 -7.6,15 -11.5,31.6 -11.5,48.3 -0.3,15.4 3.2,30.7 10.2,44.5 6.6,12.9 16.6,23.8 28.9,31.4 12.8,7.8 27.4,12 42.4,12.3 l 36.1,42.4 h 50.9 L 718.7,730 c 16,-6.7 29.3,-18.7 37.7,-34 z M 717,685.5 c -7.7,9.8 -19.7,15.4 -32.2,14.8 -12.4,0.3 -24.3,-5.3 -31.8,-15.3 -8.9,-12.3 -13.1,-27.3 -11.9,-42.4 -1.2,-15.2 3.1,-30.3 12.3,-42.4 7.6,-10.3 19.9,-16.1 32.7,-15.7 12.5,-0.5 24.3,5.4 31.4,15.7 8.8,12.3 12.9,27.3 11.9,42.4 1.2,15.3 -3.2,30.6 -12.4,42.9 z"
     stroke-linecap="round"
     id="path13" /></g></g></g><g
         id="g33"
         transform="matrix(1.1231475,0,0,1.1231475,-25.513841,-28.695183)"><text
           xml:space="preserve"
           style="font-style:normal;font-variant:normal;font-weight:bold;font-stretch:normal;font-size:53.3333px;font-family:'Microsoft JhengHei UI';-inkscape-font-specification:'Microsoft JhengHei UI Bold';text-align:end;text-anchor:end;fill:#2684ff;fill-opacity:1;fill-rule:evenodd;stroke:#4d4d4d;stroke-width:0"
           x="359.8472"
           y="211.11317"
           id="text31"><tspan
             sodipodi:role="line"
             x="359.8472"
             y="211.11317"
             id="tspan32">Microsoft</tspan></text><text
           xml:space="preserve"
           style="font-style:normal;font-variant:normal;font-weight:bold;font-stretch:normal;font-size:84.3686px;font-family:'Microsoft JhengHei UI';-inkscape-font-specification:'Microsoft JhengHei UI Bold';text-align:end;text-anchor:end;fill:#2684ff;fill-opacity:1;fill-rule:evenodd;stroke:#4d4d4d;stroke-width:0"
           x="356.51859"
           y="287.06131"
           id="text33"><tspan
             sodipodi:role="line"
             id="tspan33"
             x="356.51859"
             y="287.06131"
             style="stroke-width:0">Azure</tspan></text></g></g></g></svg>
