<?xml version="1.0" encoding="UTF-8" standalone="no"?>
<!-- Created with Inkscape (http://www.inkscape.org/) -->

<svg
   version="1.1"
   id="svg1"
   width="1000"
   height="500"
   viewBox="0 0 1000 500"
   sodipodi:docname="dynamics-tacton-cpq.svg"
   inkscape:version="1.3.2 (091e20e, 2023-11-25, custom)"
   xml:space="preserve"
   xmlns:inkscape="http://www.inkscape.org/namespaces/inkscape"
   xmlns:sodipodi="http://sodipodi.sourceforge.net/DTD/sodipodi-0.dtd"
   xmlns:xlink="http://www.w3.org/1999/xlink"
   xmlns="http://www.w3.org/2000/svg"
   xmlns:svg="http://www.w3.org/2000/svg"><defs
     id="defs1"><clipPath
       id="CLIPPATH_56">	<path
   id="pO20KKJNwU1CrE_FoZeM0"
   d="M -256,-256 H 256 V 256 H -256 Z"
   stroke-linecap="round" /></clipPath><style
       id="style1">.cls-1{fill:#2684ff;}.cls-2{fill:url(#linear-gradient);}.cls-3{fill:url(#linear-gradient-2);}</style><linearGradient
       id="linear-gradient"
       x1="34.64"
       y1="15.35"
       x2="19"
       y2="30.99"
       gradientUnits="userSpaceOnUse"><stop
         offset="0.18"
         stop-color="#0052cc"
         id="stop1" /><stop
         offset="1"
         stop-color="#2684ff"
         id="stop2" /></linearGradient><linearGradient
       id="linear-gradient-2"
       x1="38.78"
       y1="60.28"
       x2="54.39"
       y2="44.67"
       xlink:href="#linear-gradient" /><linearGradient
       id="SVGID_49"
       gradientUnits="userSpaceOnUse"
       gradientTransform="matrix(1.33,0,0,1.33,-128.21,304.56)"
       x1="465.52231"
       y1="388.4361"
       x2="465.52231"
       y2="-143.4539"><stop
         offset="0%"
         style="stop-color:rgb(148,148,148);stop-opacity: 1"
         id="stop2-5" /><stop
         offset="53%"
         style="stop-color:rgb(162,162,161);stop-opacity: 1"
         id="stop3" /><stop
         offset="100%"
         style="stop-color:rgb(180,180,180);stop-opacity: 1"
         id="stop4" /></linearGradient><linearGradient
       id="SVGID_50"
       gradientUnits="userSpaceOnUse"
       gradientTransform="matrix(1.33,0,0,1.33,-128.21,304.56)"
       x1="613.17419"
       y1="390.94379"
       x2="613.17419"
       y2="54.9795"><stop
         offset="0%"
         style="stop-color:rgb(41,116,186);stop-opacity: 1"
         id="stop8" /><stop
         offset="16%"
         style="stop-color:rgb(47,123,191);stop-opacity: 1"
         id="stop9" /><stop
         offset="53%"
         style="stop-color:rgb(75,140,203);stop-opacity: 1"
         id="stop10" /><stop
         offset="82%"
         style="stop-color:rgb(95,152,210);stop-opacity: 1"
         id="stop11" /><stop
         offset="100%"
         style="stop-color:rgb(103,156,211);stop-opacity: 1"
         id="stop12" /></linearGradient><filter
       id="filter0_f"
       x="-0.018461539"
       y="-0.014545433"
       width="1.0369231"
       height="1.0290909"><feFlood
         flood-opacity="0"
         result="BackgroundImageFix"
         id="feFlood1" /><feBlend
         mode="normal"
         in="SourceGraphic"
         in2="BackgroundImageFix"
         result="shape"
         id="feBlend1" /><feGaussianBlur
         stdDeviation="0.4"
         result="effect1_foregroundBlur"
         id="feGaussianBlur1" /></filter><filter
       id="filter1_f"
       x="-0.18461538"
       y="-0.14545433"
       width="1.3692308"
       height="1.2909087"><feFlood
         flood-opacity="0"
         result="BackgroundImageFix"
         id="feFlood2" /><feBlend
         mode="normal"
         in="SourceGraphic"
         in2="BackgroundImageFix"
         result="shape"
         id="feBlend2" /><feGaussianBlur
         stdDeviation="4"
         result="effect1_foregroundBlur"
         id="feGaussianBlur2" /></filter><linearGradient
       id="paint0_linear"
       x1="38.0451"
       y1="-1"
       x2="56.6585"
       y2="47.7233"
       gradientUnits="userSpaceOnUse"><stop
         stop-color="#0B53CE"
         id="stop2-6" /><stop
         offset="1"
         stop-color="#7252AA"
         id="stop3-6" /></linearGradient><linearGradient
       id="paint1_linear"
       x1="64.1377"
       y1="93.4922"
       x2="64.1377"
       y2="35.4151"
       gradientUnits="userSpaceOnUse"><stop
         stop-color="#2266E3"
         id="stop4-0" /><stop
         offset="1"
         stop-color="#AE7FE2"
         id="stop5-0" /></linearGradient><linearGradient
       id="paint2_linear"
       x1="82"
       y1="56.7858"
       x2="62.0764"
       y2="56.7858"
       gradientUnits="userSpaceOnUse"><stop
         stop-color="#94B9FF"
         id="stop6-6" /><stop
         offset="0.287843"
         stop-color="#94B9FF"
         stop-opacity="0.523646"
         id="stop7-4" /><stop
         offset="1"
         stop-color="#538FFF"
         stop-opacity="0"
         id="stop8-9" /></linearGradient><clipPath
       id="clip0"><rect
         width="96"
         height="96"
         fill="white"
         id="rect8" /></clipPath></defs><sodipodi:namedview
     id="namedview1"
     pagecolor="#ffffff"
     bordercolor="#111111"
     borderopacity="1"
     inkscape:showpageshadow="0"
     inkscape:pageopacity="0"
     inkscape:pagecheckerboard="1"
     inkscape:deskcolor="#d1d1d1"
     showgrid="false"
     inkscape:zoom="1.677"
     inkscape:cx="490.45915"
     inkscape:cy="250.14908"
     inkscape:window-width="2560"
     inkscape:window-height="1369"
     inkscape:window-x="1072"
     inkscape:window-y="210"
     inkscape:window-maximized="1"
     inkscape:current-layer="g17"><inkscape:page
       x="0"
       y="0"
       inkscape:label="1"
       id="page1"
       width="1000"
       height="500"
       margin="0"
       bleed="0" /></sodipodi:namedview><g
     id="g1"
     inkscape:groupmode="layer"
     inkscape:label="1"><path
       id="path3"
       d="m 318.137,130.637 c 77.636,0 36.09,113.726 113.726,113.726"
       style="fill:none;stroke:#00aaff;stroke-width:17.0079;stroke-linecap:butt;stroke-linejoin:miter;stroke-miterlimit:4;stroke-dasharray:none;stroke-opacity:1"
       transform="scale(1.3333333)" /><path
       id="path4"
       d="m 318.031,244.469 c 77.637,0 36.09,-113.938 113.938,-113.938"
       style="fill:none;stroke:#696969;stroke-width:17.0079;stroke-linecap:butt;stroke-linejoin:miter;stroke-miterlimit:4;stroke-dasharray:none;stroke-opacity:1"
       transform="scale(1.3333333)" /><path
       id="path5"
       d="m 330.848,187.5 c 0,81.004 -65.668,146.668 -146.672,146.668 -81,0 -146.668,-65.664 -146.668,-146.668 0,-81.004 65.668,-146.668 146.668,-146.668 81.004,0 146.672,65.664 146.672,146.668 z"
       style="fill:none;stroke:#4d4d4d;stroke-width:11.3386;stroke-linecap:butt;stroke-linejoin:miter;stroke-miterlimit:4;stroke-dasharray:none;stroke-opacity:1"
       transform="scale(1.3333333)" /><path
       id="path6"
       d="m 711.984,187.5 c 0,81.004 -65.664,146.668 -146.668,146.668 -81.004,0 -146.671,-65.664 -146.671,-146.668 0,-81.004 65.667,-146.668 146.671,-146.668 81.004,0 146.668,65.664 146.668,146.668 z"
       style="fill:none;stroke:#4d4d4d;stroke-width:11.3386;stroke-linecap:butt;stroke-linejoin:miter;stroke-miterlimit:4;stroke-dasharray:none;stroke-opacity:1"
       transform="scale(1.3333333)" /><path
       id="path15"
       d="m 457.152,243.441 -36.043,21.977 -1.007,-42.199 z"
       style="fill:#00aaff;fill-opacity:1;fill-rule:evenodd;stroke:none"
       transform="scale(1.3333333)" /><path
       id="path16"
       d="m 292.48,130.711 36.04,-21.977 1.011,42.2 z"
       style="fill:#00aaff;fill-opacity:1;fill-rule:evenodd;stroke:none"
       transform="scale(1.3333333)" /><g
       id="g17"
       transform="translate(4.4938833,22.637569)"><g
         id="g43"
         transform="translate(7.4567134,-7.5666142)"><g
           style="fill:none"
           id="g40"
           transform="matrix(1.6783717,0,0,1.6783717,154.73651,97.383835)"><g
             clip-path="url(#clip0)"
             id="g15"><defs
               id="defs8"><filter
                 id="filter33"><feFlood
                   flood-opacity="0"
                   result="BackgroundImageFix"
                   id="feFlood33" /><feBlend
                   mode="normal"
                   in="SourceGraphic"
                   in2="BackgroundImageFix"
                   result="shape"
                   id="feBlend33" /><feGaussianBlur
                   stdDeviation="0.4"
                   result="effect1_foregroundBlur"
                   id="feGaussianBlur33" /></filter><filter
                 id="filter34"><feFlood
                   flood-opacity="0"
                   result="BackgroundImageFix"
                   id="feFlood34" /><feBlend
                   mode="normal"
                   in="SourceGraphic"
                   in2="BackgroundImageFix"
                   result="shape"
                   id="feBlend34" /><feGaussianBlur
                   stdDeviation="4"
                   result="effect1_foregroundBlur"
                   id="feGaussianBlur34" /></filter><linearGradient
                 id="linearGradient35"
                 x1="38.045101"
                 y1="-1"
                 x2="56.658501"
                 y2="47.723301"
                 gradientUnits="userSpaceOnUse"><stop
                   stop-color="#0B53CE"
                   id="stop34" /><stop
                   offset="1"
                   stop-color="#7252AA"
                   id="stop35" /></linearGradient><linearGradient
                 id="linearGradient37"
                 x1="64.137703"
                 y1="93.492203"
                 x2="64.137703"
                 y2="35.4151"
                 gradientUnits="userSpaceOnUse"><stop
                   stop-color="#2266E3"
                   id="stop36" /><stop
                   offset="1"
                   stop-color="#AE7FE2"
                   id="stop37" /></linearGradient><linearGradient
                 id="linearGradient40"
                 x1="82"
                 y1="56.785801"
                 x2="62.076401"
                 y2="56.785801"
                 gradientUnits="userSpaceOnUse"><stop
                   stop-color="#94B9FF"
                   id="stop38" /><stop
                   offset="0.287843"
                   stop-color="#94B9FF"
                   stop-opacity="0.523646"
                   id="stop39" /><stop
                   offset="1"
                   stop-color="#538FFF"
                   stop-opacity="0"
                   id="stop40" /></linearGradient><clipPath
                 id="clipPath40"><rect
                   width="96"
                   height="96"
                   fill="#ffffff"
                   id="rect40"
                   x="0"
                   y="0" /></clipPath></defs><mask
               id="mask0"
               mask-type="alpha"
               maskUnits="userSpaceOnUse"
               x="12"
               y="0"
               width="70"
               height="96"><path
                 d="m 82.0001,31.047 c 0,-4.2261 -2.6567,-7.996 -6.6367,-9.4174 L 17.3453,0.90903 C 14.7404,-0.0213096 12,1.90988 12,4.676 v 31.5051 c 0,1.6904 1.0627,3.1984 2.6547,3.767 l 26,9.2857 C 43.2596,50.1641 46,48.2329 46,45.4668 v -18.09 c 0,-1.3974 1.3966,-2.3641 2.7044,-1.8719 l 6.8178,2.5658 C 59.4195,29.5374 62,33.2657 62,37.4299 v 7.8777 L 32.6272,56.0399 C 31.0495,56.6164 30,58.1172 30,59.797 v 31.4827 c 0,2.7785 2.7631,4.7106 5.3728,3.757 L 75.432,80.3996 C 79.3763,78.9584 82,75.2064 82,71.007 Z"
                 fill="#ffffff"
                 id="path8-6" /></mask><g
               mask="url(#mask0)"
               id="g14"><path
                 d="m 12,-1 70.0001,24.9998 v 34.3247 c 0,2.766 -2.74,4.6972 -5.345,3.7672 L 62,56.8593 V 37.4241 C 62,33.258 59.4171,29.5283 55.5172,28.063 L 48.7034,25.5029 C 47.3957,25.0116 46,25.9782 46,27.3751 V 51.1428 L 12,39 Z"
                 fill="url(#paint0_linear)"
                 id="path9"
                 style="fill:url(#paint0_linear)" /><g
                 filter="url(#filter0_f)"
                 id="g10"><path
                   d="m 82,31.3998 v 0 c 0,4.1994 -2.6237,7.9588 -6.5681,9.4 L 30,57.3999 v 40 L 82,78.3998 Z"
                   fill="#000000"
                   fill-opacity="0.24"
                   id="path10" /></g><g
                 filter="url(#filter1_f)"
                 id="g11"><path
                   d="m 82,32.9998 v 0 c 0,4.1994 -2.6237,7.9587 -6.5681,9.3999 L 30,58.9999 v 40 L 82,79.9998 Z"
                   fill="#000000"
                   fill-opacity="0.32"
                   id="path11" /></g><path
                 d="m 82,30.9998 v 0 c 0,4.1994 -2.6237,7.9587 -6.5681,9.3999 L 30,56.9999 v 40 L 82,77.9998 Z"
                 fill="url(#paint1_linear)"
                 id="path12"
                 style="fill:url(#paint1_linear)" /><path
                 opacity="0.5"
                 d="m 82,30.9998 v 0 c 0,4.1994 -2.6237,7.9587 -6.5681,9.3999 L 30,56.9999 v 40 L 82,77.9998 Z"
                 fill="url(#paint2_linear)"
                 id="path13-6"
                 style="fill:url(#paint2_linear)" /><path
                 opacity="0.5"
                 d="m 62.0013,45.3202 -16.0091,5.8566 1e-4,23.4581 c 0,1.3974 1.3967,2.364 2.7045,1.8717 l 6.8273,-2.5698 c 3.897,-1.4669 6.4772,-5.195 6.4772,-9.3589 z"
                 fill="#b0adff"
                 id="path14" /></g></g></g><g
           id="g42"
           transform="translate(6.9932188)"><path
             id="text40"
             style="font-style:normal;font-variant:normal;font-weight:bold;font-stretch:normal;font-size:53.3333px;font-family:'Microsoft JhengHei UI';-inkscape-font-specification:'Microsoft JhengHei UI Bold';text-align:end;text-anchor:end;fill:#2684ff;fill-opacity:1;fill-rule:evenodd;stroke:#4d4d4d;stroke-width:0"
             d="M 324.47806 260.85483 C 321.52668 260.85483 319.10479 261.77627 317.21243 263.61655 C 315.32008 265.43946 314.37454 267.92145 314.37454 271.06381 L 314.37454 275.3353 L 309.47806 275.3353 L 309.47806 280.17905 L 314.37454 280.17905 L 314.37454 304.13608 L 320.46829 304.13608 L 320.46829 280.17905 L 327.13431 280.17905 L 327.13431 275.3353 L 320.46829 275.3353 L 320.46829 271.37631 C 320.46829 267.64368 322.01279 265.7767 325.10306 265.7767 C 326.17945 265.7767 327.22915 266.02106 328.25345 266.50717 L 328.25345 261.37631 C 327.26387 261.02909 326.00583 260.85483 324.47806 260.85483 z M 160.83353 261.8978 C 159.75714 261.8978 158.86174 262.23634 158.14993 262.91342 C 157.45549 263.57314 157.10892 264.41451 157.10892 265.43881 C 157.10892 266.44575 157.46547 267.28712 158.17728 267.9642 C 158.88908 268.64128 159.7745 268.97983 160.83353 268.97983 C 161.89255 268.97983 162.786 268.65127 163.51517 267.99155 C 164.24433 267.31446 164.60892 266.46311 164.60892 265.43881 C 164.60892 264.41451 164.24433 263.57314 163.51517 262.91342 C 162.786 262.23634 161.89255 261.8978 160.83353 261.8978 z M 105.57181 263.79819 L 105.57181 304.13608 L 111.3804 304.13608 L 111.3804 278.79819 C 111.3804 275.36069 111.2923 272.426 111.11868 269.99545 L 111.27493 269.99545 C 111.77841 272.3392 112.18704 273.88564 112.49954 274.63217 L 124.8179 304.13608 L 128.90579 304.13608 L 141.17142 274.3978 C 141.46656 273.70335 141.8752 272.23503 142.39603 269.99545 L 142.55228 269.99545 C 142.30922 273.12045 142.18704 275.82076 142.18704 278.09506 L 142.18704 304.13608 L 148.38431 304.13608 L 148.38431 263.79819 L 139.99954 263.79819 L 128.90579 290.36069 C 128.02038 292.77388 127.41339 294.5267 127.08353 295.62045 L 126.89993 295.62045 C 126.62216 294.24893 126.05922 292.52214 125.20853 290.43881 L 114.29642 263.79819 L 105.57181 263.79819 z M 340.70267 266.74155 L 334.60892 268.5892 L 334.60892 275.3353 L 329.73783 275.3353 L 329.73783 280.17905 L 334.60892 280.17905 L 334.60892 295.88217 C 334.60892 301.81966 337.3433 304.78842 342.81204 304.78842 C 344.9301 304.78842 346.55271 304.46594 347.68118 303.82358 L 347.68118 298.95444 C 346.79577 299.57943 345.80618 299.89194 344.71243 299.89194 C 343.30619 299.89194 342.28253 299.49328 341.64017 298.69467 C 341.01517 297.89606 340.70267 296.602 340.70267 294.81381 L 340.70267 280.17905 L 347.68118 280.17905 L 347.68118 275.3353 L 340.70267 275.3353 L 340.70267 266.74155 z M 185.96243 274.65756 C 181.30966 274.65756 177.58569 276.08183 174.79056 278.92905 C 171.99543 281.77626 170.59915 285.6044 170.59915 290.41342 C 170.59915 294.70161 171.90124 298.17319 174.5054 300.82944 C 177.10957 303.48568 180.51105 304.81381 184.71243 304.81381 C 188.0284 304.81381 190.74673 304.18078 192.86478 302.91342 L 192.86478 297.57358 C 190.712 299.13607 188.42033 299.91733 185.98978 299.91733 C 183.19464 299.91733 180.96308 299.04189 179.29642 297.28842 C 177.64712 295.51759 176.82181 293.07769 176.82181 289.97006 C 176.82181 286.79298 177.69117 284.26693 179.42728 282.39194 C 181.18075 280.49958 183.46244 279.55405 186.27493 279.55405 C 188.6534 279.55405 190.86695 280.29124 192.91556 281.76694 L 192.91556 276.03842 C 191.14473 275.11828 188.82701 274.65756 185.96243 274.65756 z M 232.9429 274.65756 C 228.29013 274.65756 224.60826 276.02974 221.89993 278.7728 C 219.20897 281.51585 217.86478 285.25588 217.86478 289.99545 C 217.86478 294.49197 219.1749 298.08573 221.79642 300.7767 C 224.4353 303.46767 227.95897 304.81381 232.36868 304.81381 C 236.86521 304.81381 240.45897 303.42557 243.14993 300.6478 C 245.8409 297.87002 247.18704 294.16211 247.18704 289.5267 C 247.18704 284.92601 245.911 281.29818 243.35892 278.64194 C 240.80684 275.98569 237.33526 274.65756 232.9429 274.65756 z M 264.26908 274.65756 C 260.98783 274.65756 258.23739 275.43078 256.01517 276.97592 C 253.79295 278.52106 252.68118 280.62046 252.68118 283.2767 C 252.68118 285.20378 253.19399 286.81034 254.21829 288.09506 C 255.2426 289.36242 257.22177 290.56034 260.15579 291.68881 C 262.95093 292.73048 264.74781 293.57184 265.54642 294.2142 C 266.34503 294.8392 266.74368 295.64649 266.74368 296.63608 C 266.74368 298.99718 264.83461 300.17905 261.01517 300.17905 C 258.11587 300.17905 255.31942 299.26758 252.62845 297.44467 L 252.62845 303.19858 C 254.93747 304.27496 257.63779 304.81381 260.72806 304.81381 C 264.33916 304.81381 267.25584 304.03256 269.47806 302.47006 C 271.70028 300.90756 272.81204 298.76411 272.81204 296.03842 C 272.81204 294.11134 272.23913 292.50478 271.09329 291.22006 C 269.96482 289.91798 267.83743 288.69402 264.71243 287.54819 C 262.17772 286.57597 260.5551 285.79471 259.84329 285.20444 C 259.14885 284.61416 258.80033 283.80686 258.80033 282.78256 C 258.80033 281.7409 259.27906 280.89953 260.23392 280.25717 C 261.18878 279.61481 262.43878 279.29233 263.98392 279.29233 C 266.69225 279.29233 269.14017 279.96941 271.32767 281.32358 L 271.32767 275.90756 C 269.14017 275.07423 266.78643 274.65756 264.26908 274.65756 z M 292.39408 274.65756 C 287.7413 274.65756 284.06139 276.02974 281.35306 278.7728 C 278.66209 281.51585 277.31595 285.25588 277.31595 289.99545 C 277.31595 294.49197 278.62802 298.08573 281.24954 300.7767 C 283.88843 303.46767 287.41209 304.81381 291.82181 304.81381 C 296.31833 304.81381 299.91209 303.42557 302.60306 300.6478 C 305.29403 297.87002 306.64017 294.16211 306.64017 289.5267 C 306.64017 284.92601 305.36412 281.29818 302.81204 278.64194 C 300.25996 275.98569 296.78643 274.65756 292.39408 274.65756 z M 213.22806 274.8392 C 209.61695 274.8392 207.10089 276.91451 205.67728 281.06381 L 205.54642 281.06381 L 205.54642 275.3353 L 199.42728 275.3353 L 199.42728 304.13608 L 205.54642 304.13608 L 205.54642 289.78842 C 205.54642 286.92384 206.15341 284.62218 207.36868 282.88608 C 208.60132 281.14997 210.20788 280.28256 212.18704 280.28256 C 213.6801 280.28256 214.87802 280.57705 215.78079 281.16733 L 215.78079 275.20444 C 215.15579 274.96138 214.30445 274.8392 213.22806 274.8392 z M 157.70853 275.3353 L 157.70853 304.13608 L 163.82767 304.13608 L 163.82767 275.3353 L 157.70853 275.3353 z M 232.65579 279.55405 C 235.34676 279.55405 237.40406 280.42145 238.82767 282.15756 C 240.25128 283.87631 240.96243 286.38435 240.96243 289.68295 C 240.96243 296.50586 238.19398 299.91733 232.65579 299.91733 C 230.01691 299.91733 227.92554 299.03191 226.3804 297.26108 C 224.85263 295.49025 224.08743 293.02626 224.08743 289.86655 C 224.08743 286.67211 224.84265 284.15409 226.35306 282.31381 C 227.86347 280.47354 229.96483 279.55405 232.65579 279.55405 z M 292.10892 279.55405 C 294.79989 279.55405 296.85719 280.42145 298.28079 282.15756 C 299.7044 283.87631 300.41556 286.38435 300.41556 289.68295 C 300.41556 296.50586 297.6471 299.91733 292.10892 299.91733 C 289.47003 299.91733 287.37671 299.03191 285.83158 297.26108 C 284.3038 295.49025 283.54056 293.02626 283.54056 289.86655 C 283.54056 286.67211 284.29577 284.15409 285.80618 282.31381 C 287.3166 280.47354 289.41795 279.55405 292.10892 279.55405 z M 291.11868 315.56381 C 290.0423 315.56381 289.14885 315.90235 288.43704 316.57944 C 287.7426 317.23916 287.39408 318.08052 287.39408 319.10483 C 287.39408 320.11177 287.75063 320.95509 288.46243 321.63217 C 289.17424 322.30925 290.05966 322.6478 291.11868 322.6478 C 292.17771 322.6478 293.07116 322.31728 293.80033 321.65756 C 294.52949 320.98048 294.89408 320.12913 294.89408 319.10483 C 294.89408 318.08052 294.52949 317.23916 293.80033 316.57944 C 293.07116 315.90235 292.17771 315.56381 291.11868 315.56381 z M 104.71243 317.4642 L 104.71243 357.80405 L 116.64017 357.80405 C 122.97696 357.80405 128.1673 355.93707 132.21243 352.20444 C 136.27493 348.45444 138.30618 343.42838 138.30618 337.12631 C 138.30618 324.01869 131.18876 317.4642 116.95267 317.4642 L 104.71243 317.4642 z M 110.96243 322.82944 L 116.61478 322.82944 C 121.52796 322.82944 125.27798 324.06143 127.86478 326.5267 C 130.45158 328.97461 131.74368 332.55232 131.74368 337.25717 C 131.74368 342.04883 130.38148 345.78083 127.65579 348.45444 C 124.94746 351.11068 121.21547 352.43881 116.45853 352.43881 L 110.96243 352.43881 L 110.96243 322.82944 z M 189.68704 328.32358 C 185.57247 328.32358 182.44746 330.12046 180.31204 333.7142 L 180.18118 333.7142 L 180.18118 329.00131 L 174.06204 329.00131 L 174.06204 357.80405 L 180.18118 357.80405 L 180.18118 341.37045 C 180.18118 339.00934 180.84221 337.0662 182.16165 335.53842 C 183.49846 333.99328 185.18119 333.22006 187.21243 333.22006 C 191.24021 333.22006 193.2554 335.98852 193.2554 341.5267 L 193.2554 357.80405 L 199.34915 357.80405 L 199.34915 340.19858 C 199.34915 332.28192 196.12801 328.32358 189.68704 328.32358 z M 218.33353 328.32358 C 214.47937 328.32358 211.08396 329.19294 208.14993 330.92905 L 208.14993 336.31967 C 211.04924 334.08009 214.22633 332.9603 217.68118 332.9603 C 221.44854 332.9603 223.33353 335.10375 223.33353 339.39194 L 214.97415 340.53842 C 208.53319 341.4412 205.31204 344.60028 205.31204 350.01694 C 205.31204 352.60374 206.11934 354.66104 207.73392 356.18881 C 209.36586 357.71659 211.59742 358.47983 214.42728 358.47983 C 218.2988 358.47983 221.21548 356.7971 223.17728 353.42905 L 223.30618 353.42905 L 223.30618 357.80405 L 229.24368 357.80405 L 229.24368 339.60092 C 229.24368 332.08357 225.60782 328.32358 218.33353 328.32358 z M 252.65579 328.32358 C 248.68011 328.32358 245.65926 330.06034 243.59329 333.53256 L 243.46243 333.53256 L 243.46243 329.00131 L 237.34329 329.00131 L 237.34329 357.80405 L 243.46243 357.80405 L 243.46243 341.5267 C 243.46243 339.07879 244.05337 337.08356 245.23392 335.53842 C 246.43183 333.99328 247.93423 333.22006 249.73978 333.22006 C 253.64602 333.22006 255.59915 335.77215 255.59915 340.87631 L 255.59915 357.80405 L 261.6929 357.80405 L 261.6929 341.47592 C 261.6929 339.1669 262.31791 337.21376 263.5679 335.61655 C 264.8179 334.01933 266.31031 333.22006 268.04642 333.22006 C 270.0603 333.22006 271.52667 333.85309 272.44681 335.12045 C 273.36695 336.38781 273.82767 338.44511 273.82767 341.29233 L 273.82767 357.80405 L 279.94681 357.80405 L 279.94681 340.01694 C 279.94681 332.22181 276.79576 328.32358 270.49368 328.32358 C 266.22286 328.32358 263.01169 330.24264 260.85892 334.07944 C 259.43531 330.24264 256.70093 328.32358 252.65579 328.32358 z M 316.24954 328.32358 C 311.59677 328.32358 307.8728 329.74784 305.07767 332.59506 C 302.28253 335.44228 300.88431 339.27042 300.88431 344.07944 C 300.88431 348.36762 302.1864 351.83921 304.79056 354.49545 C 307.39472 357.1517 310.79816 358.47983 314.99954 358.47983 C 318.31551 358.47983 321.03188 357.84679 323.14993 356.57944 L 323.14993 351.24155 C 320.99716 352.80404 318.70549 353.5853 316.27493 353.5853 C 313.4798 353.5853 311.24824 352.70791 309.58158 350.95444 C 307.93227 349.18361 307.10892 346.74371 307.10892 343.63608 C 307.10892 340.459 307.97633 337.93295 309.71243 336.05795 C 311.4659 334.16559 313.74955 333.22006 316.56204 333.22006 C 318.94051 333.22006 321.15406 333.95726 323.20267 335.43295 L 323.20267 329.70444 C 321.43184 328.7843 319.11412 328.32358 316.24954 328.32358 z M 339.99954 328.32358 C 336.7183 328.32358 333.9659 329.0968 331.74368 330.64194 C 329.52147 332.18707 328.4097 334.28842 328.4097 336.94467 C 328.4097 338.87175 328.92251 340.47636 329.94681 341.76108 C 330.97111 343.02844 332.95029 344.22636 335.88431 345.35483 C 338.67944 346.39649 340.47632 347.23981 341.27493 347.88217 C 342.07354 348.50717 342.4722 349.31446 342.4722 350.30405 C 342.4722 352.66515 340.56312 353.84506 336.74368 353.84506 C 333.84438 353.84506 331.04989 352.9336 328.35892 351.11069 L 328.35892 356.86655 C 330.66794 357.94293 333.3663 358.47983 336.45658 358.47983 C 340.06768 358.47983 342.98436 357.69857 345.20658 356.13608 C 347.42879 354.57358 348.54056 352.43013 348.54056 349.70444 C 348.54056 347.77736 347.96764 346.1708 346.82181 344.88608 C 345.69334 343.584 343.56595 342.36003 340.44095 341.2142 C 337.90623 340.24198 336.28361 339.46073 335.57181 338.87045 C 334.87737 338.28017 334.53079 337.47288 334.53079 336.44858 C 334.53079 335.40691 335.00757 334.56555 335.96243 333.92319 C 336.91729 333.28083 338.1673 332.9603 339.71243 332.9603 C 342.42076 332.9603 344.86869 333.63738 347.05618 334.99155 L 347.05618 329.57358 C 344.86869 328.74024 342.5169 328.32358 339.99954 328.32358 z M 140.98978 329.00131 L 152.39603 357.75131 L 150.39017 362.54233 C 149.29642 365.09441 147.60371 366.37045 145.31204 366.37045 C 144.23566 366.37045 143.19399 366.14606 142.18704 365.69467 L 142.18704 370.85092 C 143.15926 371.18078 144.42728 371.34506 145.98978 371.34506 C 150.76408 371.34506 154.40992 368.09787 156.92728 361.60483 L 169.60892 329.00131 L 163.43704 329.00131 L 156.22415 349.60092 C 155.84221 350.85092 155.60783 351.7524 155.52103 352.30795 L 155.39017 352.30795 C 155.09503 350.9017 154.86868 349.98221 154.71243 349.54819 L 147.78665 329.00131 L 140.98978 329.00131 z M 287.99368 329.00131 L 287.99368 357.80405 L 294.11283 357.80405 L 294.11283 329.00131 L 287.99368 329.00131 z M 223.33353 343.55795 L 223.33353 346.11069 C 223.33353 348.31554 222.65644 350.1465 221.30228 351.60483 C 219.94811 353.0458 218.24542 353.76694 216.19681 353.76694 C 214.75584 353.76694 213.57593 353.36828 212.65579 352.56967 C 211.73566 351.7537 211.27493 350.71203 211.27493 349.44467 C 211.27493 347.93426 211.70159 346.78842 212.55228 346.00717 C 213.42033 345.22592 214.89473 344.6951 216.97806 344.41733 L 223.33353 343.55795 z " /></g></g><g
         id="g45"
         transform="translate(36.958902,0.17005693)"><path
           id="text43"
           style="font-style:normal;font-variant:normal;font-weight:bold;font-stretch:normal;font-size:75.3946px;font-family:'Microsoft JhengHei UI';-inkscape-font-specification:'Microsoft JhengHei UI Bold';text-align:end;text-anchor:end;fill:#364e59;fill-opacity:1;fill-rule:evenodd;stroke:#4d4d4d;stroke-width:0"
           d="M 616.04917 136.85058 L 609.93979 138.83886 L 609.93979 148.85253 L 602.87143 148.85253 L 602.87143 154.15331 L 609.93979 154.15331 L 609.93979 178.63378 C 609.93979 186.51192 613.43542 190.45214 620.43003 190.45214 C 622.88428 190.45214 624.86067 190.02206 626.35776 189.16308 L 626.35776 183.8623 C 625.22881 184.77037 623.81682 185.22362 622.12339 185.22362 C 619.93911 185.22362 618.38217 184.63409 617.44956 183.45605 C 616.51694 182.27801 616.04917 180.30357 616.04917 177.53026 L 616.04917 154.15331 L 626.35776 154.15331 L 626.35776 148.85253 L 616.04917 148.85253 L 616.04917 136.85058 z M 722.18393 136.85058 L 716.07261 138.83886 L 716.07261 148.85253 L 709.00425 148.85253 L 709.00425 154.15331 L 716.07261 154.15331 L 716.07261 178.63378 C 716.07261 186.51192 719.57018 190.45214 726.56479 190.45214 C 729.01904 190.45214 730.99544 190.02206 732.49253 189.16308 L 732.49253 183.8623 C 731.36357 184.77037 729.95158 185.22362 728.25815 185.22362 C 726.07387 185.22362 724.51499 184.63409 723.58237 183.45605 C 722.64976 182.27801 722.18393 180.30357 722.18393 177.53026 L 722.18393 154.15331 L 732.49253 154.15331 L 732.49253 148.85253 L 722.18393 148.85253 L 722.18393 136.85058 z M 649.8812 147.8955 C 644.72728 147.8955 640.15116 149.18377 636.15073 151.76073 L 636.15073 158.23925 C 640.05299 154.87693 644.46964 153.19628 649.40268 153.19628 C 655.04746 153.19628 657.87143 156.72961 657.87143 163.79784 L 645.57456 165.56542 C 636.64109 166.84163 632.17417 171.24767 632.17417 178.78222 C 632.17417 182.31634 633.32811 185.16349 635.63511 187.32323 C 637.96664 189.45843 641.14529 190.52441 645.17026 190.52441 C 650.69232 190.52441 654.8635 188.07157 657.68589 183.16308 L 657.90659 183.16308 L 657.90659 189.56737 L 664.05503 189.56737 L 664.05503 162.95214 C 664.05503 152.91426 659.33006 147.8955 649.8812 147.8955 z M 694.72104 147.8955 C 688.36454 147.8955 683.27233 149.92021 679.4437 153.96972 C 675.61507 158.01923 673.69956 163.4178 673.69956 170.16698 C 673.69956 176.20444 675.46817 181.114 679.00229 184.89355 C 682.56095 188.64855 687.22309 190.52441 692.99057 190.52441 C 697.18734 190.52441 700.86951 189.56763 704.0355 187.65331 L 704.0355 181.72753 C 700.9186 184.10815 697.55535 185.29784 693.94761 185.29784 C 689.67721 185.29784 686.27822 183.89842 683.75034 181.10058 C 681.22246 178.30273 679.95932 174.47366 679.95932 169.61425 C 679.95932 164.63212 681.30848 160.64554 684.00815 157.65136 C 686.73237 154.63263 690.18163 153.12206 694.35386 153.12206 C 697.81435 153.12206 701.06449 154.18999 704.10776 156.32519 L 704.10776 149.88183 C 701.359 148.55653 698.23062 147.8955 694.72104 147.8955 z M 758.55698 147.8955 C 752.20048 147.8955 747.16915 149.84676 743.46323 153.74901 C 739.78186 157.62673 737.93979 162.95185 737.93979 169.72558 C 737.93979 176.033 739.74416 181.07689 743.3519 184.85644 C 746.98419 188.63598 751.73234 190.52441 757.598 190.52441 C 763.65999 190.52441 768.53186 188.56253 772.21323 184.63573 C 775.8946 180.70894 777.73667 175.52876 777.73667 169.09862 C 777.73667 162.47215 776.03089 157.28331 772.61948 153.52831 C 769.23262 149.77331 764.54535 147.8955 758.55698 147.8955 z M 807.95932 147.8955 C 802.09367 147.8955 797.63931 150.48461 794.59604 155.66308 L 794.41245 155.66308 L 794.41245 148.85253 L 788.26401 148.85253 L 788.26401 189.56737 L 794.41245 189.56737 L 794.41245 166.33886 C 794.41245 162.55932 795.49294 159.41836 797.65268 156.91503 C 799.81242 154.38715 802.57357 153.12206 805.93589 153.12206 C 812.36602 153.12206 815.58042 157.51554 815.58042 166.30175 L 815.58042 189.56737 L 821.72886 189.56737 L 821.72886 164.68261 C 821.72886 159.23418 820.54978 155.07361 818.1937 152.20214 C 815.83762 149.33067 812.42606 147.8955 807.95932 147.8955 z M 758.04136 153.12206 C 762.36083 153.12206 765.67381 154.53405 767.98081 157.35644 C 770.31234 160.15428 771.4769 164.14282 771.4769 169.32128 C 771.4769 174.37703 770.29978 178.30273 767.9437 181.10058 C 765.61216 183.89842 762.31175 185.29784 758.04136 185.29784 C 753.84459 185.29784 750.48134 183.86267 747.95346 180.9912 C 745.45013 178.11973 744.19956 174.27809 744.19956 169.46776 C 744.19956 164.38747 745.45013 160.39893 747.95346 157.50292 C 750.4568 154.58236 753.82005 153.12206 758.04136 153.12206 z M 657.87143 168.91503 L 657.87143 173.03808 C 657.87143 176.52311 656.79094 179.43115 654.6312 181.76269 C 652.47146 184.09422 649.75863 185.26073 646.49448 185.26073 C 644.1384 185.26073 642.22484 184.62288 640.75229 183.34667 C 639.30429 182.07046 638.58042 180.41299 638.58042 178.37597 C 638.58042 175.84809 639.25402 173.98285 640.60386 172.78026 C 641.97823 171.55314 644.40984 170.70751 647.89487 170.2412 L 657.87143 168.91503 z " /><path
           id="text45"
           style="font-style:normal;font-variant:normal;font-weight:bold;font-stretch:normal;font-size:113.85px;font-family:'Microsoft JhengHei UI';-inkscape-font-specification:'Microsoft JhengHei UI Bold';text-align:end;text-anchor:end;fill:#ff9900;fill-opacity:1;fill-rule:evenodd;stroke:#4d4d4d;stroke-width:0"
           d="M 641.94956 208.79784 C 628.83014 208.79784 618.10067 213.15308 609.76206 221.8623 C 601.4605 230.53446 597.31089 241.5792 597.31089 254.99511 C 597.31089 267.85511 601.05318 278.2125 608.5394 286.06933 C 616.06269 293.88909 626.04996 297.7998 638.50229 297.7998 C 648.17509 297.7998 656.20015 296.18617 662.57456 292.96191 L 662.57456 280.34472 C 656.27427 284.16195 648.97182 286.06933 640.67026 286.06933 C 631.73868 286.06933 624.60463 283.12406 619.26792 277.23144 C 613.96826 271.33882 611.3187 263.62903 611.3187 254.10448 C 611.3187 244.13521 614.1543 236.07489 619.82456 229.92284 C 625.49482 223.73374 633.01856 220.63964 642.39487 220.63964 C 649.76991 220.63964 656.49663 222.34335 662.57456 225.75292 L 662.57456 212.24511 C 657.0896 209.94736 650.21405 208.79784 641.94956 208.79784 z M 787.20932 208.90917 C 773.60812 208.90917 763.13715 213.07837 755.79917 221.41698 C 748.49825 229.7556 744.848 240.72593 744.848 254.32714 C 744.848 266.89065 748.31417 277.19321 755.24448 285.23534 C 762.21186 293.27747 772.06988 297.44667 784.8187 297.74316 L 802.83042 317.53417 L 821.06284 317.53417 L 798.38315 295.90917 C 808.27831 293.42612 815.55923 288.33065 820.22886 280.62206 C 824.93554 272.91348 827.2894 263.49998 827.2894 252.38183 C 827.2894 239.37359 823.71356 228.88499 816.56089 220.91698 C 809.44527 212.91191 799.66166 208.90917 787.20932 208.90917 z M 679.19565 210.24316 L 679.19565 296.35448 L 692.53745 296.35448 L 692.53745 264.833 L 703.15464 264.833 C 712.27152 265.12948 719.92452 262.66595 726.11362 257.44042 C 732.30273 252.17783 735.39878 245.22982 735.39878 236.59472 C 735.39878 228.03374 732.80405 221.51068 727.61557 217.02636 C 722.4271 212.50498 714.95819 210.24316 705.21128 210.24316 L 679.19565 210.24316 z M 786.54136 220.52831 C 795.36176 220.52831 802.03365 223.45595 806.55503 229.31151 C 811.11347 235.16708 813.39096 243.28418 813.39096 253.66112 C 813.39096 263.66746 810.94506 271.57895 806.05307 277.39745 C 801.19815 283.21595 794.43617 286.12597 785.76401 286.12597 C 777.27715 286.12597 770.64247 283.16112 765.86167 277.23144 C 761.11792 271.30176 758.74643 263.37068 758.74643 253.43847 C 758.74643 243.58037 761.19234 235.62972 766.08432 229.58886 C 770.97631 223.548 777.79508 220.52831 786.54136 220.52831 z M 692.53745 221.41698 L 702.87729 221.41698 C 715.21844 221.41698 721.38901 226.66128 721.38901 237.14941 C 721.38901 248.19344 714.95799 253.71581 702.098 253.71581 L 692.53745 253.71581 L 692.53745 221.41698 z " /></g></g></g></svg>
