<svg xmlns="http://www.w3.org/2000/svg" xmlns:xlink="http://www.w3.org/1999/xlink" width="800" height="400" viewBox="0 0 800 400" xml:space="preserve"><desc>Created with Fabric.js 5.3.0</desc><defs></defs><g transform="matrix(0.3643081952 0 0 0.3643081952 619.5516349589 200)" id="2pcZWlenz5gzQJ9MvXaNi"><g style="">		<g transform="matrix(1 0 0 1 170.15 160.55)" id="UqbQvN-IF3UX314rxFRM1"><path style="stroke: none; stroke-width: 1; stroke-dasharray: none; stroke-linecap: butt; stroke-dashoffset: 0; stroke-linejoin: miter; stroke-miterlimit: 4; fill: rgb(12,62,90); fill-rule: nonzero; opacity: 1;" transform=" translate(-670.15, -466.1)" d="M 670.3 512.1 C 636 512.1 634.4 496.3 634.4 466.1 C 634.4 435.90000000000003 636 420.1 670.3 420.1 C 704.4 420.1 706 435.90000000000003 706 466.1 C 706 496.3 704.4 512.1 670.3 512.1 M 670.3 401.1 C 649 401.1 635.3 405.40000000000003 625.8 415.1 C 615.4 425.70000000000005 613.3 441.90000000000003 613.3 466.1 C 613.3 490.3 615.3 506.5 625.8 517.1 C 635.3 526.8000000000001 649.0999999999999 531.1 670.3 531.1 C 691.4 531.1 705 526.8000000000001 714.5 517.1 C 725 506.5 727 490.40000000000003 727 466.1 C 727 441.8 725 425.70000000000005 714.5 415.1 C 705 405.4 691.4 401.1 670.3 401.1" stroke-linecap="round"></path></g>		<g transform="matrix(1 0 0 1 307.9113363882 159.4)" id="Vye_VCWB1fQH9GlOt_bh8"><path style="stroke: none; stroke-width: 1; stroke-dasharray: none; stroke-linecap: butt; stroke-dashoffset: 0; stroke-linejoin: miter; stroke-miterlimit: 4; fill: rgb(12,62,90); fill-rule: nonzero; opacity: 1;" transform=" translate(-807.9113363882, -464.95)" d="M 839.2 529 L 860 529 L 860 460 C 860 458.3 860 456.6 860 454.8 C 860.1 439 860.3 422.7 850.1 412.2 C 842.7 404.59999999999997 830.7 400.9 813.3000000000001 400.9 C 796.4000000000001 400.9 784.1 405.59999999999997 775.5000000000001 415.09999999999997 L 774.5000000000001 416.2 L 774.5000000000001 403 L 755.8000000000001 403 L 755.8000000000001 529 L 776.6 529 L 776.6 468.9 C 776.6 452.9 776.6 437.9 785.4 428.9 C 790.9 423.29999999999995 799.4 420.59999999999997 811.3 420.59999999999997 C 822.4 420.59999999999997 829.5 422.59999999999997 833.6999999999999 426.79999999999995 C 839.4999999999999 432.79999999999995 839.4 442.79999999999995 839.3 456.59999999999997 C 839.3 458.49999999999994 839.3 460.49999999999994 839.3 462.59999999999997 L 839.2 529 z" stroke-linecap="round"></path></g>		<g transform="matrix(1 0 0 1 -63.95 160.5)" id="I2Hp97h7FJwTXmx8ewfLU"><path style="stroke: none; stroke-width: 1; stroke-dasharray: none; stroke-linecap: butt; stroke-dashoffset: 0; stroke-linejoin: miter; stroke-miterlimit: 4; fill: rgb(12,62,90); fill-rule: nonzero; opacity: 1;" transform=" translate(-436.05, -466.05)" d="M 440.9 512.1 C 409.29999999999995 512.1 406 498 406 465.8 C 406 433.3 409.2 420.1 440.9 420.1 C 454.09999999999997 420.1 464.29999999999995 421.20000000000005 471.7 430.70000000000005 L 487.09999999999997 419.80000000000007 C 479.99999999999994 407.20000000000005 464.49999999999994 401.00000000000006 440.4 401.00000000000006 C 389.09999999999997 401.00000000000006 385 430.30000000000007 385 465.80000000000007 C 385 501.50000000000006 389.2 531.1 440.4 531.1 C 464.5 531.1 480 524.9 487.09999999999997 512.4 L 471.7 501.59999999999997 C 465.2 509.6 454.1 512.1 440.9 512.1" stroke-linecap="round"></path></g>		<g transform="matrix(1 0 0 1 -195.25 160.5)" id="jIy72lKddOgItkHm5x7Y5"><path style="stroke: none; stroke-width: 1; stroke-dasharray: none; stroke-linecap: butt; stroke-dashoffset: 0; stroke-linejoin: miter; stroke-miterlimit: 4; fill: rgb(12,62,90); fill-rule: nonzero; opacity: 1;" transform=" translate(-304.75, -466.05)" d="M 339 470 L 339 470.6 C 339 499.6 335.2 513.2 300.2 513.2 C 279.09999999999997 513.2 271.2 507.40000000000003 271.2 491.90000000000003 C 271.2 473.3 280.5 470.1 300.2 470.1 L 339 470 z M 349.4 413.4 C 341.29999999999995 405.09999999999997 327.9 401.09999999999997 308.5 401.09999999999997 C 281.6 401.09999999999997 265.3 406.99999999999994 258.1 419.99999999999994 L 273.8 430.99999999999994 C 280.8 419.59999999999997 296.2 419.59999999999997 306.7 419.59999999999997 C 322.09999999999997 419.59999999999997 330.5 421.9 334.7 427.2 C 338.8 432.4 338.8 440 338.8 450.59999999999997 L 338.8 452.2 L 301.3 452.2 C 276.6 452.2 250.20000000000002 455.3 250.20000000000002 492 C 250.20000000000002 519 265 531 298.20000000000005 531 C 316.80000000000007 531 331.70000000000005 525.8 339.30000000000007 516.8 L 340.30000000000007 515.5999999999999 L 340.30000000000007 529 L 359.30000000000007 529 L 359.30000000000007 450.2 C 359.3 438.3 359.3 423.4 349.4 413.4 z" stroke-linecap="round"></path></g>		<g transform="matrix(1 0 0 1 -312.15 137.65)" id="pJsyildx6tqt0w4-NEz9O"><path style="stroke: none; stroke-width: 1; stroke-dasharray: none; stroke-linecap: butt; stroke-dashoffset: 0; stroke-linejoin: miter; stroke-miterlimit: 4; fill: rgb(12,62,90); fill-rule: nonzero; opacity: 1;" transform=" translate(-187.85, -443.2)" d="M 204.2 513.2 C 187.79999999999998 513.2 181.39999999999998 507.30000000000007 181.39999999999998 492.1 L 181.39999999999998 421.20000000000005 L 225.39999999999998 421.20000000000005 L 225.39999999999998 403.20000000000005 L 181.39999999999998 403.20000000000005 L 181.39999999999998 355.20000000000005 L 160.59999999999997 355.20000000000005 L 160.59999999999997 403.20000000000005 L 140 403.20000000000005 L 140 421.20000000000005 L 160.6 421.20000000000005 L 160.6 492.1 C 160.6 518.4 174.5 531.2 203.1 531.2 C 219.6 531.2 229.9 527 235.7 518.6 L 220.9 508 C 216.7 511.7 213 513.1 204.2 513.2" stroke-linecap="round"></path></g>		<g transform="matrix(1 0 0 1 51.6 137.65)" id="1lUtW5vjUEhhOz1CwGzOI"><path style="stroke: none; stroke-width: 1; stroke-dasharray: none; stroke-linecap: butt; stroke-dashoffset: 0; stroke-linejoin: miter; stroke-miterlimit: 4; fill: rgb(12,62,90); fill-rule: nonzero; opacity: 1;" transform=" translate(-551.6, -443.2)" d="M 568 513.2 C 551.6 513.2 545.2 507.30000000000007 545.2 492.1 L 545.2 421.20000000000005 L 589.2 421.20000000000005 L 589.2 403.20000000000005 L 545.2 403.20000000000005 L 545.2 355.20000000000005 L 524.4000000000001 355.20000000000005 L 524.4000000000001 403.20000000000005 L 503.7000000000001 403.20000000000005 L 503.7000000000001 421.20000000000005 L 524.4000000000001 421.20000000000005 L 524.4000000000001 492.1 C 524.4000000000001 518.4 538.3000000000001 531.2 566.9000000000001 531.2 C 583.4000000000001 531.2 593.7 527 599.5000000000001 518.6 L 584.6 508 C 580.4 511.7 576.7 513.1 568 513.2" stroke-linecap="round"></path></g>		<g transform="matrix(1 0 0 1 -53 -60.2)" id="cjw2oNkqQOBoA0jbt0F4j"><path style="stroke: none; stroke-width: 1; stroke-dasharray: none; stroke-linecap: butt; stroke-dashoffset: 0; stroke-linejoin: miter; stroke-miterlimit: 4; fill: rgb(244,153,42); fill-rule: nonzero; opacity: 1;" transform=" translate(-447, -245.35)" d="M 388.5 163.5 C 387.9 164.7 387.5 166.1 387.5 167.5 L 387.5 239.9 C 387.5 241.3 387.9 242.70000000000002 388.6 244 C 389.3 245.4 390.20000000000005 246.6 391.5 247.6 L 502.6 326 C 503.8 326.8 505.1 327.2 506.5 327.2 L 506.5 245.2 C 505.1 245.2 503.7 244.79999999999998 502.6 244 L 388.5 163.5 z" stroke-linecap="round"></path></g>		<g transform="matrix(1 0 0 1 64.6114309945 -39.3125)" id="p0omIU619IrifCPIzX548"><path style="stroke: none; stroke-width: 1; stroke-dasharray: none; stroke-linecap: butt; stroke-dashoffset: 0; stroke-linejoin: miter; stroke-miterlimit: 4; fill: rgb(244,153,42); fill-rule: nonzero; opacity: 1;" transform=" translate(-564.6114309945, -266.2375)" d="M 506.3 327.2 C 507.7 327.2 509.1 326.8 510.2 326 L 621.3 247.4 C 622.8 246.5 623.4 244.6 622.5 243 C 622.2 242.5 621.8 242.1 621.3 241.8 L 571.0999999999999 206.4 C 568.6999999999999 204.9 565.5999999999999 204.9 563.1999999999999 206.4 L 510.19999999999993 243.9 C 508.99999999999994 244.70000000000002 507.69999999999993 245.1 506.29999999999995 245.1 L 506.29999999999995 327.2 z" stroke-linecap="round"></path></g>		<g transform="matrix(1 0 0 1 -53 -60.2)" id="qKFwXxkkF1Q0m7d7A1iL2"><path style="stroke: none; stroke-width: 1; stroke-dasharray: none; stroke-linecap: butt; stroke-dashoffset: 0; stroke-linejoin: miter; stroke-miterlimit: 4; fill: rgb(237,114,3); fill-rule: nonzero; opacity: 1;" transform=" translate(-447, -245.35)" d="M 388.5 163.5 C 387.9 164.7 387.5 166.1 387.5 167.5 L 387.5 239.9 C 387.5 241.3 387.9 242.70000000000002 388.6 244 C 389.3 245.4 390.20000000000005 246.6 391.5 247.6 L 502.6 326 C 503.8 326.8 505.1 327.2 506.5 327.2 L 506.5 245.2 C 505.1 245.2 503.7 244.79999999999998 502.6 244 L 388.5 163.5 z" stroke-linecap="round"></path></g>		<g transform="matrix(1 0 0 1 64.8114309945 -39.3125)" id="wmbTDszKx1NPamApMJOnW"><path style="stroke: none; stroke-width: 1; stroke-dasharray: none; stroke-linecap: butt; stroke-dashoffset: 0; stroke-linejoin: miter; stroke-miterlimit: 4; fill: rgb(244,153,42); fill-rule: nonzero; opacity: 1;" transform=" translate(-564.8114309945, -266.2375)" d="M 506.5 327.2 C 507.9 327.2 509.3 326.8 510.4 326 L 621.5 247.4 C 623 246.5 623.6 244.6 622.7 243 C 622.4000000000001 242.5 622 242.1 621.5 241.8 L 571.3 206.4 C 568.9 204.9 565.8 204.9 563.4 206.4 L 510.4 243.9 C 509.2 244.70000000000002 507.9 245.1 506.5 245.1 L 506.5 327.2 z" stroke-linecap="round"></path></g>		<g transform="matrix(1 0 0 1 51.1114309945 -174.1950507654)" id="0i1bEMJZZI9-9No6FRlgb"><path style="stroke: none; stroke-width: 1; stroke-dasharray: none; stroke-linecap: butt; stroke-dashoffset: 0; stroke-linejoin: miter; stroke-miterlimit: 4; fill: rgb(244,153,42); fill-rule: nonzero; opacity: 1;" transform=" translate(-551.1114309945, -131.3549492346)" d="M 506.5 162.4 C 507.9 162.4 509.3 162.8 510.4 163.5 L 536 181.6 C 538.4 183.1 541.5 183.1 543.9 181.6 L 594.1 145.89999999999998 C 595.6 144.99999999999997 596.2 143.09999999999997 595.3000000000001 141.49999999999997 C 595.0000000000001 140.99999999999997 594.6 140.59999999999997 594.1 140.29999999999998 L 510.40000000000003 81.09999999999998 C 509.20000000000005 80.29999999999998 507.90000000000003 79.89999999999998 506.50000000000006 79.99999999999999 L 506.50000000000006 162.4 z" stroke-linecap="round"></path></g>		<g transform="matrix(1 0 0 1 -52.5 -163.65)" id="agWbNg4DGMLAuIdmd8rrP"><path style="stroke: none; stroke-width: 1; stroke-dasharray: none; stroke-linecap: butt; stroke-dashoffset: 0; stroke-linejoin: miter; stroke-miterlimit: 4; fill: rgb(253,223,99); fill-rule: nonzero; opacity: 1;" transform=" translate(-447.5, -141.9)" d="M 445.6 203.8 L 502.6 163.5 C 503.8 162.7 505.1 162.3 506.5 162.4 L 506.5 80 C 505.1 80 503.7 80.4 502.6 81.1 L 391.5 159.89999999999998 C 390.3 160.79999999999998 389.2 161.99999999999997 388.5 163.39999999999998 L 445.6 203.8 z" stroke-linecap="round"></path></g>		<g transform="matrix(1 0 0 1 -83.45 -101.8)" id="Kf3nomqW4D9HANojgARyW"><path style="stroke: none; stroke-width: 1; stroke-dasharray: none; stroke-linecap: butt; stroke-dashoffset: 0; stroke-linejoin: miter; stroke-miterlimit: 4; fill: rgb(221,73,20); fill-rule: nonzero; opacity: 1;" transform=" translate(-416.55, -203.75)" d="M 445.6 203.8 L 388.5 163.5 C 387.9 164.7 387.5 166.1 387.5 167.5 L 387.5 239.9 C 387.5 241.3 387.9 242.70000000000002 388.6 244 L 445.6 203.8 z" stroke-linecap="round"></path></g></g></g><g transform="matrix(1 0 0 1 399.5240985442 200)" id="ih3Kuf8m1kcVNVv1LVyXA"><g style="">		<g transform="matrix(1.560844536 0 0 0.5853066529 0 17.2017264753)" id="pO_6K9RkmLS60X-A1vSjQ"><path style="stroke: none; stroke-width: 1; stroke-dasharray: none; stroke-linecap: butt; stroke-dashoffset: 0; stroke-linejoin: miter; stroke-miterlimit: 4; fill: rgb(47,193,255); fill-rule: nonzero; opacity: 1;" transform=" translate(0, 0.000005)" d="M 13.67793 28.88925 L 40 -0.3510099999999987 L 13.67793 -28.88926 L 13.67793 -12.246010000000002 L -40 -12.246010000000002 L -40 11.60099 L 13.677930000000003 11.60099 z" stroke-linecap="round"></path></g>		<g transform="matrix(-1.560844536 0 0 -0.5853066529 -1.9e-9 -17.2017256923)" id="7Us8dCiZWPrP5ER07V9de"><path style="stroke: none; stroke-width: 1; stroke-dasharray: none; stroke-linecap: butt; stroke-dashoffset: 0; stroke-linejoin: miter; stroke-miterlimit: 4; fill: rgb(103,103,103); fill-rule: nonzero; opacity: 1;" transform=" translate(0, 0.000005)" d="M 13.67793 28.88925 L 40 -0.3510099999999987 L 13.67793 -28.88926 L 13.67793 -12.246010000000002 L -40 -12.246010000000002 L -40 11.60099 L 13.677930000000003 11.60099 z" stroke-linecap="round"></path></g></g></g><g transform="matrix(5.2634258763 0 0 5.2634258763 189.8121862433 200)" id="eML79nsleBNblAhbmWph7"><g style="">		<g transform="matrix(1 0 0 1 0.5 -12.5)" id="bh-aHjD40iw4m52ciwGhR"><path style="stroke: none; stroke-width: 1; stroke-dasharray: none; stroke-linecap: butt; stroke-dashoffset: 0; stroke-linejoin: miter; stroke-miterlimit: 4; fill: rgb(26,35,126); fill-rule: nonzero; opacity: 1;" transform=" translate(-24.5, -11.5)" d="M 11 1 L 11 14 L 29 22 L 38 16 z" stroke-linecap="round"></path></g>		<g transform="matrix(1 0 0 1 1 7.5)" id="RzpLvbqMLPc9g6-2TNpa7"><path style="stroke: none; stroke-width: 1; stroke-dasharray: none; stroke-linecap: butt; stroke-dashoffset: 0; stroke-linejoin: miter; stroke-miterlimit: 4; fill: rgb(26,35,126); fill-rule: nonzero; opacity: 1;" transform=" translate(-25, -31.5)" d="M 39 18 L 39 32 L 11 47 L 11 16 L 20 21 L 12 45 z" stroke-linecap="round"></path></g></g></g></svg>