<?xml version="1.0" encoding="UTF-8" standalone="no"?>
<!-- Created with Inkscape (http://www.inkscape.org/) -->

<svg
   version="1.1"
   id="svg1"
   width="1000"
   height="500"
   viewBox="0 0 1000 500"
   sodipodi:docname="integration-sample-grapic-aws-sftp-5-3.svg"
   inkscape:version="1.3.2 (091e20e, 2023-11-25, custom)"
   xmlns:inkscape="http://www.inkscape.org/namespaces/inkscape"
   xmlns:sodipodi="http://sodipodi.sourceforge.net/DTD/sodipodi-0.dtd"
   xmlns="http://www.w3.org/2000/svg"
   xmlns:svg="http://www.w3.org/2000/svg">
  <defs
     id="defs1" />
  <sodipodi:namedview
     id="namedview1"
     pagecolor="#ffffff"
     bordercolor="#111111"
     borderopacity="1"
     inkscape:showpageshadow="0"
     inkscape:pageopacity="0"
     inkscape:pagecheckerboard="1"
     inkscape:deskcolor="#d1d1d1"
     showgrid="false"
     inkscape:zoom="1.677"
     inkscape:cx="492.84436"
     inkscape:cy="250.14908"
     inkscape:window-width="2560"
     inkscape:window-height="1369"
     inkscape:window-x="1072"
     inkscape:window-y="210"
     inkscape:window-maximized="1"
     inkscape:current-layer="g17">
    <inkscape:page
       x="0"
       y="0"
       inkscape:label="1"
       id="page1"
       width="1000"
       height="500"
       margin="0"
       bleed="0" />
  </sodipodi:namedview>
  <g
     id="g1"
     inkscape:groupmode="layer"
     inkscape:label="1">
    <path
       id="path3"
       d="m 318.137,130.637 c 77.636,0 36.09,113.726 113.726,113.726"
       style="fill:none;stroke:#00aaff;stroke-width:17.0079;stroke-linecap:butt;stroke-linejoin:miter;stroke-miterlimit:4;stroke-dasharray:none;stroke-opacity:1"
       transform="scale(1.3333333)" />
    <path
       id="path4"
       d="m 318.031,244.469 c 77.637,0 36.09,-113.938 113.938,-113.938"
       style="fill:none;stroke:#696969;stroke-width:17.0079;stroke-linecap:butt;stroke-linejoin:miter;stroke-miterlimit:4;stroke-dasharray:none;stroke-opacity:1"
       transform="scale(1.3333333)" />
    <path
       id="path5"
       d="m 330.848,187.5 c 0,81.004 -65.668,146.668 -146.672,146.668 -81,0 -146.668,-65.664 -146.668,-146.668 0,-81.004 65.668,-146.668 146.668,-146.668 81.004,0 146.672,65.664 146.672,146.668 z"
       style="fill:none;stroke:#4d4d4d;stroke-width:11.3386;stroke-linecap:butt;stroke-linejoin:miter;stroke-miterlimit:4;stroke-dasharray:none;stroke-opacity:1"
       transform="scale(1.3333333)" />
    <path
       id="path6"
       d="m 711.984,187.5 c 0,81.004 -65.664,146.668 -146.668,146.668 -81.004,0 -146.671,-65.664 -146.671,-146.668 0,-81.004 65.667,-146.668 146.671,-146.668 81.004,0 146.668,65.664 146.668,146.668 z"
       style="fill:none;stroke:#4d4d4d;stroke-width:11.3386;stroke-linecap:butt;stroke-linejoin:miter;stroke-miterlimit:4;stroke-dasharray:none;stroke-opacity:1"
       transform="scale(1.3333333)" />
    <path
       id="path7"
       d="m 606.18,271.316 h -81.727 c -3.683,0 -6.668,-2.984 -6.668,-6.668 0,-3.679 2.985,-6.664 6.668,-6.664 h 81.727 c 3.679,0 6.664,2.985 6.664,6.664 0,3.684 -2.985,6.668 -6.664,6.668 z"
       style="fill:#656766;fill-opacity:1;fill-rule:nonzero;stroke:none"
       transform="scale(1.3333333)" />
    <path
       id="path8"
       d="m 571.98,263.934 v -40.149 c 0,-3.68 -2.984,-6.664 -6.664,-6.664 -3.683,0 -6.668,2.984 -6.668,6.664 v 40.149 z"
       style="fill:#656766;fill-opacity:1;fill-rule:nonzero;stroke:none"
       transform="scale(1.3333333)" />
    <path
       id="path9"
       d="m 657.191,216.383 v -92.906 c 0,-8.165 -6.621,-14.782 -14.781,-14.782 h -75.039 c -4.703,0 -9.129,-2.242 -11.914,-6.031 l -3.141,-4.277 c -2.785,-3.789 -7.207,-6.028 -11.91,-6.028 h -52.183 c -8.164,0 -14.782,6.618 -14.782,14.782 v 109.242 c 0,8.164 6.618,14.781 14.782,14.781 H 642.41 c 8.16,0 14.781,-6.617 14.781,-14.781 z"
       style="fill:#ffc966;fill-opacity:1;fill-rule:nonzero;stroke:none"
       transform="scale(1.3333333)" />
    <path
       id="path10"
       d="m 525.824,161.27 c -0.508,0.418 -0.762,0.968 -0.762,1.656 0,0.687 0.313,1.234 0.93,1.636 0.621,0.411 2.051,0.887 4.293,1.442 2.246,0.555 3.988,1.379 5.223,2.48 1.242,1.11 1.863,2.719 1.863,4.84 0,2.117 -0.797,3.836 -2.387,5.156 -1.586,1.317 -3.675,1.977 -6.269,1.977 -3.742,0 -7.113,-1.387 -10.11,-4.156 l 3.145,-3.856 c 2.547,2.231 4.902,3.344 7.066,3.344 0.969,0 1.727,-0.207 2.282,-0.621 0.554,-0.422 0.832,-0.984 0.832,-1.695 0,-0.707 -0.297,-1.27 -0.879,-1.688 -0.59,-0.418 -1.75,-0.84 -3.485,-1.269 -2.754,-0.653 -4.765,-1.504 -6.035,-2.555 -1.273,-1.047 -1.91,-2.691 -1.91,-4.934 0,-2.242 0.805,-3.972 2.414,-5.187 1.613,-1.219 3.625,-1.828 6.039,-1.828 1.578,0 3.156,0.273 4.731,0.808 1.578,0.543 2.953,1.309 4.125,2.301 l -2.668,3.856 c -2.055,-1.555 -4.172,-2.332 -6.36,-2.332 -0.879,0 -1.57,0.207 -2.078,0.625 z"
       style="fill:#ffffff;fill-opacity:1;fill-rule:nonzero;stroke:none"
       transform="scale(1.3333333)" />
    <path
       id="path11"
       d="m 561.477,156.555 v 4.629 h -10.954 v 5.109 h 10.415 v 4.629 h -10.415 v 9.266 h -5.277 v -23.633 z"
       style="fill:#ffffff;fill-opacity:1;fill-rule:nonzero;stroke:none"
       transform="scale(1.3333333)" />
    <path
       id="path12"
       d="m 579.332,161.117 v 19.071 h -5.277 v -19.071 h -6.696 v -4.562 h 18.664 v 4.562 z"
       style="fill:#ffffff;fill-opacity:1;fill-rule:nonzero;stroke:none"
       transform="scale(1.3333333)" />
    <path
       id="path13"
       d="m 609.535,158.664 c 1.656,1.41 2.488,3.574 2.488,6.496 0,2.918 -0.851,5.055 -2.554,6.406 -1.699,1.352 -4.297,2.028 -7.789,2.028 h -3.149 v 6.594 h -5.269 v -23.633 h 8.347 c 3.629,0 6.27,0.703 7.926,2.109 z m -3.867,9.297 c 0.629,-0.707 0.945,-1.742 0.945,-3.109 0,-1.36 -0.41,-2.332 -1.234,-2.907 -0.82,-0.574 -2.102,-0.859 -3.84,-0.859 h -3.008 v 7.941 h 3.551 c 1.758,0 2.953,-0.355 3.586,-1.066 z"
       style="fill:#ffffff;fill-opacity:1;fill-rule:nonzero;stroke:none"
       transform="scale(1.3333333)" />
    <path
       id="path14"
       d="m 583.309,264.648 c 0,9.938 -8.059,17.993 -17.993,17.993 -9.937,0 -17.992,-8.055 -17.992,-17.993 0,-9.937 8.055,-17.992 17.992,-17.992 9.934,0 17.993,8.055 17.993,17.992 z"
       style="fill:#ec6e62;fill-opacity:1;fill-rule:nonzero;stroke:none"
       transform="scale(1.3333333)" />
    <path
       id="path15"
       d="m 457.152,243.441 -36.043,21.977 -1.007,-42.199 z"
       style="fill:#00aaff;fill-opacity:1;fill-rule:evenodd;stroke:none"
       transform="scale(1.3333333)" />
    <path
       id="path16"
       d="m 292.48,130.711 36.04,-21.977 1.011,42.2 z"
       style="fill:#00aaff;fill-opacity:1;fill-rule:evenodd;stroke:none"
       transform="scale(1.3333333)" />
    <g
       id="g17"
       transform="translate(4.4938833,22.637569)">
      <text
         xml:space="preserve"
         style="font-style:normal;font-variant:normal;font-weight:normal;font-stretch:normal;font-size:113.023px;font-family:'Segoe MDL2 Assets';-inkscape-font-specification:'Segoe MDL2 Assets';text-align:center;text-anchor:middle;fill:#333333;fill-rule:evenodd;stroke:#4d4d4d;stroke-width:0"
         x="243.61539"
         y="240.53233"
         id="text16"><tspan
           id="tspan16"
           x="243.61539"
           y="240.53233"
           sodipodi:role="line"
           style="font-style:normal;font-variant:normal;font-weight:normal;font-stretch:normal;font-family:'Microsoft JhengHei UI';-inkscape-font-specification:'Microsoft JhengHei UI';fill:#333333;stroke-width:0">AWS</tspan><tspan
           x="243.61539"
           y="394.22815"
           id="tspan17"
           sodipodi:role="line"
           style="fill:#333333;stroke-width:0" /></text>
      <text
         xml:space="preserve"
         style="font-style:normal;font-variant:normal;font-weight:normal;font-stretch:normal;font-size:53.3333px;font-family:'Segoe MDL2 Assets';-inkscape-font-specification:'Segoe MDL2 Assets';text-align:center;text-anchor:middle;fill:#333333;fill-rule:evenodd;stroke:#4d4d4d;stroke-width:0"
         x="239.87886"
         y="297.04874"
         id="text16-5"><tspan
           id="tspan16-6"
           x="239.87886"
           y="297.04874"
           sodipodi:role="line"
           style="font-style:normal;font-variant:normal;font-weight:normal;font-stretch:normal;font-size:53.3333px;font-family:'Microsoft JhengHei UI';-inkscape-font-specification:'Microsoft JhengHei UI';fill:#ff7f2a;stroke-width:0">S3 Bucket</tspan><tspan
           x="239.87886"
           y="369.57474"
           id="tspan17-8"
           sodipodi:role="line"
           style="font-size:53.3333px;fill:#333333;stroke-width:0" /></text>
    </g>
  </g>
</svg>
