<svg xmlns:inkscape="http://www.inkscape.org/namespaces/inkscape" xmlns:sodipodi="http://sodipodi.sourceforge.net/DTD/sodipodi-0.dtd" xmlns="http://www.w3.org/2000/svg" xmlns:svg="http://www.w3.org/2000/svg" id="svg1" width="1000" height="500" viewBox="0 0 1000 500" sodipodi:docname="integration-sample-grapic-aws-sftp-5-3.svg" inkscape:version="1.3.2 (091e20e, 2023-11-25, custom)"><defs id="defs1"></defs><g id="g1" inkscape:groupmode="layer" inkscape:label="1"><path id="path3" d="m 318.137,130.637 c 77.636,0 36.09,113.726 113.726,113.726" style="fill:none;stroke:#00aaff;stroke-width:17.0079;stroke-linecap:butt;stroke-linejoin:miter;stroke-miterlimit:4;stroke-dasharray:none;stroke-opacity:1" transform="scale(1.3333333)"></path><path id="path4" d="m 318.031,244.469 c 77.637,0 36.09,-113.938 113.938,-113.938" style="fill:none;stroke:#696969;stroke-width:17.0079;stroke-linecap:butt;stroke-linejoin:miter;stroke-miterlimit:4;stroke-dasharray:none;stroke-opacity:1" transform="scale(1.3333333)"></path><path id="path5" d="m 330.848,187.5 c 0,81.004 -65.668,146.668 -146.672,146.668 -81,0 -146.668,-65.664 -146.668,-146.668 0,-81.004 65.668,-146.668 146.668,-146.668 81.004,0 146.672,65.664 146.672,146.668 z" style="fill:none;stroke:#4d4d4d;stroke-width:11.3386;stroke-linecap:butt;stroke-linejoin:miter;stroke-miterlimit:4;stroke-dasharray:none;stroke-opacity:1" transform="scale(1.3333333)"></path><path id="path6" d="m 711.984,187.5 c 0,81.004 -65.664,146.668 -146.668,146.668 -81.004,0 -146.671,-65.664 -146.671,-146.668 0,-81.004 65.667,-146.668 146.671,-146.668 81.004,0 146.668,65.664 146.668,146.668 z" style="fill:none;stroke:#4d4d4d;stroke-width:11.3386;stroke-linecap:butt;stroke-linejoin:miter;stroke-miterlimit:4;stroke-dasharray:none;stroke-opacity:1" transform="scale(1.3333333)"></path><path id="path7" d="m 606.18,271.316 h -81.727 c -3.683,0 -6.668,-2.984 -6.668,-6.668 0,-3.679 2.985,-6.664 6.668,-6.664 h 81.727 c 3.679,0 6.664,2.985 6.664,6.664 0,3.684 -2.985,6.668 -6.664,6.668 z" style="fill:#656766;fill-opacity:1;fill-rule:nonzero;stroke:none" transform="scale(1.3333333)"></path><path id="path8" d="m 571.98,263.934 v -40.149 c 0,-3.68 -2.984,-6.664 -6.664,-6.664 -3.683,0 -6.668,2.984 -6.668,6.664 v 40.149 z" style="fill:#656766;fill-opacity:1;fill-rule:nonzero;stroke:none" transform="scale(1.3333333)"></path><path id="path9" d="m 657.191,216.383 v -92.906 c 0,-8.165 -6.621,-14.782 -14.781,-14.782 h -75.039 c -4.703,0 -9.129,-2.242 -11.914,-6.031 l -3.141,-4.277 c -2.785,-3.789 -7.207,-6.028 -11.91,-6.028 h -52.183 c -8.164,0 -14.782,6.618 -14.782,14.782 v 109.242 c 0,8.164 6.618,14.781 14.782,14.781 H 642.41 c 8.16,0 14.781,-6.617 14.781,-14.781 z" style="fill:#ffc966;fill-opacity:1;fill-rule:nonzero;stroke:none" transform="scale(1.3333333)"></path><path id="path10" d="m 525.824,161.27 c -0.508,0.418 -0.762,0.968 -0.762,1.656 0,0.687 0.313,1.234 0.93,1.636 0.621,0.411 2.051,0.887 4.293,1.442 2.246,0.555 3.988,1.379 5.223,2.48 1.242,1.11 1.863,2.719 1.863,4.84 0,2.117 -0.797,3.836 -2.387,5.156 -1.586,1.317 -3.675,1.977 -6.269,1.977 -3.742,0 -7.113,-1.387 -10.11,-4.156 l 3.145,-3.856 c 2.547,2.231 4.902,3.344 7.066,3.344 0.969,0 1.727,-0.207 2.282,-0.621 0.554,-0.422 0.832,-0.984 0.832,-1.695 0,-0.707 -0.297,-1.27 -0.879,-1.688 -0.59,-0.418 -1.75,-0.84 -3.485,-1.269 -2.754,-0.653 -4.765,-1.504 -6.035,-2.555 -1.273,-1.047 -1.91,-2.691 -1.91,-4.934 0,-2.242 0.805,-3.972 2.414,-5.187 1.613,-1.219 3.625,-1.828 6.039,-1.828 1.578,0 3.156,0.273 4.731,0.808 1.578,0.543 2.953,1.309 4.125,2.301 l -2.668,3.856 c -2.055,-1.555 -4.172,-2.332 -6.36,-2.332 -0.879,0 -1.57,0.207 -2.078,0.625 z" style="fill:#ffffff;fill-opacity:1;fill-rule:nonzero;stroke:none" transform="scale(1.3333333)"></path><path id="path11" d="m 561.477,156.555 v 4.629 h -10.954 v 5.109 h 10.415 v 4.629 h -10.415 v 9.266 h -5.277 v -23.633 z" style="fill:#ffffff;fill-opacity:1;fill-rule:nonzero;stroke:none" transform="scale(1.3333333)"></path><path id="path12" d="m 579.332,161.117 v 19.071 h -5.277 v -19.071 h -6.696 v -4.562 h 18.664 v 4.562 z" style="fill:#ffffff;fill-opacity:1;fill-rule:nonzero;stroke:none" transform="scale(1.3333333)"></path><path id="path13" d="m 609.535,158.664 c 1.656,1.41 2.488,3.574 2.488,6.496 0,2.918 -0.851,5.055 -2.554,6.406 -1.699,1.352 -4.297,2.028 -7.789,2.028 h -3.149 v 6.594 h -5.269 v -23.633 h 8.347 c 3.629,0 6.27,0.703 7.926,2.109 z m -3.867,9.297 c 0.629,-0.707 0.945,-1.742 0.945,-3.109 0,-1.36 -0.41,-2.332 -1.234,-2.907 -0.82,-0.574 -2.102,-0.859 -3.84,-0.859 h -3.008 v 7.941 h 3.551 c 1.758,0 2.953,-0.355 3.586,-1.066 z" style="fill:#ffffff;fill-opacity:1;fill-rule:nonzero;stroke:none" transform="scale(1.3333333)"></path><path id="path14" d="m 583.309,264.648 c 0,9.938 -8.059,17.993 -17.993,17.993 -9.937,0 -17.992,-8.055 -17.992,-17.993 0,-9.937 8.055,-17.992 17.992,-17.992 9.934,0 17.993,8.055 17.993,17.992 z" style="fill:#ec6e62;fill-opacity:1;fill-rule:nonzero;stroke:none" transform="scale(1.3333333)"></path><path id="path15" d="m 457.152,243.441 -36.043,21.977 -1.007,-42.199 z" style="fill:#00aaff;fill-opacity:1;fill-rule:evenodd;stroke:none" transform="scale(1.3333333)"></path><path id="path16" d="m 292.48,130.711 36.04,-21.977 1.011,42.2 z" style="fill:#00aaff;fill-opacity:1;fill-rule:evenodd;stroke:none" transform="scale(1.3333333)"></path><g id="g17" transform="translate(4.4938833,22.637569)"><path id="text16" style="font-style:normal;font-variant:normal;font-weight:normal;font-stretch:normal;font-size:113.023px;font-family:'Segoe MDL2 Assets';-inkscape-font-specification:'Segoe MDL2 Assets';text-align:center;text-anchor:middle;fill:#333333;fill-rule:evenodd;stroke:#4d4d4d;stroke-width:0" d="M 341.9026 153.61243 C 333.4406 153.61243 326.4148 155.67345 320.82252 159.79407 C 315.23024 163.9147 312.43385 169.4141 312.43385 176.29407 C 312.43385 180.74582 313.6661 184.73867 316.13112 188.27063 C 318.59613 191.8026 324.46518 195.94057 333.73659 200.68665 C 340.17506 203.99787 344.47801 206.39078 346.64869 207.86243 C 348.85617 209.29729 350.60514 211.00656 351.89284 212.99329 C 353.18053 214.98002 353.82448 217.24375 353.82448 219.78235 C 353.82448 228.83301 347.60564 233.35852 335.17018 233.35852 C 331.34388 233.35852 327.16817 232.64104 322.64284 231.20618 C 318.1543 229.73453 314.71396 227.91202 312.32252 225.74134 L 312.32252 237.05579 C 314.19888 238.41707 317.45635 239.57578 322.09205 240.53235 C 326.76455 241.48893 330.55273 241.9679 333.45924 241.9679 C 342.98819 241.9679 350.40153 239.98042 355.69948 236.00696 C 360.99742 232.0335 363.64674 226.40492 363.64674 219.12024 C 363.64674 214.227 361.97327 209.81082 358.62526 205.87415 C 355.27725 201.90069 349.40821 197.83625 341.01979 193.67884 C 335.0596 190.69874 331.0508 188.50855 328.99049 187.11048 C 326.93018 185.71241 325.2925 184.07668 324.07838 182.20032 C 322.90106 180.28717 322.31276 178.04134 322.31276 175.46595 C 322.31276 171.30853 324.02203 168.09076 327.44362 165.8097 C 330.86521 163.49184 335.28139 162.33313 340.68971 162.33313 C 348.59984 162.33313 355.05719 164.06225 360.0608 167.52063 L 360.0608 156.64759 C 356.49205 154.62407 350.43818 153.61243 341.9026 153.61243 z M 151.89479 155.04798 L 119.00221 240.53235 L 129.48854 240.53235 L 138.1526 216.24915 L 174.79713 216.24915 L 184.06862 240.53235 L 194.4983 240.53235 L 161.44166 155.04798 L 151.89479 155.04798 z M 193.1194 155.04798 L 218.3401 240.53235 L 229.21119 240.53235 L 247.14674 177.45423 C 247.95615 174.69488 248.47092 171.84284 248.69166 168.89954 L 248.91237 168.89954 C 249.05953 171.91643 249.52061 174.80425 250.29323 177.5636 L 268.11744 240.53235 L 279.21119 240.53235 L 303.43776 155.04798 L 293.11744 155.04798 L 275.34791 221.4386 C 274.39134 224.60266 273.83883 227.32356 273.69166 229.60462 L 273.47096 229.60462 C 273.10305 226.36698 272.62603 223.71962 272.03737 221.65931 L 253.60377 155.04798 L 244.71901 155.04798 L 225.62526 221.16126 C 224.5951 224.8036 223.98695 227.65563 223.80299 229.71595 L 223.47291 229.71595 C 223.32575 226.91981 222.84678 224.06777 222.03737 221.16126 L 203.4944 155.04798 L 193.1194 155.04798 z M 156.36549 165.09095 L 156.64088 165.09095 C 157.11917 167.8135 157.5425 169.6897 157.91041 170.71985 L 171.59596 207.64173 L 141.4651 207.64173 L 154.98463 170.71985 C 155.49971 169.46895 155.96079 167.59276 156.36549 165.09095 z "></path><path id="text16-5" style="font-style:normal;font-variant:normal;font-weight:normal;font-stretch:normal;font-size:53.3333px;font-family:'Segoe MDL2 Assets';-inkscape-font-specification:'Segoe MDL2 Assets';text-align:center;text-anchor:middle;fill:#ff9900;fill-rule:evenodd;stroke:#4d4d4d;stroke-width:0" d="M 289.51393 254.41907 L 289.51393 297.04798 L 293.86354 297.04798 L 293.86354 283.2472 L 293.99244 283.2472 L 306.9358 297.04798 L 313.10768 297.04798 L 298.4983 282.17884 L 312.03932 268.2472 L 306.28541 268.2472 L 293.99244 281.45032 L 293.86354 281.45032 L 293.86354 254.41907 L 289.51393 254.41907 z M 135.73854 256.03235 C 131.74549 256.03235 128.43016 257.00588 125.79127 258.95032 C 123.15239 260.89476 121.83229 263.48896 121.83229 266.73548 C 121.83229 268.83617 122.41324 270.72116 123.57643 272.38782 C 124.73962 274.05449 127.51003 276.00762 131.88502 278.2472 C 134.92321 279.80969 136.95447 280.93752 137.97877 281.63196 C 139.02044 282.30904 139.84379 283.11634 140.45143 284.05384 C 141.05907 284.99134 141.36354 286.05905 141.36354 287.25696 C 141.36354 291.52779 138.42885 293.66321 132.5608 293.66321 C 130.75525 293.66321 128.78606 293.32467 126.65065 292.64759 C 124.5326 291.95314 122.90802 291.09377 121.77955 290.06946 L 121.77955 295.40735 C 122.66497 296.04971 124.20143 296.59659 126.38893 297.04798 C 128.59379 297.49937 130.38264 297.72571 131.75416 297.72571 C 136.25068 297.72571 139.74831 296.78821 142.2483 294.91321 C 144.7483 293.03822 145.9983 290.38196 145.9983 286.94446 C 145.9983 284.63544 145.20902 282.5521 143.62916 280.69446 C 142.0493 278.81947 139.28085 276.90041 135.32252 274.9386 C 132.51003 273.53236 130.61701 272.50067 129.64479 271.84095 C 128.67257 271.18123 127.89934 270.408 127.32643 269.52259 C 126.77087 268.61981 126.4944 267.56013 126.4944 266.34485 C 126.4944 264.38305 127.30169 262.8646 128.91627 261.78821 C 130.53085 260.69446 132.61419 260.14759 135.16627 260.14759 C 138.89891 260.14759 141.94579 260.96291 144.3069 262.59485 L 144.3069 257.46595 C 142.62287 256.51109 139.76631 256.03235 135.73854 256.03235 z M 163.13502 256.03235 C 159.62808 256.03235 156.58923 256.80558 154.01979 258.35071 L 154.01979 262.70032 C 156.51978 260.73852 159.19406 259.75696 162.04127 259.75696 C 167.18015 259.75696 169.7483 262.09269 169.7483 266.76282 C 169.7483 271.79754 166.38089 274.3136 159.64479 274.3136 L 156.46705 274.3136 L 156.46705 278.03821 L 159.80104 278.03821 C 167.38783 278.03821 171.1819 280.72854 171.1819 286.11048 C 171.1819 288.57575 170.30451 290.51282 168.55104 291.91907 C 166.81493 293.32532 164.55733 294.02845 161.77955 294.02845 C 158.3247 294.02845 155.2177 292.93469 152.45729 290.7472 L 152.45729 295.5636 C 154.71423 297.00457 157.73507 297.72571 161.51979 297.72571 C 165.63437 297.72571 169.01176 296.63196 171.65065 294.44446 C 174.30689 292.25697 175.63502 289.32228 175.63502 285.64173 C 175.63502 283.00284 174.75763 280.79928 173.00416 279.02845 C 171.26806 277.25762 168.96835 276.25002 166.10377 276.00696 L 166.10377 275.90345 C 171.50307 274.34095 174.20143 270.9195 174.20143 265.64173 C 174.20143 262.74243 173.15173 260.41668 171.05104 258.66321 C 168.96771 256.90974 166.32946 256.03235 163.13502 256.03235 z M 198.39479 256.71009 L 198.39479 297.04798 L 209.87916 297.04798 C 213.62916 297.04798 216.72813 295.98027 219.17604 293.84485 C 221.64131 291.69208 222.8733 288.90561 222.8733 285.48548 C 222.8733 282.69034 222.04995 280.41668 220.40065 278.66321 C 218.76871 276.90974 216.60724 275.90214 213.91627 275.64173 L 213.91627 275.53821 C 216.12113 274.79169 217.82187 273.56772 219.01979 271.86634 C 220.23506 270.16495 220.84205 268.18578 220.84205 265.92884 C 220.84205 263.15106 219.8184 260.9195 217.76979 259.23548 C 215.72118 257.55145 213.02087 256.71009 209.67018 256.71009 L 198.39479 256.71009 z M 352.61354 259.75696 L 348.28932 261.16321 L 348.28932 268.2472 L 343.28932 268.2472 L 343.28932 271.9972 L 348.28932 271.9972 L 348.28932 289.3136 C 348.28932 294.88651 350.76329 297.67298 355.71119 297.67298 C 357.4473 297.67298 358.84553 297.37046 359.90455 296.76282 L 359.90455 293.01282 C 359.10594 293.65518 358.10833 293.97571 356.91041 293.97571 C 355.36528 293.97571 354.26154 293.55904 353.60182 292.72571 C 352.9421 291.89238 352.61354 290.49416 352.61354 288.53235 L 352.61354 271.9972 L 359.90455 271.9972 L 359.90455 268.2472 L 352.61354 268.2472 L 352.61354 259.75696 z M 202.82252 260.82532 L 208.39479 260.82532 C 213.60311 260.82532 216.20729 262.82055 216.20729 266.8136 C 216.20729 269.10527 215.46011 270.89412 213.96705 272.17884 C 212.474 273.4462 210.39066 274.07923 207.71705 274.07923 L 202.82252 274.07923 L 202.82252 260.82532 z M 275.89479 267.56946 C 271.39827 267.56946 267.79648 269.00176 265.08815 271.86634 C 262.37982 274.73092 261.02565 278.55102 261.02565 283.32532 C 261.02565 287.59615 262.27565 291.06773 264.77565 293.74134 C 267.29301 296.39758 270.59032 297.72571 274.67018 297.72571 C 277.63892 297.72571 280.2431 297.04863 282.48268 295.69446 L 282.48268 291.5011 C 280.27782 293.18513 277.89999 294.02845 275.34791 294.02845 C 272.32709 294.02845 269.92321 293.03886 268.13502 291.0597 C 266.34683 289.08053 265.45143 286.37219 265.45143 282.9347 C 265.45143 279.4104 266.40694 276.58791 268.31666 274.46985 C 270.24374 272.33444 272.68169 271.26673 275.63307 271.26673 C 278.08098 271.26673 280.38264 272.02194 282.53541 273.53235 L 282.53541 268.97571 C 280.59097 268.03821 278.37742 267.56946 275.89479 267.56946 z M 327.97682 267.56946 C 324.20946 267.56946 321.0684 269.00176 318.55104 271.86634 C 316.05104 274.73092 314.80104 278.35072 314.80104 282.72571 C 314.80104 287.48265 315.95491 291.17255 318.26393 293.79407 C 320.59031 296.4156 323.75938 297.72571 327.76979 297.72571 C 331.91909 297.72571 335.25243 296.78821 337.76979 294.91321 L 337.76979 290.7472 C 335.02674 292.91733 332.03194 294.0011 328.78541 294.0011 C 325.88611 294.0011 323.60247 293.11568 321.9358 291.34485 C 320.26914 289.57402 319.39175 287.03191 319.30494 283.71595 L 339.72291 283.71595 L 339.72291 281.3722 C 339.72291 277.03193 338.68927 273.6465 336.6233 271.21595 C 334.55734 268.78539 331.67473 267.56946 327.97682 267.56946 z M 229.9319 268.2472 L 229.9319 285.46009 C 229.9319 293.63716 233.36941 297.72571 240.2444 297.72571 C 244.27217 297.72571 247.23095 295.98092 249.1233 292.49134 L 249.22877 292.49134 L 249.22877 297.04798 L 253.57643 297.04798 L 253.57643 268.2472 L 249.22877 268.2472 L 249.22877 284.83509 C 249.22877 287.52606 248.48962 289.73157 247.01393 291.45032 C 245.53824 293.16907 243.63719 294.02845 241.3108 294.02845 C 236.58859 294.02845 234.22877 290.92948 234.22877 284.73157 L 234.22877 268.2472 L 229.9319 268.2472 z M 327.89869 271.31946 C 330.20772 271.31946 332.0046 272.07467 333.28932 273.58509 C 334.57404 275.07814 335.22508 277.17949 335.24244 279.88782 L 319.35768 279.88782 C 319.77435 277.19685 320.77196 275.0955 322.35182 273.58509 C 323.94904 272.07467 325.798 271.31946 327.89869 271.31946 z M 202.82252 278.16907 L 208.29127 278.16907 C 214.92321 278.16907 218.23854 280.59095 218.23854 285.4347 C 218.23854 287.77844 217.44926 289.61742 215.8694 290.95423 C 214.3069 292.27367 212.13545 292.9347 209.35768 292.9347 L 202.82252 292.9347 L 202.82252 278.16907 z "></path></g></g></svg>