<?xml version="1.0" encoding="UTF-8" standalone="no"?>
<!-- Created with Inkscape (http://www.inkscape.org/) -->

<svg
   version="1.1"
   id="svg1"
   width="1000"
   height="500"
   viewBox="0 0 1000 500"
   sodipodi:docname="s4hana-dhl.svg"
   inkscape:version="1.3.2 (091e20e, 2023-11-25, custom)"
   xmlns:inkscape="http://www.inkscape.org/namespaces/inkscape"
   xmlns:sodipodi="http://sodipodi.sourceforge.net/DTD/sodipodi-0.dtd"
   xmlns="http://www.w3.org/2000/svg"
   xmlns:svg="http://www.w3.org/2000/svg">
  <defs
     id="defs1">
    <clipPath
       id="CLIPPATH_56">
      <path
         id="pO20KKJNwU1CrE_FoZeM0"
         d="M -256,-256 H 256 V 256 H -256 Z"
         stroke-linecap="round" />
    </clipPath>
  </defs>
  <sodipodi:namedview
     id="namedview1"
     pagecolor="#ffffff"
     bordercolor="#111111"
     borderopacity="1"
     inkscape:showpageshadow="0"
     inkscape:pageopacity="0"
     inkscape:pagecheckerboard="1"
     inkscape:deskcolor="#d1d1d1"
     showgrid="false"
     inkscape:zoom="1.677"
     inkscape:cx="490.45915"
     inkscape:cy="250.74538"
     inkscape:window-width="2560"
     inkscape:window-height="1369"
     inkscape:window-x="1072"
     inkscape:window-y="210"
     inkscape:window-maximized="1"
     inkscape:current-layer="g17">
    <inkscape:page
       x="0"
       y="0"
       inkscape:label="1"
       id="page1"
       width="1000"
       height="500"
       margin="0"
       bleed="0" />
  </sodipodi:namedview>
  <g
     id="g1"
     inkscape:groupmode="layer"
     inkscape:label="1">
    <path
       id="path3"
       d="m 318.137,130.637 c 77.636,0 36.09,113.726 113.726,113.726"
       style="fill:none;stroke:#00aaff;stroke-width:17.0079;stroke-linecap:butt;stroke-linejoin:miter;stroke-miterlimit:4;stroke-dasharray:none;stroke-opacity:1"
       transform="scale(1.3333333)" />
    <path
       id="path4"
       d="m 318.031,244.469 c 77.637,0 36.09,-113.938 113.938,-113.938"
       style="fill:none;stroke:#696969;stroke-width:17.0079;stroke-linecap:butt;stroke-linejoin:miter;stroke-miterlimit:4;stroke-dasharray:none;stroke-opacity:1"
       transform="scale(1.3333333)" />
    <path
       id="path5"
       d="m 330.848,187.5 c 0,81.004 -65.668,146.668 -146.672,146.668 -81,0 -146.668,-65.664 -146.668,-146.668 0,-81.004 65.668,-146.668 146.668,-146.668 81.004,0 146.672,65.664 146.672,146.668 z"
       style="fill:none;stroke:#4d4d4d;stroke-width:11.3386;stroke-linecap:butt;stroke-linejoin:miter;stroke-miterlimit:4;stroke-dasharray:none;stroke-opacity:1"
       transform="scale(1.3333333)" />
    <path
       id="path6"
       d="m 711.984,187.5 c 0,81.004 -65.664,146.668 -146.668,146.668 -81.004,0 -146.671,-65.664 -146.671,-146.668 0,-81.004 65.667,-146.668 146.671,-146.668 81.004,0 146.668,65.664 146.668,146.668 z"
       style="fill:none;stroke:#4d4d4d;stroke-width:11.3386;stroke-linecap:butt;stroke-linejoin:miter;stroke-miterlimit:4;stroke-dasharray:none;stroke-opacity:1"
       transform="scale(1.3333333)" />
    <path
       id="path15"
       d="m 457.152,243.441 -36.043,21.977 -1.007,-42.199 z"
       style="fill:#00aaff;fill-opacity:1;fill-rule:evenodd;stroke:none"
       transform="scale(1.3333333)" />
    <path
       id="path16"
       d="m 292.48,130.711 36.04,-21.977 1.011,42.2 z"
       style="fill:#00aaff;fill-opacity:1;fill-rule:evenodd;stroke:none"
       transform="scale(1.3333333)" />
    <g
       id="g17"
       transform="translate(4.4938833,22.637569)">
      <g
         id="g24"
         transform="translate(-2.6966246,3.0305789)">
        <path
           id="text16"
           style="font-style:normal;font-variant:normal;font-weight:normal;font-stretch:normal;font-size:55.9009px;font-family:'Segoe MDL2 Assets';-inkscape-font-specification:'Segoe MDL2 Assets';text-align:center;text-anchor:middle;fill:#333333;fill-rule:evenodd;stroke:#4d4d4d;stroke-width:0"
           d="M 132.29425 257.17339 C 127.81782 257.17339 124.14202 258.21989 121.26691 260.31254 C 118.3918 262.40518 116.95435 265.27043 116.95435 268.90981 C 116.95435 271.43917 117.71046 273.6415 119.2208 275.51578 C 120.73115 277.39006 123.38764 279.23759 127.19079 281.05728 C 130.28426 282.53123 132.34894 283.60458 133.38617 284.27786 C 134.44159 284.93295 135.27789 285.70713 135.89658 286.59878 C 136.51528 287.49043 136.8252 288.49025 136.8252 289.60026 C 136.8252 293.4398 134.02309 295.35892 128.41845 295.35892 C 124.033 295.35892 120.22094 294.04009 116.98189 291.40154 L 116.98189 298.47092 C 118.16469 299.1988 119.85599 299.78118 122.05781 300.21791 C 124.25964 300.65463 126.26283 300.87327 128.06432 300.87327 C 132.95928 300.87327 136.78807 299.86256 139.554 297.8427 C 142.31993 295.82285 143.70327 292.90391 143.70327 289.08256 C 143.70327 286.5168 142.90239 284.2499 141.30106 282.28463 C 139.69974 280.30117 136.79875 278.32643 132.59527 276.36116 C 128.99228 274.65065 126.62702 273.28708 125.49881 272.26805 C 124.3888 271.24903 123.83242 269.94809 123.83242 268.36496 C 123.83242 266.61806 124.59788 265.2436 126.12642 264.24277 C 127.65496 263.24194 129.66553 262.74203 132.1585 262.74203 C 136.05264 262.74203 139.30093 263.64149 141.90309 265.44298 L 141.90309 258.72842 C 139.73766 257.6912 136.53413 257.17339 132.29425 257.17339 z M 166.2498 257.88304 C 164.48471 261.66799 161.90102 266.03492 158.4982 270.98447 C 155.09539 275.91583 151.48305 280.61966 147.6617 285.0961 L 147.6617 290.77332 L 166.71411 290.77332 L 166.71411 300.16362 L 172.44518 300.16362 L 172.44518 290.77332 L 178.50481 290.77332 L 178.50481 285.77861 L 172.44518 285.77861 L 172.44518 257.88304 L 166.2498 257.88304 z M 198.9226 257.88304 L 178.58744 307.17871 L 184.42869 307.17871 L 204.81894 257.88304 L 198.9226 257.88304 z M 209.59581 257.88304 L 209.59581 300.16362 L 216.14532 300.16362 L 216.14532 281.60212 L 236.48049 281.60212 L 236.48049 300.16362 L 243.03197 300.16362 L 243.03197 257.88304 L 236.48049 257.88304 L 236.48049 275.84346 L 216.14532 275.84346 L 216.14532 257.88304 L 209.59581 257.88304 z M 264.81318 257.88304 L 248.87321 300.16362 L 256.07984 300.16362 L 259.84546 289.164 L 276.76914 289.164 L 280.7256 300.16362 L 287.93223 300.16362 L 272.10047 257.88304 L 264.81318 257.88304 z M 293.82856 257.88304 L 293.82856 300.16362 L 300.18723 300.16362 L 300.18723 272.18662 C 300.18723 269.16594 300.10705 267.10872 299.94327 266.0169 L 300.10657 266.0169 C 300.45231 266.85396 300.99738 267.84678 301.74345 268.99318 L 321.97041 300.16362 L 329.28525 300.16362 L 329.28525 257.88304 L 322.89706 257.88304 L 322.89706 285.42378 C 322.89706 288.15331 322.99791 290.1728 323.19808 291.48297 L 323.06232 291.48297 C 322.75298 290.91887 322.13313 289.9101 321.20509 288.45435 L 301.58016 257.88304 L 293.82856 257.88304 z M 351.03891 257.88304 L 335.09895 300.16362 L 342.30557 300.16362 L 346.0712 289.164 L 362.99487 289.164 L 366.9533 300.16362 L 374.15796 300.16362 L 358.32817 257.88304 L 351.03891 257.88304 z M 268.19712 263.8608 L 268.38993 263.8608 C 268.60829 265.38934 268.82672 266.45374 269.04508 267.05424 L 274.93944 283.73108 L 261.64761 283.73108 L 267.5164 266.99995 C 267.80755 266.16289 268.03335 265.11639 268.19712 263.8608 z M 354.42483 263.8608 L 354.61567 263.8608 C 354.83403 265.38934 355.05245 266.45374 355.27081 267.05424 L 361.16518 283.73108 L 347.87335 283.73108 L 353.74214 266.99995 C 354.03329 266.16289 354.26106 265.11639 354.42483 263.8608 z M 166.71411 265.44298 L 166.71411 285.77861 L 152.35595 285.77861 C 154.9763 282.8671 157.68887 279.41052 160.49119 275.4072 C 163.31171 271.40389 165.38574 268.08153 166.71411 265.44298 z "
           transform="scale(0.99273852,1.0073146)" />
        <path
           id="text16-5"
           style="font-style:normal;font-variant:normal;font-weight:normal;font-stretch:normal;font-size:138.814px;font-family:'Segoe MDL2 Assets';-inkscape-font-specification:'Segoe MDL2 Assets';text-align:center;text-anchor:middle;fill:#30c3ff;fill-opacity:1;fill-rule:evenodd;stroke:#4d4d4d;stroke-width:0"
           d="M 154.6754 139.2381 C 143.55944 139.2381 134.4321 141.83654 127.29259 147.03302 C 120.15307 152.22951 116.5836 159.34723 116.5836 168.38459 C 116.5836 174.66555 118.4581 180.13269 122.2086 184.78693 C 125.95911 189.44117 132.55753 194.02802 142.00157 198.5467 C 149.68333 202.20683 154.81264 204.87283 157.38829 206.54474 C 160.00912 208.17147 162.08631 210.09036 163.62266 212.30451 C 165.15901 214.51866 165.92735 217.00514 165.92735 219.76154 C 165.92735 229.29595 158.96989 234.06232 145.05235 234.06232 C 134.16233 234.06232 124.69521 230.78628 116.65196 224.2342 L 116.65196 241.78888 C 119.5891 243.59636 123.79178 245.04424 129.25938 246.12873 C 134.72698 247.21321 139.69604 247.75373 144.16954 247.75373 C 156.32479 247.75373 165.83825 245.24602 172.70665 240.23029 C 179.57504 235.21455 183.00743 227.96171 183.00743 218.47248 C 183.00743 212.10114 181.02098 206.4757 177.04454 201.59552 C 173.0681 196.67016 165.85964 191.76867 155.42149 186.88849 C 146.4745 182.64093 140.60003 179.25098 137.79844 176.72052 C 135.04205 174.19006 133.66368 170.96037 133.66368 167.02912 C 133.66368 162.69118 135.56135 159.27806 139.35704 156.79279 C 143.15273 154.30752 148.14692 153.06623 154.33751 153.06623 C 164.00748 153.06623 172.07306 155.30172 178.53477 159.77521 L 178.53477 143.10138 C 173.15754 140.52574 165.20392 139.2381 154.6754 139.2381 z M 230.38634 140.99982 L 190.80235 245.99201 L 208.69688 245.99201 L 218.0504 218.67756 L 260.07384 218.67756 L 269.90196 245.99201 L 287.79649 245.99201 L 248.48399 140.99982 L 230.38634 140.99982 z M 302.43712 140.99982 L 302.43712 245.99201 L 318.70469 245.99201 L 318.70469 207.56037 L 331.65001 207.56037 C 342.76596 207.92186 352.09795 204.91803 359.64415 198.5467 C 367.19034 192.13017 370.96251 183.65725 370.96251 173.12873 C 370.96251 162.69058 367.80038 154.73696 361.47423 149.26935 C 355.14807 143.75656 346.04195 140.99982 334.15782 140.99982 L 302.43712 140.99982 z M 318.70469 154.62482 L 331.31212 154.62482 C 346.35932 154.62482 353.88243 161.0186 353.88243 173.80646 C 353.88243 187.27213 346.04272 194.00568 330.3629 194.00568 L 318.70469 194.00568 L 318.70469 154.62482 z M 238.79063 155.84357 L 239.26524 155.84357 C 239.80748 159.63926 240.34995 162.28405 240.89219 163.77521 L 255.53282 205.18927 L 222.52501 205.18927 L 237.09727 163.63849 C 237.82026 161.5599 238.38395 158.96146 238.79063 155.84357 z " />
      </g>
      <path
         id="text16-5-7"
         style="font-style:normal;font-variant:normal;font-weight:normal;font-stretch:normal;font-size:147.887px;font-family:'Segoe MDL2 Assets';-inkscape-font-specification:'Segoe MDL2 Assets';text-align:center;text-anchor:middle;fill:#fc0000;fill-opacity:1;fill-rule:evenodd;stroke:#4d4d4d;stroke-width:0"
         d="M 603.4651 171.4347 L 603.4651 283.29017 L 636.53737 283.29017 C 654.10856 283.29017 668.50428 278.11493 679.72096 267.76477 C 690.98578 257.36648 696.61744 243.42914 696.61744 225.95423 C 696.61744 189.60834 676.87956 171.4347 637.40455 171.4347 L 603.4651 171.4347 z M 717.48659 171.4347 L 717.48659 283.29017 L 734.81666 283.29017 L 734.81666 234.18665 L 788.61354 234.18665 L 788.61354 283.29017 L 805.94362 283.29017 L 805.94362 171.4347 L 788.61354 171.4347 L 788.61354 218.95032 L 734.81666 218.95032 L 734.81666 171.4347 L 717.48659 171.4347 z M 834.03346 171.4347 L 834.03346 283.29017 L 895.05104 283.29017 L 895.05104 268.41321 L 851.36354 268.41321 L 851.36354 171.4347 L 834.03346 171.4347 z M 620.79713 186.31165 L 636.4651 186.31165 C 650.08879 186.31165 660.48752 189.72964 667.66041 196.56556 C 674.83331 203.35333 678.42018 213.26955 678.42018 226.31556 C 678.42018 239.60226 674.64031 249.95274 667.08229 257.36634 C 659.57241 264.7318 649.22389 268.41321 636.03346 268.41321 L 620.79713 268.41321 L 620.79713 186.31165 z " />
    </g>
  </g>
</svg>
