<?xml version="1.0" encoding="UTF-8" standalone="no"?>
<!-- Created with Inkscape (http://www.inkscape.org/) -->

<svg
   version="1.1"
   id="svg1"
   width="1000"
   height="500"
   viewBox="0 0 1000 500"
   sodipodi:docname="s4hana-subscriptionbilling.svg"
   inkscape:version="1.3.2 (091e20e, 2023-11-25, custom)"
   xmlns:inkscape="http://www.inkscape.org/namespaces/inkscape"
   xmlns:sodipodi="http://sodipodi.sourceforge.net/DTD/sodipodi-0.dtd"
   xmlns="http://www.w3.org/2000/svg"
   xmlns:svg="http://www.w3.org/2000/svg">
  <defs
     id="defs1">
    <clipPath
       id="CLIPPATH_56">
      <path
         id="pO20KKJNwU1CrE_FoZeM0"
         d="M -256,-256 H 256 V 256 H -256 Z"
         stroke-linecap="round" />
    </clipPath>
  </defs>
  <sodipodi:namedview
     id="namedview1"
     pagecolor="#ffffff"
     bordercolor="#111111"
     borderopacity="1"
     inkscape:showpageshadow="0"
     inkscape:pageopacity="0"
     inkscape:pagecheckerboard="1"
     inkscape:deskcolor="#d1d1d1"
     showgrid="false"
     inkscape:zoom="1.677"
     inkscape:cx="490.45915"
     inkscape:cy="250.74538"
     inkscape:window-width="2560"
     inkscape:window-height="1369"
     inkscape:window-x="1072"
     inkscape:window-y="210"
     inkscape:window-maximized="1"
     inkscape:current-layer="g17">
    <inkscape:page
       x="0"
       y="0"
       inkscape:label="1"
       id="page1"
       width="1000"
       height="500"
       margin="0"
       bleed="0" />
  </sodipodi:namedview>
  <g
     id="g1"
     inkscape:groupmode="layer"
     inkscape:label="1">
    <path
       id="path3"
       d="m 318.137,130.637 c 77.636,0 36.09,113.726 113.726,113.726"
       style="fill:none;stroke:#00aaff;stroke-width:17.0079;stroke-linecap:butt;stroke-linejoin:miter;stroke-miterlimit:4;stroke-dasharray:none;stroke-opacity:1"
       transform="scale(1.3333333)" />
    <path
       id="path4"
       d="m 318.031,244.469 c 77.637,0 36.09,-113.938 113.938,-113.938"
       style="fill:none;stroke:#696969;stroke-width:17.0079;stroke-linecap:butt;stroke-linejoin:miter;stroke-miterlimit:4;stroke-dasharray:none;stroke-opacity:1"
       transform="scale(1.3333333)" />
    <path
       id="path5"
       d="m 330.848,187.5 c 0,81.004 -65.668,146.668 -146.672,146.668 -81,0 -146.668,-65.664 -146.668,-146.668 0,-81.004 65.668,-146.668 146.668,-146.668 81.004,0 146.672,65.664 146.672,146.668 z"
       style="fill:none;stroke:#4d4d4d;stroke-width:11.3386;stroke-linecap:butt;stroke-linejoin:miter;stroke-miterlimit:4;stroke-dasharray:none;stroke-opacity:1"
       transform="scale(1.3333333)" />
    <path
       id="path6"
       d="m 711.984,187.5 c 0,81.004 -65.664,146.668 -146.668,146.668 -81.004,0 -146.671,-65.664 -146.671,-146.668 0,-81.004 65.667,-146.668 146.671,-146.668 81.004,0 146.668,65.664 146.668,146.668 z"
       style="fill:none;stroke:#4d4d4d;stroke-width:11.3386;stroke-linecap:butt;stroke-linejoin:miter;stroke-miterlimit:4;stroke-dasharray:none;stroke-opacity:1"
       transform="scale(1.3333333)" />
    <path
       id="path15"
       d="m 457.152,243.441 -36.043,21.977 -1.007,-42.199 z"
       style="fill:#00aaff;fill-opacity:1;fill-rule:evenodd;stroke:none"
       transform="scale(1.3333333)" />
    <path
       id="path16"
       d="m 292.48,130.711 36.04,-21.977 1.011,42.2 z"
       style="fill:#00aaff;fill-opacity:1;fill-rule:evenodd;stroke:none"
       transform="scale(1.3333333)" />
    <g
       id="g17"
       transform="translate(4.4938833,22.637569)">
      <g
         id="g24"
         transform="translate(-2.6966246,3.0305789)">
        <path
           id="text16"
           style="font-style:normal;font-variant:normal;font-weight:normal;font-stretch:normal;font-size:55.9009px;font-family:'Segoe MDL2 Assets';-inkscape-font-specification:'Segoe MDL2 Assets';text-align:center;text-anchor:middle;fill:#333333;fill-rule:evenodd;stroke:#4d4d4d;stroke-width:0"
           d="M 132.29425 257.17339 C 127.81782 257.17339 124.14202 258.21989 121.26691 260.31254 C 118.3918 262.40518 116.95435 265.27043 116.95435 268.90981 C 116.95435 271.43917 117.71046 273.6415 119.2208 275.51578 C 120.73115 277.39006 123.38764 279.23759 127.19079 281.05728 C 130.28426 282.53123 132.34894 283.60458 133.38617 284.27786 C 134.44159 284.93295 135.27789 285.70713 135.89658 286.59878 C 136.51528 287.49043 136.8252 288.49025 136.8252 289.60026 C 136.8252 293.4398 134.02309 295.35892 128.41845 295.35892 C 124.033 295.35892 120.22094 294.04009 116.98189 291.40154 L 116.98189 298.47092 C 118.16469 299.1988 119.85599 299.78118 122.05781 300.21791 C 124.25964 300.65463 126.26283 300.87327 128.06432 300.87327 C 132.95928 300.87327 136.78807 299.86256 139.554 297.8427 C 142.31993 295.82285 143.70327 292.90391 143.70327 289.08256 C 143.70327 286.5168 142.90239 284.2499 141.30106 282.28463 C 139.69974 280.30117 136.79875 278.32643 132.59527 276.36116 C 128.99228 274.65065 126.62702 273.28708 125.49881 272.26805 C 124.3888 271.24903 123.83242 269.94809 123.83242 268.36496 C 123.83242 266.61806 124.59788 265.2436 126.12642 264.24277 C 127.65496 263.24194 129.66553 262.74203 132.1585 262.74203 C 136.05264 262.74203 139.30093 263.64149 141.90309 265.44298 L 141.90309 258.72842 C 139.73766 257.6912 136.53413 257.17339 132.29425 257.17339 z M 166.2498 257.88304 C 164.48471 261.66799 161.90102 266.03492 158.4982 270.98447 C 155.09539 275.91583 151.48305 280.61966 147.6617 285.0961 L 147.6617 290.77332 L 166.71411 290.77332 L 166.71411 300.16362 L 172.44518 300.16362 L 172.44518 290.77332 L 178.50481 290.77332 L 178.50481 285.77861 L 172.44518 285.77861 L 172.44518 257.88304 L 166.2498 257.88304 z M 198.9226 257.88304 L 178.58744 307.17871 L 184.42869 307.17871 L 204.81894 257.88304 L 198.9226 257.88304 z M 209.59581 257.88304 L 209.59581 300.16362 L 216.14532 300.16362 L 216.14532 281.60212 L 236.48049 281.60212 L 236.48049 300.16362 L 243.03197 300.16362 L 243.03197 257.88304 L 236.48049 257.88304 L 236.48049 275.84346 L 216.14532 275.84346 L 216.14532 257.88304 L 209.59581 257.88304 z M 264.81318 257.88304 L 248.87321 300.16362 L 256.07984 300.16362 L 259.84546 289.164 L 276.76914 289.164 L 280.7256 300.16362 L 287.93223 300.16362 L 272.10047 257.88304 L 264.81318 257.88304 z M 293.82856 257.88304 L 293.82856 300.16362 L 300.18723 300.16362 L 300.18723 272.18662 C 300.18723 269.16594 300.10705 267.10872 299.94327 266.0169 L 300.10657 266.0169 C 300.45231 266.85396 300.99738 267.84678 301.74345 268.99318 L 321.97041 300.16362 L 329.28525 300.16362 L 329.28525 257.88304 L 322.89706 257.88304 L 322.89706 285.42378 C 322.89706 288.15331 322.99791 290.1728 323.19808 291.48297 L 323.06232 291.48297 C 322.75298 290.91887 322.13313 289.9101 321.20509 288.45435 L 301.58016 257.88304 L 293.82856 257.88304 z M 351.03891 257.88304 L 335.09895 300.16362 L 342.30557 300.16362 L 346.0712 289.164 L 362.99487 289.164 L 366.9533 300.16362 L 374.15796 300.16362 L 358.32817 257.88304 L 351.03891 257.88304 z M 268.19712 263.8608 L 268.38993 263.8608 C 268.60829 265.38934 268.82672 266.45374 269.04508 267.05424 L 274.93944 283.73108 L 261.64761 283.73108 L 267.5164 266.99995 C 267.80755 266.16289 268.03335 265.11639 268.19712 263.8608 z M 354.42483 263.8608 L 354.61567 263.8608 C 354.83403 265.38934 355.05245 266.45374 355.27081 267.05424 L 361.16518 283.73108 L 347.87335 283.73108 L 353.74214 266.99995 C 354.03329 266.16289 354.26106 265.11639 354.42483 263.8608 z M 166.71411 265.44298 L 166.71411 285.77861 L 152.35595 285.77861 C 154.9763 282.8671 157.68887 279.41052 160.49119 275.4072 C 163.31171 271.40389 165.38574 268.08153 166.71411 265.44298 z "
           transform="scale(0.99273852,1.0073146)" />
        <path
           id="text16-5"
           style="font-style:normal;font-variant:normal;font-weight:normal;font-stretch:normal;font-size:138.814px;font-family:'Segoe MDL2 Assets';-inkscape-font-specification:'Segoe MDL2 Assets';text-align:center;text-anchor:middle;fill:#30c3ff;fill-opacity:1;fill-rule:evenodd;stroke:#4d4d4d;stroke-width:0"
           d="M 154.6754 139.2381 C 143.55944 139.2381 134.4321 141.83654 127.29259 147.03302 C 120.15307 152.22951 116.5836 159.34723 116.5836 168.38459 C 116.5836 174.66555 118.4581 180.13269 122.2086 184.78693 C 125.95911 189.44117 132.55753 194.02802 142.00157 198.5467 C 149.68333 202.20683 154.81264 204.87283 157.38829 206.54474 C 160.00912 208.17147 162.08631 210.09036 163.62266 212.30451 C 165.15901 214.51866 165.92735 217.00514 165.92735 219.76154 C 165.92735 229.29595 158.96989 234.06232 145.05235 234.06232 C 134.16233 234.06232 124.69521 230.78628 116.65196 224.2342 L 116.65196 241.78888 C 119.5891 243.59636 123.79178 245.04424 129.25938 246.12873 C 134.72698 247.21321 139.69604 247.75373 144.16954 247.75373 C 156.32479 247.75373 165.83825 245.24602 172.70665 240.23029 C 179.57504 235.21455 183.00743 227.96171 183.00743 218.47248 C 183.00743 212.10114 181.02098 206.4757 177.04454 201.59552 C 173.0681 196.67016 165.85964 191.76867 155.42149 186.88849 C 146.4745 182.64093 140.60003 179.25098 137.79844 176.72052 C 135.04205 174.19006 133.66368 170.96037 133.66368 167.02912 C 133.66368 162.69118 135.56135 159.27806 139.35704 156.79279 C 143.15273 154.30752 148.14692 153.06623 154.33751 153.06623 C 164.00748 153.06623 172.07306 155.30172 178.53477 159.77521 L 178.53477 143.10138 C 173.15754 140.52574 165.20392 139.2381 154.6754 139.2381 z M 230.38634 140.99982 L 190.80235 245.99201 L 208.69688 245.99201 L 218.0504 218.67756 L 260.07384 218.67756 L 269.90196 245.99201 L 287.79649 245.99201 L 248.48399 140.99982 L 230.38634 140.99982 z M 302.43712 140.99982 L 302.43712 245.99201 L 318.70469 245.99201 L 318.70469 207.56037 L 331.65001 207.56037 C 342.76596 207.92186 352.09795 204.91803 359.64415 198.5467 C 367.19034 192.13017 370.96251 183.65725 370.96251 173.12873 C 370.96251 162.69058 367.80038 154.73696 361.47423 149.26935 C 355.14807 143.75656 346.04195 140.99982 334.15782 140.99982 L 302.43712 140.99982 z M 318.70469 154.62482 L 331.31212 154.62482 C 346.35932 154.62482 353.88243 161.0186 353.88243 173.80646 C 353.88243 187.27213 346.04272 194.00568 330.3629 194.00568 L 318.70469 194.00568 L 318.70469 154.62482 z M 238.79063 155.84357 L 239.26524 155.84357 C 239.80748 159.63926 240.34995 162.28405 240.89219 163.77521 L 255.53282 205.18927 L 222.52501 205.18927 L 237.09727 163.63849 C 237.82026 161.5599 238.38395 158.96146 238.79063 155.84357 z " />
      </g>
      <g
         id="g23"
         transform="translate(-4.7537593,-17.311666)">
        <path
           id="text16-9"
           style="font-style:normal;font-variant:normal;font-weight:normal;font-stretch:normal;font-size:43.6462px;font-family:'Segoe MDL2 Assets';-inkscape-font-specification:'Segoe MDL2 Assets';text-align:end;text-anchor:end;fill:#333333;fill-rule:evenodd;stroke:#4d4d4d;stroke-width:0"
           d="M 681.50266 247.65542 L 681.50266 282.54236 L 686.51072 282.54236 L 686.51072 279.36605 L 686.61669 279.36605 C 688.16533 281.85241 690.46035 283.09637 693.50081 283.09637 C 696.75438 283.09637 699.34754 281.90981 701.27979 279.53711 C 703.22625 277.15022 704.19985 273.99561 704.19985 270.07427 C 704.19985 266.49392 703.34038 263.66024 701.62125 261.57171 C 699.91632 259.46896 697.57161 258.41678 694.58798 258.41678 C 691.09288 258.41678 688.43528 259.90993 686.61669 262.89355 L 686.51072 262.89355 L 686.51072 247.65542 L 681.50266 247.65542 z M 772.16191 247.97421 C 771.28103 247.97421 770.55046 248.2521 769.96794 248.8062 C 769.39963 249.34609 769.11429 250.03429 769.11429 250.87255 C 769.11429 251.6966 769.40505 252.38675 769.98756 252.94085 C 770.57008 253.49495 771.29524 253.77089 772.16191 253.77089 C 773.02858 253.77089 773.76112 253.50212 774.35784 252.96223 C 774.95457 252.40813 775.2527 251.71081 775.2527 250.87255 C 775.2527 250.03429 774.95457 249.34609 774.35784 248.8062 C 773.76112 248.2521 773.02858 247.97421 772.16191 247.97421 z M 829.23457 247.97421 C 828.3537 247.97421 827.62116 248.2521 827.03864 248.8062 C 826.47033 249.34609 826.18696 250.03429 826.18696 250.87255 C 826.18696 251.6966 826.47771 252.38675 827.06023 252.94085 C 827.64275 253.49495 828.3679 253.77089 829.23457 253.77089 C 830.10125 253.77089 830.83378 253.50212 831.43051 252.96223 C 832.02723 252.40813 832.32536 251.71081 832.32536 250.87255 C 832.32536 250.03429 832.02723 249.34609 831.43051 248.8062 C 830.83378 248.2521 830.10125 247.97421 829.23457 247.97421 z M 639.68966 248.97726 C 636.19456 248.97726 633.32344 249.79267 631.07862 251.42656 C 628.8338 253.06045 627.71113 255.2992 627.71113 258.14075 C 627.71113 260.11562 628.30198 261.83448 629.48122 263.29788 C 630.66047 264.76128 632.7346 266.20226 635.70401 267.62303 C 638.11933 268.77386 639.73151 269.61273 640.54135 270.13842 C 641.36539 270.6499 642.01873 271.25394 642.50179 271.95012 C 642.98485 272.6463 643.22592 273.42778 643.22592 274.29445 C 643.22592 277.29228 641.03961 278.79066 636.66363 278.79066 C 633.23957 278.79066 630.2617 277.76195 627.73272 275.70182 L 627.73272 281.22052 C 628.65622 281.78883 629.97764 282.24414 631.69678 282.58513 C 633.41592 282.92612 634.9784 283.09637 636.38497 283.09637 C 640.20685 283.09637 643.19752 282.30772 645.35709 280.73066 C 647.51667 279.1536 648.59702 276.87375 648.59702 273.89012 C 648.59702 271.88683 647.97321 270.11774 646.72293 268.58331 C 645.47265 267.03467 643.20517 265.49324 639.92319 263.9588 C 637.11006 262.62327 635.26419 261.55674 634.38331 260.76111 C 633.51664 259.96547 633.08224 258.95111 633.08224 257.71503 C 633.08224 256.35109 633.6785 255.27738 634.87195 254.49596 C 636.0654 253.71453 637.63527 253.32379 639.58173 253.32379 C 642.62218 253.32379 645.15827 254.02634 647.18998 255.43291 L 647.18998 250.19025 C 645.49926 249.38041 643.00006 248.97726 639.68966 248.97726 z M 816.29839 251.9378 L 811.31192 253.45209 L 811.31192 258.97079 L 807.32627 258.97079 L 807.32627 262.93632 L 811.31192 262.93632 L 811.31192 275.78541 C 811.31192 280.64446 813.54987 283.07499 818.02531 283.07499 C 819.75865 283.07499 821.08745 282.81146 822.01096 282.28577 L 822.01096 278.3008 C 821.28636 278.81228 820.47658 279.06864 819.5815 279.06864 C 818.43067 279.06864 817.59138 278.74247 817.06569 278.08892 C 816.55421 277.43536 816.29839 276.376 816.29839 274.91261 L 816.29839 262.93632 L 822.01096 262.93632 L 822.01096 258.97079 L 816.29839 258.97079 L 816.29839 251.9378 z M 718.15845 258.41678 C 715.47318 258.41678 713.22047 259.04952 711.40188 260.31401 C 709.58329 261.5785 708.67414 263.29736 708.67414 265.47115 C 708.67414 267.0482 709.09378 268.36198 709.93204 269.41335 C 710.77029 270.45051 712.38985 271.43095 714.79096 272.35445 C 717.0784 273.20691 718.54889 273.89706 719.20245 274.42275 C 719.856 274.93423 720.18365 275.59373 720.18365 276.40357 C 720.18365 278.33582 718.62116 279.3019 715.49546 279.3019 C 713.12277 279.3019 710.83512 278.5563 708.63292 277.06449 L 708.63292 281.77453 C 710.52255 282.65541 712.73099 283.09637 715.25997 283.09637 C 718.21518 283.09637 720.6022 282.45645 722.42079 281.17776 C 724.23938 279.89906 725.14854 278.14432 725.14854 275.91371 C 725.14854 274.33665 724.6792 273.02288 723.74149 271.9715 C 722.81799 270.90593 721.07888 269.90397 718.52149 268.96625 C 716.44716 268.17062 715.11836 267.5307 714.53584 267.04764 C 713.96753 266.56458 713.6822 265.90507 713.6822 265.06682 C 713.6822 264.21435 714.07429 263.52421 714.85572 262.99852 C 715.63714 262.47283 716.66043 262.21125 717.92492 262.21125 C 720.14133 262.21125 722.14363 262.76507 723.93381 263.87327 L 723.93381 259.44121 C 722.14363 258.75924 720.21857 258.41678 718.15845 258.41678 z M 741.40904 258.41678 C 737.60136 258.41678 734.55363 259.58182 732.26619 261.91189 C 729.97874 264.24196 728.8359 267.37504 728.8359 271.31058 C 728.8359 274.81989 729.9015 277.66269 732.03266 279.83647 C 734.16382 282.01026 736.94835 283.09637 740.38662 283.09637 C 743.1003 283.09637 745.3235 282.57843 747.05684 281.54126 L 747.05684 277.1714 C 745.29508 278.4501 743.41971 279.09002 741.43062 279.09002 C 739.14318 279.09002 737.31749 278.37117 735.95355 276.93619 C 734.60381 275.487 733.92834 273.4922 733.92834 270.94902 C 733.92834 268.34901 734.63874 266.28051 736.05952 264.74608 C 737.4945 263.19743 739.36446 262.42313 741.66611 262.42313 C 743.61257 262.42313 745.4235 263.02718 747.10002 264.23483 L 747.10002 259.54618 C 745.65083 258.79317 743.75331 258.41678 741.40904 258.41678 z M 794.70996 258.41678 C 791.24327 258.41678 788.60043 259.90993 786.78184 262.89355 L 786.67587 262.89355 L 786.67587 258.97079 L 781.66781 258.97079 L 781.66781 293.38926 L 786.67587 293.38926 L 786.67587 279.36605 L 786.78184 279.36605 C 788.35889 281.85241 790.63916 283.09637 793.62279 283.09637 C 796.89056 283.09637 799.49848 281.90981 801.44494 279.53711 C 803.3914 277.16442 804.365 274.00981 804.365 270.07427 C 804.365 266.49392 803.50357 263.66024 801.78443 261.57171 C 800.0653 259.46896 797.70779 258.41678 794.70996 258.41678 z M 849.56511 258.41678 C 845.75743 258.41678 842.74659 259.54071 840.53019 261.78553 C 838.32799 264.03036 837.22746 267.09169 837.22746 270.9704 C 837.22746 274.65021 838.29847 277.59151 840.44384 279.79371 C 842.60342 281.99591 845.48929 283.09637 849.09805 283.09637 C 852.77786 283.09637 855.71883 281.96003 857.92103 279.68679 C 860.12323 277.41356 861.22376 274.37898 861.22376 270.58551 C 861.22376 266.82046 860.17834 263.8524 858.0898 261.67862 C 856.00126 259.50484 853.15966 258.41678 849.56511 258.41678 z M 879.57226 258.41678 C 876.20503 258.41678 873.64877 259.8884 871.90122 262.8294 L 871.79328 262.8294 L 871.79328 258.97079 L 866.78522 258.97079 L 866.78522 282.54236 L 871.79328 282.54236 L 871.79328 269.09455 C 871.79328 267.1623 872.33444 265.57064 873.41423 264.32036 C 874.50823 263.05588 875.88672 262.42313 877.54902 262.42313 C 880.84522 262.42313 882.49232 264.69058 882.49232 269.22285 L 882.49232 282.54236 L 887.4788 282.54236 L 887.4788 268.13622 C 887.4788 261.65749 884.84333 258.41678 879.57226 258.41678 z M 763.72356 258.56646 C 760.76835 258.56646 758.70701 260.26379 757.54198 263.65944 L 757.43601 263.65944 L 757.43601 258.97079 L 752.42795 258.97079 L 752.42795 282.54236 L 757.43601 282.54236 L 757.43601 270.79934 C 757.43601 268.45506 757.9329 266.57312 758.92744 265.15235 C 759.93619 263.73157 761.25023 263.0199 762.86991 263.0199 C 764.09178 263.0199 765.07276 263.26191 765.81156 263.74497 L 765.81156 258.86582 C 765.30008 258.66691 764.60444 258.56646 763.72356 258.56646 z M 653.75423 258.97079 L 653.75423 273.1009 C 653.75423 279.76433 656.53335 283.09637 662.08857 283.09637 C 665.28531 283.09637 667.69988 281.68215 669.33377 278.85481 L 669.43974 278.85481 L 669.43974 282.54236 L 674.42622 282.54236 L 674.42622 258.97079 L 669.43974 258.97079 L 669.43974 272.52551 C 669.43974 274.48618 668.9153 276.07066 667.86393 277.27832 C 666.81256 278.48597 665.46162 279.09002 663.81352 279.09002 C 660.43208 279.09002 658.74267 276.88714 658.74267 272.48275 L 658.74267 258.97079 L 653.75423 258.97079 z M 769.60489 258.97079 L 769.60489 282.54236 L 774.61295 282.54236 L 774.61295 258.97079 L 769.60489 258.97079 z M 826.67756 258.97079 L 826.67756 282.54236 L 831.68562 282.54236 L 831.68562 258.97079 L 826.67756 258.97079 z M 692.98862 262.42313 C 694.86404 262.42313 696.34191 263.1061 697.4217 264.47004 C 698.51569 265.81978 699.06423 267.6802 699.06423 270.05289 C 699.06423 272.88023 698.48814 275.09745 697.33731 276.70293 C 696.18649 278.29419 694.56693 279.09002 692.4784 279.09002 C 690.75926 279.09002 689.3237 278.47162 688.17288 277.23555 C 687.03626 275.99948 686.46754 274.48675 686.46754 272.69657 L 686.46754 269.71271 C 686.46754 267.56734 687.08595 265.81978 688.32202 264.47004 C 689.55809 263.1061 691.1132 262.42313 692.98862 262.42313 z M 793.15377 262.42313 C 795.07181 262.42313 796.56444 263.09175 797.63002 264.42728 C 798.6956 265.7486 799.22742 267.62337 799.22742 270.05289 C 799.22742 272.88023 798.65329 275.09745 797.50246 276.70293 C 796.35164 278.29419 794.73208 279.09002 792.64354 279.09002 C 790.9102 279.09002 789.47464 278.47162 788.33802 277.23555 C 787.20141 275.98527 786.63269 274.44384 786.63269 272.61104 L 786.63269 269.79824 C 786.63269 267.66708 787.23634 265.90517 788.44399 264.51281 C 789.66586 263.12045 791.23573 262.42313 793.15377 262.42313 z M 849.33158 262.42313 C 851.53378 262.42313 853.21778 263.1348 854.38281 264.55557 C 855.54785 265.96214 856.12936 268.01434 856.12936 270.71381 C 856.12936 276.29745 853.86385 279.09002 849.33158 279.09002 C 847.172 279.09002 845.46045 278.36594 844.19596 276.91675 C 842.94568 275.46757 842.3199 273.4493 842.3199 270.86349 C 842.3199 268.24927 842.9383 266.18989 844.17438 264.68387 C 845.41045 263.17785 847.12938 262.42313 849.33158 262.42313 z M 802.44576 307.00813 L 802.44576 341.89508 L 807.45383 341.89508 L 807.45383 307.00813 L 802.44576 307.00813 z M 814.4655 307.00813 L 814.4655 341.89508 L 819.47357 341.89508 L 819.47357 307.00813 L 814.4655 307.00813 z M 792.98304 307.32693 C 792.10216 307.32693 791.37159 307.60481 790.78907 308.15891 C 790.22076 308.69881 789.93542 309.38701 789.93542 310.22527 C 789.93542 311.04931 790.22814 311.73946 790.81066 312.29356 C 791.39317 312.84766 792.11637 313.1236 792.98304 313.1236 C 793.84971 313.1236 794.58225 312.85484 795.17897 312.31495 C 795.7757 311.76084 796.07383 311.06352 796.07383 310.22527 C 796.07383 309.38701 795.7757 308.69881 795.17897 308.15891 C 794.58225 307.60481 793.84971 307.32693 792.98304 307.32693 z M 829.04226 307.32693 C 828.16138 307.32693 827.43081 307.60481 826.84829 308.15891 C 826.27998 308.69881 825.99464 309.38701 825.99464 310.22527 C 825.99464 311.04931 826.28736 311.73946 826.86988 312.29356 C 827.45239 312.84766 828.17559 313.1236 829.04226 313.1236 C 829.90893 313.1236 830.64147 312.85484 831.23819 312.31495 C 831.83492 311.76084 832.13305 311.06352 832.13305 310.22527 C 832.13305 309.38701 831.83492 308.69881 831.23819 308.15891 C 830.64147 307.60481 829.90893 307.32693 829.04226 307.32693 z M 762.93467 308.88398 L 762.93467 341.89508 L 773.61213 341.89508 C 776.97936 341.89508 779.68469 341.01315 781.7306 339.25139 C 783.79072 337.47543 784.82139 335.15252 784.82139 332.28256 C 784.82139 330.08036 784.13313 328.26299 782.75498 326.82801 C 781.39104 325.39303 779.58552 324.54697 777.3407 324.29124 L 777.3407 324.2057 C 779.13087 323.6516 780.57381 322.68552 781.66781 321.30737 C 782.7618 319.92922 783.30838 318.33233 783.30838 316.51374 C 783.30838 314.18367 782.4066 312.32849 780.60222 310.95034 C 778.81204 309.57219 776.36058 308.88398 773.24908 308.88398 L 762.93467 308.88398 z M 768.0487 313.08084 L 771.9068 313.08084 C 775.91338 313.08084 777.91568 314.54529 777.91568 317.47208 C 777.91568 319.10597 777.37649 320.39104 776.2967 321.32875 C 775.21691 322.26646 773.70411 322.73613 771.75765 322.73613 L 768.0487 322.73613 L 768.0487 313.08084 z M 851.3352 317.76949 C 847.96796 317.76949 845.40974 319.24112 843.66219 322.18212 L 843.55622 322.18212 L 843.55622 318.3235 L 838.54816 318.3235 L 838.54816 341.89508 L 843.55622 341.89508 L 843.55622 328.44727 C 843.55622 326.51502 844.09541 324.92336 845.1752 323.67308 C 846.2692 322.40859 847.64769 321.77585 849.30999 321.77585 C 852.60619 321.77585 854.25526 324.0433 854.25526 328.57556 L 854.25526 341.89508 L 859.24173 341.89508 L 859.24173 327.48893 C 859.24173 321.0102 856.60626 317.76949 851.3352 317.76949 z M 875.09798 317.76949 C 871.8444 317.76949 869.23649 318.95606 867.27582 321.32875 C 865.32936 323.68723 864.35576 326.8562 864.35576 330.83436 C 864.35576 334.35788 865.24474 337.17721 867.02071 339.29416 C 868.81089 341.3969 871.18315 342.44909 874.13836 342.44909 C 877.61925 342.44909 880.22717 341.00616 881.96051 338.12199 L 882.04489 338.12199 L 882.04489 340.46632 C 882.04489 346.16362 879.26036 349.0136 873.69093 349.0136 C 871.26141 349.0136 868.75287 348.28758 866.16706 346.83839 L 866.16706 351.44346 C 868.2556 352.46641 870.79907 352.97718 873.7969 352.97718 C 882.63411 352.97718 887.05296 348.55902 887.05296 339.72181 L 887.05296 318.3235 L 882.04489 318.3235 L 882.04489 321.41428 L 881.96051 321.41428 C 880.4687 318.98476 878.18105 317.76949 875.09798 317.76949 z M 790.42603 318.3235 L 790.42603 341.89508 L 795.43409 341.89508 L 795.43409 318.3235 L 790.42603 318.3235 z M 826.48524 318.3235 L 826.48524 341.89508 L 831.4933 341.89508 L 831.4933 318.3235 L 826.48524 318.3235 z M 876.0988 321.77585 C 877.78952 321.77585 879.21032 322.39424 880.36115 323.63031 C 881.51198 324.85218 882.08807 326.33815 882.08807 328.0857 L 882.08807 331.00542 C 882.08807 333.15079 881.48442 334.92511 880.27677 336.33167 C 879.08332 337.73824 877.541 338.44274 875.65137 338.44274 C 873.79016 338.44274 872.29212 337.73301 871.1555 336.31224 C 870.01888 334.87725 869.45017 332.96467 869.45017 330.57777 C 869.45017 327.82147 870.03906 325.66882 871.2183 324.12017 C 872.41175 322.55732 874.03868 321.77585 876.0988 321.77585 z M 768.0487 326.95631 L 772.35422 326.95631 C 777.0854 326.95631 779.45029 328.71104 779.45029 332.22035 C 779.45029 333.93949 778.87616 335.28196 777.72533 336.24809 C 776.5745 337.21421 774.95495 337.69628 772.86641 337.69628 L 768.0487 337.69628 L 768.0487 326.95631 z "
           transform="scale(0.99527038,1.0047521)" />
        <path
           id="text16-5-7"
           style="font-style:normal;font-variant:normal;font-weight:normal;font-stretch:normal;font-size:138.814px;font-family:'Segoe MDL2 Assets';-inkscape-font-specification:'Segoe MDL2 Assets';text-align:center;text-anchor:middle;fill:#30c3ff;fill-opacity:1;fill-rule:evenodd;stroke:#4d4d4d;stroke-width:0"
           d="M 666.99425 134.69363 C 655.8783 134.69363 646.75095 137.29207 639.61144 142.48855 C 632.47192 147.68503 628.90245 154.80275 628.90245 163.84011 C 628.90245 170.12108 630.77695 175.58822 634.52745 180.24246 C 638.27796 184.8967 644.87638 189.48354 654.32042 194.00222 C 662.00218 197.66235 667.13149 200.32836 669.70714 202.00027 C 672.32798 203.62699 674.40517 205.54588 675.94152 207.76003 C 677.47787 209.97419 678.2462 212.46067 678.2462 215.21707 C 678.2462 224.75148 671.28874 229.51785 657.3712 229.51785 C 646.48118 229.51785 637.01406 226.24181 628.97081 219.68972 L 628.97081 237.24441 C 631.90796 239.05188 636.11063 240.49782 641.57824 241.5823 C 647.04584 242.66678 652.0149 243.20925 656.48839 243.20925 C 668.64364 243.20925 678.15711 240.70155 685.0255 235.68582 C 691.89389 230.67008 695.32628 223.41723 695.32628 213.928 C 695.32628 207.55666 693.33983 201.93122 689.36339 197.05105 C 685.38695 192.12569 678.1785 187.22419 667.74034 182.34402 C 658.79336 178.09646 652.91888 174.70651 650.1173 172.17605 C 647.3609 169.64559 645.98253 166.4159 645.98253 162.48464 C 645.98253 158.14671 647.8802 154.73359 651.67589 152.24832 C 655.47158 149.76304 660.46577 148.52175 666.65636 148.52175 C 676.32634 148.52175 684.39191 150.75724 690.85363 155.23074 L 690.85363 138.55691 C 685.4764 135.98126 677.52278 134.69363 666.99425 134.69363 z M 742.70519 136.45535 L 703.1212 241.44753 L 721.01574 241.44753 L 730.36925 214.13308 L 772.39269 214.13308 L 782.22081 241.44753 L 800.11534 241.44753 L 760.80284 136.45535 L 742.70519 136.45535 z M 814.75597 136.45535 L 814.75597 241.44753 L 831.02355 241.44753 L 831.02355 203.01589 L 843.96886 203.01589 C 855.08481 203.37739 864.41681 200.37356 871.963 194.00222 C 879.5092 187.5857 883.28136 179.11278 883.28136 168.58425 C 883.28136 158.1461 880.11923 150.19248 873.79308 144.72488 C 867.46693 139.21209 858.3608 136.45535 846.47667 136.45535 L 814.75597 136.45535 z M 831.02355 150.08035 L 843.63097 150.08035 C 858.67817 150.08035 866.20128 156.47412 866.20128 169.26199 C 866.20128 182.72765 858.36157 189.46121 842.68175 189.46121 L 831.02355 189.46121 L 831.02355 150.08035 z M 751.10949 151.2991 L 751.58409 151.2991 C 752.12634 155.09479 752.66881 157.73957 753.21105 159.23074 L 767.85167 200.6448 L 734.84386 200.6448 L 749.41613 159.09402 C 750.13911 157.01543 750.7028 154.41699 751.10949 151.2991 z " />
      </g>
    </g>
  </g>
</svg>
