<?xml version="1.0" encoding="UTF-8" standalone="no"?>
<!-- Created with Inkscape (http://www.inkscape.org/) -->

<svg
   version="1.1"
   id="svg1"
   width="1000"
   height="500"
   viewBox="0 0 1000 500"
   sodipodi:docname="sap-idm-sap-hr.svg"
   inkscape:version="1.3.2 (091e20e, 2023-11-25, custom)"
   xmlns:inkscape="http://www.inkscape.org/namespaces/inkscape"
   xmlns:sodipodi="http://sodipodi.sourceforge.net/DTD/sodipodi-0.dtd"
   xmlns="http://www.w3.org/2000/svg"
   xmlns:svg="http://www.w3.org/2000/svg">
  <defs
     id="defs1">
    <clipPath
       id="CLIPPATH_56">
      <path
         id="pO20KKJNwU1CrE_FoZeM0"
         d="M -256,-256 H 256 V 256 H -256 Z"
         stroke-linecap="round" />
    </clipPath>
  </defs>
  <sodipodi:namedview
     id="namedview1"
     pagecolor="#ffffff"
     bordercolor="#111111"
     borderopacity="1"
     inkscape:showpageshadow="0"
     inkscape:pageopacity="0"
     inkscape:pagecheckerboard="1"
     inkscape:deskcolor="#d1d1d1"
     showgrid="false"
     inkscape:zoom="1.677"
     inkscape:cx="492.84436"
     inkscape:cy="250.74538"
     inkscape:window-width="2560"
     inkscape:window-height="1369"
     inkscape:window-x="1072"
     inkscape:window-y="210"
     inkscape:window-maximized="1"
     inkscape:current-layer="g17">
    <inkscape:page
       x="0"
       y="0"
       inkscape:label="1"
       id="page1"
       width="1000"
       height="500"
       margin="0"
       bleed="0" />
  </sodipodi:namedview>
  <g
     id="g1"
     inkscape:groupmode="layer"
     inkscape:label="1">
    <path
       id="path3"
       d="m 318.137,130.637 c 77.636,0 36.09,113.726 113.726,113.726"
       style="fill:none;stroke:#00aaff;stroke-width:17.0079;stroke-linecap:butt;stroke-linejoin:miter;stroke-miterlimit:4;stroke-dasharray:none;stroke-opacity:1"
       transform="scale(1.3333333)" />
    <path
       id="path4"
       d="m 318.031,244.469 c 77.637,0 36.09,-113.938 113.938,-113.938"
       style="fill:none;stroke:#696969;stroke-width:17.0079;stroke-linecap:butt;stroke-linejoin:miter;stroke-miterlimit:4;stroke-dasharray:none;stroke-opacity:1"
       transform="scale(1.3333333)" />
    <path
       id="path5"
       d="m 330.848,187.5 c 0,81.004 -65.668,146.668 -146.672,146.668 -81,0 -146.668,-65.664 -146.668,-146.668 0,-81.004 65.668,-146.668 146.668,-146.668 81.004,0 146.672,65.664 146.672,146.668 z"
       style="fill:none;stroke:#4d4d4d;stroke-width:11.3386;stroke-linecap:butt;stroke-linejoin:miter;stroke-miterlimit:4;stroke-dasharray:none;stroke-opacity:1"
       transform="scale(1.3333333)" />
    <path
       id="path6"
       d="m 711.984,187.5 c 0,81.004 -65.664,146.668 -146.668,146.668 -81.004,0 -146.671,-65.664 -146.671,-146.668 0,-81.004 65.667,-146.668 146.671,-146.668 81.004,0 146.668,65.664 146.668,146.668 z"
       style="fill:none;stroke:#4d4d4d;stroke-width:11.3386;stroke-linecap:butt;stroke-linejoin:miter;stroke-miterlimit:4;stroke-dasharray:none;stroke-opacity:1"
       transform="scale(1.3333333)" />
    <path
       id="path15"
       d="m 457.152,243.441 -36.043,21.977 -1.007,-42.199 z"
       style="fill:#00aaff;fill-opacity:1;fill-rule:evenodd;stroke:none"
       transform="scale(1.3333333)" />
    <path
       id="path16"
       d="m 292.48,130.711 36.04,-21.977 1.011,42.2 z"
       style="fill:#00aaff;fill-opacity:1;fill-rule:evenodd;stroke:none"
       transform="scale(1.3333333)" />
    <g
       id="g17"
       transform="translate(4.4938833,22.637569)">
      <g
         id="g22"
         transform="translate(9.7689399,-7.681884)">
        <path
           id="text16"
           style="font-style:normal;font-variant:normal;font-weight:normal;font-stretch:normal;font-size:89.0752px;font-family:'Segoe MDL2 Assets';-inkscape-font-specification:'Segoe MDL2 Assets';text-align:center;text-anchor:middle;fill:#333333;fill-rule:evenodd;stroke:#4d4d4d;stroke-width:0"
           d="M 190.95983 260.34119 L 190.95983 268.86658 L 190.95983 268.90955 L 190.95983 319.14392 L 190.95983 319.18885 L 190.95983 327.71228 L 201.39733 327.71228 L 201.39733 319.18885 L 201.39733 319.14392 L 201.39733 268.90955 L 201.39733 268.86658 L 201.39733 260.34119 L 190.95983 260.34119 z M 218.31725 260.34119 L 218.31725 327.71228 L 238.23718 327.71228 C 248.82065 327.71228 257.49092 324.59677 264.24694 318.36267 C 271.03196 312.09958 274.42468 303.70456 274.42468 293.17908 C 274.42468 271.28725 262.53522 260.34119 238.75866 260.34119 L 218.31725 260.34119 z M 286.99304 260.34119 L 286.99304 327.71228 L 296.69225 327.71228 L 296.69225 285.39392 C 296.69225 279.65275 296.54862 274.75217 296.25866 270.69275 L 296.51843 270.69275 C 297.35931 274.60719 298.04142 277.18812 298.56335 278.43494 L 319.13561 327.71228 L 325.96374 327.71228 L 346.45007 278.04236 C 346.943 276.88253 347.62316 274.43321 348.49304 270.69275 L 348.75475 270.69275 C 348.34881 275.912 348.14538 280.42165 348.14538 284.2201 L 348.14538 327.71228 L 358.49694 327.71228 L 358.49694 260.34119 L 344.49304 260.34119 L 325.96374 304.70447 C 324.48495 308.73489 323.46974 311.66289 322.91882 313.48963 L 322.61608 313.48963 C 322.15215 311.19896 321.20875 308.31483 319.78796 304.83533 L 301.56335 260.34119 L 286.99304 260.34119 z M 228.75475 269.30017 L 238.19421 269.30017 C 246.40002 269.30017 252.6629 271.3605 256.98327 275.47791 C 261.30365 279.56632 263.46374 285.53801 263.46374 293.39588 C 263.46374 301.39872 261.18796 307.63365 256.63561 312.099 C 252.11227 316.53536 245.87734 318.7533 237.93249 318.7533 L 228.75475 318.7533 L 228.75475 269.30017 z " />
        <path
           id="text16-5"
           style="font-style:normal;font-variant:normal;font-weight:normal;font-stretch:normal;font-size:138.814px;font-family:'Segoe MDL2 Assets';-inkscape-font-specification:'Segoe MDL2 Assets';text-align:center;text-anchor:middle;fill:#30c3ff;fill-opacity:1;fill-rule:evenodd;stroke:#4d4d4d;stroke-width:0"
           d="M 142.20983 142.37635 C 131.09388 142.37635 121.96654 144.97479 114.82702 150.17127 C 107.68751 155.36775 104.11804 162.48352 104.11804 171.52088 C 104.11804 177.80184 105.99253 183.26898 109.74304 187.92322 C 113.49354 192.57746 120.09196 197.16431 129.536 201.68299 C 137.21776 205.34312 142.34708 208.00912 144.92272 209.68103 C 147.54356 211.30776 149.62075 213.2286 151.1571 215.44275 C 152.69345 217.65691 153.46179 220.14144 153.46179 222.89783 C 153.46179 232.43225 146.50432 237.20057 132.58679 237.20057 C 121.69677 237.20057 112.22965 233.92453 104.1864 227.37244 L 104.1864 244.92713 C 107.12354 246.7346 111.32621 248.18053 116.79382 249.26502 C 122.26142 250.3495 127.23048 250.89197 131.70397 250.89197 C 143.85922 250.89197 153.37269 248.38427 160.24108 243.36853 C 167.10948 238.3528 170.54186 231.09995 170.54186 221.61072 C 170.54186 215.23938 168.55541 209.61394 164.57897 204.73377 C 160.60254 199.80841 153.39408 194.90496 142.95593 190.02478 C 134.00894 185.77722 128.13446 182.38923 125.33288 179.85877 C 122.57648 177.32831 121.19811 174.09666 121.19811 170.16541 C 121.19811 165.82748 123.09578 162.41631 126.89147 159.93103 C 130.68717 157.44576 135.68135 156.20252 141.87194 156.20252 C 151.54192 156.20252 159.6075 158.43996 166.06921 162.91346 L 166.06921 146.23963 C 160.69198 143.66398 152.73836 142.37635 142.20983 142.37635 z M 217.92077 144.13807 L 178.33679 249.13025 L 196.23132 249.13025 L 205.58483 221.81385 L 247.60827 221.81385 L 257.4364 249.13025 L 275.33093 249.13025 L 236.01843 144.13807 L 217.92077 144.13807 z M 289.97155 144.13807 L 289.97155 249.13025 L 306.23913 249.13025 L 306.23913 210.69861 L 319.18444 210.69861 C 330.3004 211.06011 339.63239 208.05433 347.17858 201.68299 C 354.72478 195.26646 358.49694 186.79354 358.49694 176.26502 C 358.49694 165.82687 355.33481 157.8752 349.00866 152.4076 C 342.68251 146.89481 333.57638 144.13807 321.69225 144.13807 L 289.97155 144.13807 z M 306.23913 157.76111 L 318.84655 157.76111 C 333.89376 157.76111 341.41686 164.15489 341.41686 176.94275 C 341.41686 190.40842 333.57715 197.14197 317.89733 197.14197 L 306.23913 197.14197 L 306.23913 157.76111 z M 226.32507 158.98182 L 226.79968 158.98182 C 227.34192 162.77751 227.88439 165.42034 228.42663 166.9115 L 243.06725 208.32557 L 210.05944 208.32557 L 224.63171 166.77674 C 225.3547 164.69814 225.91839 162.0997 226.32507 158.98182 z " />
      </g>
      <g
         id="g23"
         transform="translate(19.44263,13.679597)">
        <path
           id="text16-9"
           style="font-style:normal;font-variant:normal;font-weight:normal;font-stretch:normal;font-size:89.0752px;font-family:'Segoe MDL2 Assets';-inkscape-font-specification:'Segoe MDL2 Assets';text-align:center;text-anchor:middle;fill:#333333;fill-rule:evenodd;stroke:#4d4d4d;stroke-width:0"
           d="M 735.65919 238.97971 L 735.65919 306.3508 L 746.09669 306.3508 L 746.09669 276.77658 L 778.49903 276.77658 L 778.49903 306.3508 L 788.93849 306.3508 L 788.93849 238.97971 L 778.49903 238.97971 L 778.49903 267.59885 L 746.09669 267.59885 L 746.09669 238.97971 L 735.65919 238.97971 z M 805.85646 238.97971 L 805.85646 306.3508 L 816.29591 306.3508 L 816.29591 278.68869 L 821.95021 278.68869 C 824.21188 278.68869 826.21241 279.34091 827.95216 280.64572 C 829.7209 281.95054 831.67756 284.40181 833.82325 287.99729 L 844.78419 306.3508 L 857.00489 306.3508 L 844.34864 286.21408 C 840.60818 280.18296 837.23139 276.64465 834.21583 275.6008 L 834.21583 275.42697 C 838.94215 274.15116 842.62409 271.90527 845.26271 268.68674 C 847.90132 265.46821 849.21974 261.5968 849.21974 257.07346 C 849.21974 251.30329 847.30695 246.85149 843.4795 243.71994 C 839.68105 240.5594 834.2878 238.97971 827.29981 238.97971 L 805.85646 238.97971 z M 816.29591 247.59104 L 825.73341 247.59104 C 834.0842 247.59104 838.26075 251.11537 838.26075 258.16135 C 838.26075 261.61185 837.09995 264.45211 834.78028 266.68479 C 832.48961 268.91746 829.41602 270.0344 825.55958 270.0344 L 816.29591 270.0344 L 816.29591 247.59104 z " />
        <path
           id="text16-5-7"
           style="font-style:normal;font-variant:normal;font-weight:normal;font-stretch:normal;font-size:138.814px;font-family:'Segoe MDL2 Assets';-inkscape-font-specification:'Segoe MDL2 Assets';text-align:center;text-anchor:middle;fill:#30c3ff;fill-opacity:1;fill-rule:evenodd;stroke:#4d4d4d;stroke-width:0"
           d="M 640.71974 121.01487 C 629.60378 121.01487 620.47449 123.6133 613.33497 128.80979 C 606.19546 134.00627 602.62599 141.12204 602.62599 150.1594 C 602.62599 156.44036 604.50244 161.9075 608.25294 166.56174 C 612.00344 171.21598 618.59991 175.80283 628.04396 180.32151 C 635.72571 183.98164 640.85503 186.64764 643.43067 188.31955 C 646.05151 189.94628 648.1287 191.86712 649.66505 194.08127 C 651.2014 196.29542 651.96974 198.77995 651.96974 201.53635 C 651.96974 211.07076 645.01227 215.83908 631.09474 215.83908 C 620.20472 215.83908 610.7376 212.56305 602.69435 206.01096 L 602.69435 223.56565 C 605.63149 225.37312 609.83416 226.81905 615.30177 227.90354 C 620.76937 228.98802 625.74038 229.53049 630.21388 229.53049 C 642.36913 229.53049 651.88064 227.02279 658.74903 222.00705 C 665.61743 216.99132 669.05177 209.73847 669.05177 200.24924 C 669.05177 193.8779 667.06336 188.25246 663.08692 183.37229 C 659.11049 178.44693 651.90203 173.54348 641.46388 168.6633 C 632.51689 164.41574 626.64241 161.02775 623.84083 158.49729 C 621.08444 155.96683 619.70802 152.73518 619.70802 148.80393 C 619.70802 144.46599 621.60569 141.05483 625.40138 138.56955 C 629.19707 136.08428 634.1893 134.84104 640.37989 134.84104 C 650.04987 134.84104 658.11545 137.07848 664.57716 141.55197 L 664.57716 124.87815 C 659.19993 122.3025 651.24826 121.01487 640.71974 121.01487 z M 716.42872 122.77658 L 676.84669 227.76877 L 694.73927 227.76877 L 704.09278 200.45237 L 746.11817 200.45237 L 755.9463 227.76877 L 773.83888 227.76877 L 734.52638 122.77658 L 716.42872 122.77658 z M 788.4795 122.77658 L 788.4795 227.76877 L 804.74708 227.76877 L 804.74708 189.33713 L 817.69239 189.33713 C 828.80835 189.69863 838.14034 186.69284 845.68653 180.32151 C 853.23273 173.90498 857.00489 165.43206 857.00489 154.90354 C 857.00489 144.46539 853.84276 136.51372 847.51661 131.04612 C 841.19046 125.53333 832.08433 122.77658 820.20021 122.77658 L 788.4795 122.77658 z M 804.74708 136.39963 L 817.3545 136.39963 C 832.40171 136.39963 839.92481 142.79341 839.92481 155.58127 C 839.92481 169.04694 832.0851 175.78049 816.40528 175.78049 L 804.74708 175.78049 L 804.74708 136.39963 z M 724.83497 137.62033 L 725.30958 137.62033 C 725.85182 141.41603 726.39234 144.05886 726.93458 145.55002 L 741.57521 186.96408 L 708.56739 186.96408 L 723.13966 145.41526 C 723.86265 143.33666 724.42829 140.73822 724.83497 137.62033 z " />
      </g>
    </g>
  </g>
</svg>
