<svg xmlns:inkscape="http://www.inkscape.org/namespaces/inkscape" xmlns:sodipodi="http://sodipodi.sourceforge.net/DTD/sodipodi-0.dtd" xmlns="http://www.w3.org/2000/svg" xmlns:svg="http://www.w3.org/2000/svg" id="svg1" width="1000" height="500" viewBox="0 0 1000 500" sodipodi:docname="SAPDHL.svg" inkscape:version="1.3.2 (091e20e, 2023-11-25, custom)"><defs id="defs1"><clipPath id="CLIPPATH_56"><path id="pO20KKJNwU1CrE_FoZeM0" d="M -256,-256 H 256 V 256 H -256 Z" stroke-linecap="round"></path></clipPath></defs><g id="g1" inkscape:groupmode="layer" inkscape:label="1"><path id="path3" d="m 318.137,130.637 c 77.636,0 36.09,113.726 113.726,113.726" style="fill:none;stroke:#00aaff;stroke-width:17.0079;stroke-linecap:butt;stroke-linejoin:miter;stroke-miterlimit:4;stroke-dasharray:none;stroke-opacity:1" transform="scale(1.3333333)"></path><path id="path4" d="m 318.031,244.469 c 77.637,0 36.09,-113.938 113.938,-113.938" style="fill:none;stroke:#696969;stroke-width:17.0079;stroke-linecap:butt;stroke-linejoin:miter;stroke-miterlimit:4;stroke-dasharray:none;stroke-opacity:1" transform="scale(1.3333333)"></path><path id="path5" d="m 330.848,187.5 c 0,81.004 -65.668,146.668 -146.672,146.668 -81,0 -146.668,-65.664 -146.668,-146.668 0,-81.004 65.668,-146.668 146.668,-146.668 81.004,0 146.672,65.664 146.672,146.668 z" style="fill:none;stroke:#4d4d4d;stroke-width:11.3386;stroke-linecap:butt;stroke-linejoin:miter;stroke-miterlimit:4;stroke-dasharray:none;stroke-opacity:1" transform="scale(1.3333333)"></path><path id="path6" d="m 711.984,187.5 c 0,81.004 -65.664,146.668 -146.668,146.668 -81.004,0 -146.671,-65.664 -146.671,-146.668 0,-81.004 65.667,-146.668 146.671,-146.668 81.004,0 146.668,65.664 146.668,146.668 z" style="fill:none;stroke:#4d4d4d;stroke-width:11.3386;stroke-linecap:butt;stroke-linejoin:miter;stroke-miterlimit:4;stroke-dasharray:none;stroke-opacity:1" transform="scale(1.3333333)"></path><path id="path15" d="m 457.152,243.441 -36.043,21.977 -1.007,-42.199 z" style="fill:#00aaff;fill-opacity:1;fill-rule:evenodd;stroke:none" transform="scale(1.3333333)"></path><path id="path16" d="m 292.48,130.711 36.04,-21.977 1.011,42.2 z" style="fill:#00aaff;fill-opacity:1;fill-rule:evenodd;stroke:none" transform="scale(1.3333333)"></path><g id="g17" transform="translate(4.4938833,22.637569)"><path id="text16-5-7" style="font-style:normal;font-variant:normal;font-weight:normal;font-stretch:normal;font-size:147.887px;font-family:'Segoe MDL2 Assets';-inkscape-font-specification:'Segoe MDL2 Assets';text-align:center;text-anchor:middle;fill:#fc0000;fill-opacity:1;fill-rule:evenodd;stroke:#4d4d4d;stroke-width:0" d="M 603.4651 171.4347 L 603.4651 283.29017 L 636.53737 283.29017 C 654.10856 283.29017 668.50428 278.11493 679.72096 267.76477 C 690.98578 257.36648 696.61744 243.42914 696.61744 225.95423 C 696.61744 189.60834 676.87956 171.4347 637.40455 171.4347 L 603.4651 171.4347 z M 717.48659 171.4347 L 717.48659 283.29017 L 734.81666 283.29017 L 734.81666 234.18665 L 788.61354 234.18665 L 788.61354 283.29017 L 805.94362 283.29017 L 805.94362 171.4347 L 788.61354 171.4347 L 788.61354 218.95032 L 734.81666 218.95032 L 734.81666 171.4347 L 717.48659 171.4347 z M 834.03346 171.4347 L 834.03346 283.29017 L 895.05104 283.29017 L 895.05104 268.41321 L 851.36354 268.41321 L 851.36354 171.4347 L 834.03346 171.4347 z M 620.79713 186.31165 L 636.4651 186.31165 C 650.08879 186.31165 660.48752 189.72964 667.66041 196.56556 C 674.83331 203.35333 678.42018 213.26955 678.42018 226.31556 C 678.42018 239.60226 674.64031 249.95274 667.08229 257.36634 C 659.57241 264.7318 649.22389 268.41321 636.03346 268.41321 L 620.79713 268.41321 L 620.79713 186.31165 z "></path><g id="g17-9-3" transform="translate(-8.118491,-691.21362)"><text xml:space="preserve" style="font-size:66.6667px;text-align:center;text-anchor:middle;fill:#000000;fill-opacity:1" x="247.3278" y="885.01404" id="text2-4"><tspan x="247.3278" y="885.01404" sodipodi:role="line" style="font-style:normal;font-variant:normal;font-weight:bold;font-stretch:normal;font-family:Arial;-inkscape-font-specification:'Arial Bold';text-align:center;text-anchor:middle" id="tspan6-5">SAP</tspan><tspan x="247.3278" y="969.11914" sodipodi:role="line" style="font-style:normal;font-variant:normal;font-weight:bold;font-stretch:normal;font-family:Arial;-inkscape-font-specification:'Arial Bold';text-align:center;text-anchor:middle" id="tspan7-1">Software</tspan></text></g></g></g></svg>