<svg xmlns="http://www.w3.org/2000/svg" xmlns:xlink="http://www.w3.org/1999/xlink" width="800" height="400" viewBox="0 0 800 400" xml:space="preserve"><desc>Created with Fabric.js 5.3.0</desc><defs></defs><g transform="matrix(1 0 0 1 399.5240985442 200)" id="ih3Kuf8m1kcVNVv1LVyXA"><g style="">		<g transform="matrix(1.560844536 0 0 0.5853066529 0 17.2017264753)" id="pO_6K9RkmLS60X-A1vSjQ"><path style="stroke: none; stroke-width: 1; stroke-dasharray: none; stroke-linecap: butt; stroke-dashoffset: 0; stroke-linejoin: miter; stroke-miterlimit: 4; fill: rgb(47,193,255); fill-rule: nonzero; opacity: 1;" transform=" translate(0, 0.000005)" d="M 13.67793 28.88925 L 40 -0.3510099999999987 L 13.67793 -28.88926 L 13.67793 -12.246010000000002 L -40 -12.246010000000002 L -40 11.60099 L 13.677930000000003 11.60099 z" stroke-linecap="round"></path></g>		<g transform="matrix(-1.560844536 0 0 -0.5853066529 -1.9e-9 -17.2017256923)" id="7Us8dCiZWPrP5ER07V9de"><path style="stroke: none; stroke-width: 1; stroke-dasharray: none; stroke-linecap: butt; stroke-dashoffset: 0; stroke-linejoin: miter; stroke-miterlimit: 4; fill: rgb(103,103,103); fill-rule: nonzero; opacity: 1;" transform=" translate(0, 0.000005)" d="M 13.67793 28.88925 L 40 -0.3510099999999987 L 13.67793 -28.88926 L 13.67793 -12.246010000000002 L -40 -12.246010000000002 L -40 11.60099 L 13.677930000000003 11.60099 z" stroke-linecap="round"></path></g></g></g><g transform="matrix(1.6454969519 0 0 1.6454969519 189.8121862433 200)" id="kCwyi93kJLjduS7hnkj5g"><g style="">		<g transform="matrix(1 0 0 1 0 0)" id="uWfm3KK85bjUsXpegbUI7"><path style="stroke: none; stroke-width: 1; stroke-dasharray: none; stroke-linecap: butt; stroke-dashoffset: 0; stroke-linejoin: miter; stroke-miterlimit: 4; fill: none; fill-rule: nonzero; opacity: 1;" transform=" translate(-64, -64)" d="M 0 128 L 0 0 L 128 0 L 128 128 z" stroke-linecap="round"></path></g>		<g transform="matrix(1 0 0 1 0 0)" id="iMh-ZqY5_DaALkgA4084q"><path style="stroke: none; stroke-width: 1; stroke-dasharray: none; stroke-linecap: butt; stroke-dashoffset: 0; stroke-linejoin: miter; stroke-miterlimit: 4; fill: rgb(129,191,55); fill-rule: evenodd; opacity: 1;" transform=" translate(-64, -64)" d="M 70.45 19.568 C 70.45 19.132 70.45400000000001 18.704 70.45400000000001 18.236 C 70.45400000000001 14.156 69.88900000000001 10.868 68.98500000000001 8.264000000000001 C 72.61900000000001 8.72 75.03900000000002 12.876000000000001 76.59500000000001 17.656 C 74.773 18.224 72.699 18.868 70.45 19.568 z M 62.426 60.248 C 62.426 60.248 58.175000000000004 57.967999999999996 52.965 57.967999999999996 C 45.323 57.967999999999996 44.937000000000005 62.788 44.937000000000005 64 C 44.937000000000005 70.628 62.12400000000001 73.168 62.12400000000001 88.688 C 62.12400000000001 100.896 54.418000000000006 108.76 44.02600000000001 108.76 C 31.55600000000001 108.76 25.18000000000001 100.96000000000001 25.18000000000001 100.96000000000001 L 28.51900000000001 89.876 C 28.51900000000001 89.876 35.07400000000001 95.53200000000001 40.607000000000006 95.53200000000001 C 44.217000000000006 95.53200000000001 45.690000000000005 92.67200000000001 45.690000000000005 90.584 C 45.690000000000005 81.94 31.588000000000005 81.552 31.588000000000005 67.348 C 31.588000000000005 55.396 40.126000000000005 43.828 57.36 43.828 C 63.999 43.828 67.283 45.74 67.283 45.74 L 62.426 60.248 z M 59.596 4.428 C 60.308 4.428 61.020999999999994 4.672 61.705999999999996 5.144 C 56.44 7.632 50.8 13.904 48.416 26.424 C 44.933 27.508 41.529999999999994 28.567999999999998 38.382 29.548 C 41.171 19.996 47.798 4.428 59.596 4.428 z M 66.147 20.192 C 66.147 20.444 66.143 20.676000000000002 66.143 20.908 C 62.143 22.152 57.8 23.504 53.446 24.86 C 55.89 15.38 60.472 10.8 64.48 9.072 C 65.487 11.616 66.147 15.268 66.147 20.192 z M 85.058 15.097 C 84.798 15.131 84.57300000000001 15.182 84.41600000000001 15.228 C 84.33200000000001 15.251999999999999 82.93100000000001 15.688 80.611 16.408 C 78.339 9.84 74.331 3.804 67.282 3.804 C 67.087 3.804 66.884 3.812 66.685 3.824 C 64.679 1.16 62.195 0 60.05 0 C 43.623 0 35.774 20.64 33.314 31.124 C 26.93 33.112 22.396 34.524 21.819000000000003 34.708 C 18.253000000000004 35.832 18.141000000000002 35.943999999999996 17.676000000000002 39.315999999999995 C 17.322 41.872 8 114.324 8 114.324 L 80.639 128 L 80.716 127.983 L 85.058 15.097 z M 90.259 18.652 C 92.356 20.745 94.734 23.116 94.734 23.116 C 94.734 23.116 104.521 23.844 104.98299999999999 23.884 C 105.44899999999998 23.924 106.00999999999999 24.28 106.097 24.924 C 106.18499999999999 25.567999999999998 120 119.44399999999999 120 119.44399999999999 L 86.09899999999999 126.81299999999999 L 90.259 18.652 z" stroke-linecap="round"></path></g></g></g><g transform="matrix(1.5984638336 0 0 1.5984638336 619.5516349589 206.3958210178)" id="VzJmAIybzq3jUEtFn6IKZ"><g style="">		<g transform="matrix(1 0 0 1 39.35 -14.9)" id="3v4ZkTKxr57m2cr0Y6ghY"><path style="stroke: none; stroke-width: 1; stroke-dasharray: none; stroke-linecap: butt; stroke-dashoffset: 0; stroke-linejoin: miter; stroke-miterlimit: 4; fill: rgb(33,163,101); fill-rule: nonzero; opacity: 1;" transform=" translate(-24.65, -14.9)" d="M 0 29.8 L 0 0 L 49.3 0 L 49.3 29.8 z" stroke-linecap="round"></path></g>		<g transform="matrix(1 0 0 1 39.35 14.9)" id="t2RhFkBAI2y8MCfgSFVTt"><path style="stroke: none; stroke-width: 1; stroke-dasharray: none; stroke-linecap: butt; stroke-dashoffset: 0; stroke-linejoin: miter; stroke-miterlimit: 4; fill: rgb(16,124,65); fill-rule: nonzero; opacity: 1;" transform=" translate(-24.65, -14.9)" d="M 0 29.8 L 0 0 L 49.3 0 L 49.3 29.8 z" stroke-linecap="round"></path></g>		<g transform="matrix(1 0 0 1 -9.9 -14.9)" id="NK09f4kLa2b6wyasJEkzK"><path style="stroke: none; stroke-width: 1; stroke-dasharray: none; stroke-linecap: butt; stroke-dashoffset: 0; stroke-linejoin: miter; stroke-miterlimit: 4; fill: rgb(16,124,65); fill-rule: nonzero; opacity: 1;" transform=" translate(-24.6, -14.9)" d="M 0 29.8 L 0 0 L 49.2 0 L 49.2 29.8 z" stroke-linecap="round"></path></g>		<g transform="matrix(1 0 0 1 14.75 29.75)" id="FED4v6jVJxToDaMTmyX80"><path style="stroke: none; stroke-width: 1; stroke-dasharray: none; stroke-linecap: butt; stroke-dashoffset: 0; stroke-linejoin: miter; stroke-miterlimit: 4; fill: rgb(24,91,55); fill-rule: nonzero; opacity: 1;" transform=" translate(-78.75, -93.75)" d="M 78.7 93.8 L 78.7 64 L 29.6 64 L 29.6 93.8 L 29.6 98.1 L 29.6 117.69999999999999 C 29.6 120.89999999999999 32.2 123.49999999999999 35.4 123.49999999999999 L 122.1 123.49999999999999 C 125.3 123.49999999999999 127.89999999999999 120.89999999999999 127.89999999999999 117.69999999999999 L 127.89999999999999 93.8 L 78.7 93.8 z" stroke-linecap="round"></path></g>		<g transform="matrix(1 0 0 1 39.3 -44.6)" id="pcjlNUlavpF_b8ynvMTia"><path style="stroke: none; stroke-width: 1; stroke-dasharray: none; stroke-linecap: butt; stroke-dashoffset: 0; stroke-linejoin: miter; stroke-miterlimit: 4; fill: rgb(51,196,129); fill-rule: nonzero; opacity: 1;" transform=" translate(-103.3, -19.4)" d="M 122.1 4.5 L 78.6 4.5 L 78.6 34.3 L 128 34.3 L 128 10.3 C 127.9 7.1 125.3 4.5 122.1 4.5 z" stroke-linecap="round"></path></g>		<g transform="matrix(1 0 0 1 -9.75 -44.65)" id="XGKYi9z2kQSAA1BoYw_DI"><path style="stroke: none; stroke-width: 1; stroke-dasharray: none; stroke-linecap: butt; stroke-dashoffset: 0; stroke-linejoin: miter; stroke-miterlimit: 4; fill: rgb(33,163,101); fill-rule: nonzero; opacity: 1;" transform=" translate(-54.25, -19.35)" d="M 78.7 4.5 L 35.5 4.5 C 32.3 4.5 29.7 7.1 29.7 10.3 L 29.7 34.2 L 78.8 34.2 L 78.8 4.5 z" stroke-linecap="round"></path></g>		<g transform="matrix(1 0 0 1 -31 0)" id="DNHKSYnzjcBhYelJ3GdqQ"><path style="stroke: none; stroke-width: 1; stroke-dasharray: none; stroke-linecap: butt; stroke-dashoffset: 0; stroke-linejoin: miter; stroke-miterlimit: 4; fill: rgb(23,134,76); fill-rule: nonzero; opacity: 1;" transform=" translate(-33, -64)" d="M 59.5 96.5 L 6.5 96.5 C 3 96.5 0.09999999999999964 93.6 0.09999999999999964 90.1 L 0.09999999999999964 37.9 C 0.09999999999999964 34.4 2.9999999999999996 31.5 6.5 31.5 L 59.5 31.5 C 63 31.5 65.9 34.4 65.9 37.9 L 65.9 90.1 C 65.9 93.6 63.1 96.5 59.5 96.5 z" stroke-linecap="round"></path></g>		<g transform="matrix(1 0 0 1 -30.65 0.45)" id="TvH-4377q7StUr9T1qAWM"><path style="stroke: none; stroke-width: 1; stroke-dasharray: none; stroke-linecap: butt; stroke-dashoffset: 0; stroke-linejoin: miter; stroke-miterlimit: 4; fill: rgb(255,255,255); fill-rule: nonzero; opacity: 1;" transform=" translate(-33.35, -64.45)" d="M 40.5 82.4 L 36.6 75.30000000000001 C 35 72.50000000000001 34 70.60000000000001 32.9 68.50000000000001 L 32.8 68.50000000000001 C 31.9 70.60000000000001 30.999999999999996 72.50000000000001 29.499999999999996 75.30000000000001 L 26 82.4 L 18.4 82.4 L 29.2 64.30000000000001 L 18.7 46.5 L 26.4 46.5 L 30.299999999999997 53.9 C 31.499999999999996 56.1 32.4 57.9 33.3 59.9 L 33.5 59.9 C 34.5 57.699999999999996 35.2 56.1 36.4 53.9 L 40.3 46.5 L 47.9 46.5 L 37.2 64 L 48.300000000000004 82.4 L 40.5 82.4 z" stroke-linecap="round"></path></g>		<g transform="matrix(1 0 0 1 -12.798492312 5.75)" id="CZPdaIEINIg9mKqEdp0w2"><path style="stroke: none; stroke-width: 1; stroke-dasharray: none; stroke-linecap: butt; stroke-dashoffset: 0; stroke-linejoin: miter; stroke-miterlimit: 4; fill: rgb(0,0,0); fill-rule: nonzero; opacity: 0.2;" transform=" translate(-51.201507688, -69.75)" d="M 66.7 37.3 C 66.7 37.5 66.7 37.699999999999996 66.7 37.9 L 66.7 90.1 C 66.7 93.6 63.800000000000004 96.5 60.300000000000004 96.5 L 30.4 96.5 L 30.4 102.2 L 65.6 102.2 C 69.1 102.2 72 99.3 72 95.8 L 72 43.6 C 72.1 40.4 69.7 37.7 66.7 37.3 z" stroke-linecap="round"></path></g></g></g></svg>