<?xml version="1.0" encoding="UTF-8" standalone="no"?>
<!-- Created with Inkscape (http://www.inkscape.org/) -->

<svg
   version="1.1"
   id="svg1"
   width="1000"
   height="500"
   viewBox="0 0 1000 500"
   sodipodi:docname="shopify-excel.svg"
   inkscape:version="1.3.2 (091e20e, 2023-11-25, custom)"
   xmlns:inkscape="http://www.inkscape.org/namespaces/inkscape"
   xmlns:sodipodi="http://sodipodi.sourceforge.net/DTD/sodipodi-0.dtd"
   xmlns="http://www.w3.org/2000/svg"
   xmlns:svg="http://www.w3.org/2000/svg">
  <defs
     id="defs1">
    <clipPath
       id="CLIPPATH_56">
      <path
         id="pO20KKJNwU1CrE_FoZeM0"
         d="M -256,-256 H 256 V 256 H -256 Z"
         stroke-linecap="round" />
    </clipPath>
  </defs>
  <sodipodi:namedview
     id="namedview1"
     pagecolor="#ffffff"
     bordercolor="#111111"
     borderopacity="1"
     inkscape:showpageshadow="0"
     inkscape:pageopacity="0"
     inkscape:pagecheckerboard="1"
     inkscape:deskcolor="#d1d1d1"
     showgrid="false"
     inkscape:zoom="1.677"
     inkscape:cx="490.45915"
     inkscape:cy="250.74538"
     inkscape:window-width="2560"
     inkscape:window-height="1369"
     inkscape:window-x="1072"
     inkscape:window-y="210"
     inkscape:window-maximized="1"
     inkscape:current-layer="g24">
    <inkscape:page
       x="0"
       y="0"
       inkscape:label="1"
       id="page1"
       width="1000"
       height="500"
       margin="0"
       bleed="0" />
  </sodipodi:namedview>
  <g
     id="g1"
     inkscape:groupmode="layer"
     inkscape:label="1">
    <path
       id="path3"
       d="m 318.137,130.637 c 77.636,0 36.09,113.726 113.726,113.726"
       style="fill:none;stroke:#00aaff;stroke-width:17.0079;stroke-linecap:butt;stroke-linejoin:miter;stroke-miterlimit:4;stroke-dasharray:none;stroke-opacity:1"
       transform="scale(1.3333333)" />
    <path
       id="path4"
       d="m 318.031,244.469 c 77.637,0 36.09,-113.938 113.938,-113.938"
       style="fill:none;stroke:#696969;stroke-width:17.0079;stroke-linecap:butt;stroke-linejoin:miter;stroke-miterlimit:4;stroke-dasharray:none;stroke-opacity:1"
       transform="scale(1.3333333)" />
    <path
       id="path5"
       d="m 330.848,187.5 c 0,81.004 -65.668,146.668 -146.672,146.668 -81,0 -146.668,-65.664 -146.668,-146.668 0,-81.004 65.668,-146.668 146.668,-146.668 81.004,0 146.672,65.664 146.672,146.668 z"
       style="fill:none;stroke:#4d4d4d;stroke-width:11.3386;stroke-linecap:butt;stroke-linejoin:miter;stroke-miterlimit:4;stroke-dasharray:none;stroke-opacity:1"
       transform="scale(1.3333333)" />
    <path
       id="path6"
       d="m 711.984,187.5 c 0,81.004 -65.664,146.668 -146.668,146.668 -81.004,0 -146.671,-65.664 -146.671,-146.668 0,-81.004 65.667,-146.668 146.671,-146.668 81.004,0 146.668,65.664 146.668,146.668 z"
       style="fill:none;stroke:#4d4d4d;stroke-width:11.3386;stroke-linecap:butt;stroke-linejoin:miter;stroke-miterlimit:4;stroke-dasharray:none;stroke-opacity:1"
       transform="scale(1.3333333)" />
    <path
       id="path15"
       d="m 457.152,243.441 -36.043,21.977 -1.007,-42.199 z"
       style="fill:#00aaff;fill-opacity:1;fill-rule:evenodd;stroke:none"
       transform="scale(1.3333333)" />
    <path
       id="path16"
       d="m 292.48,130.711 36.04,-21.977 1.011,42.2 z"
       style="fill:#00aaff;fill-opacity:1;fill-rule:evenodd;stroke:none"
       transform="scale(1.3333333)" />
    <g
       id="g17"
       transform="translate(4.4938833,22.637569)">
      <g
         id="g24"
         transform="translate(-2.6966246,3.0305789)">
        <path
           id="text2"
           style="font-style:normal;font-variant:normal;font-weight:normal;font-stretch:normal;font-size:86.8072px;font-family:'Segoe MDL2 Assets';-inkscape-font-specification:'Segoe MDL2 Assets';text-align:center;text-anchor:middle;fill:#9ade00;fill-opacity:1;fill-rule:evenodd;stroke:#4d4d4d;stroke-width:0"
           d="M 348.27696 178.08771 C 343.47318 178.08771 339.53086 179.58655 336.45079 182.58185 C 333.37072 185.54889 331.83165 189.58833 331.83165 194.70295 L 331.83165 201.65607 L 323.8629 201.65607 L 323.8629 209.53888 L 331.83165 209.53888 L 331.83165 248.53498 L 341.74962 248.53498 L 341.74962 209.53888 L 352.60118 209.53888 L 352.60118 201.65607 L 341.74962 201.65607 L 341.74962 195.21271 C 341.74962 189.13734 344.2647 186.09943 349.29454 186.09943 C 351.0465 186.09943 352.75625 186.49572 354.42344 187.28693 L 354.42344 178.93537 C 352.81277 178.37022 350.76362 178.08771 348.27696 178.08771 z M 138.50743 179.14826 L 138.50743 248.53498 L 148.46837 248.53498 L 148.46837 221.91584 C 148.46837 218.0163 149.55621 214.80966 151.73204 212.29474 C 153.90787 209.77982 156.63385 208.52131 159.91173 208.52131 C 166.3827 208.52131 169.61876 212.9021 169.61876 221.66193 L 169.61876 248.53498 L 179.57969 248.53498 L 179.57969 219.71271 C 179.57969 206.94031 174.29449 200.55256 163.72618 200.55256 C 157.25521 200.55256 152.23975 203.42175 148.6793 209.15802 L 148.46837 209.15802 L 148.46837 179.14826 L 138.50743 179.14826 z M 309.70469 179.78302 C 307.95273 179.78302 306.49802 180.33528 305.33946 181.43732 C 304.20916 182.51111 303.64415 183.88146 303.64415 185.54865 C 303.64415 187.18759 304.22387 188.55793 305.38243 189.65998 C 306.54099 190.76202 307.98099 191.31232 309.70469 191.31232 C 311.4284 191.31232 312.88507 190.77673 314.07188 189.70295 C 315.2587 188.6009 315.85118 187.21584 315.85118 185.54865 C 315.85118 183.88146 315.2587 182.51111 314.07188 181.43732 C 312.88507 180.33528 311.4284 179.78302 309.70469 179.78302 z M 109.68516 181.77521 C 102.73381 181.77521 97.024852 183.4006 92.560163 186.65021 C 88.095475 189.89983 85.862898 194.35027 85.862898 200.00177 C 85.862898 203.92957 87.035101 207.34906 89.380476 210.25959 C 91.72585 213.17011 95.851606 216.03735 101.75743 218.8631 C 106.56121 221.15196 109.7698 222.81953 111.38048 223.86506 C 113.01941 224.88233 114.31816 226.08395 115.27891 227.46857 C 116.23967 228.85319 116.72032 230.40697 116.72032 232.13068 C 116.72032 238.09302 112.36895 241.07404 103.66563 241.07404 C 96.855569 241.07404 90.935705 239.0249 85.905866 234.92756 L 85.905866 245.90607 C 87.742605 247.03637 90.369519 247.94078 93.788679 248.61896 C 97.207839 249.29714 100.31736 249.63654 103.11485 249.63654 C 110.71612 249.63654 116.66346 248.06805 120.9586 244.93146 C 125.25374 241.79488 127.40196 237.26007 127.40196 231.32599 C 127.40196 227.34168 126.15815 223.82312 123.67149 220.77131 C 121.18483 217.69124 116.67749 214.62585 110.15001 211.57404 C 104.55502 208.91783 100.88244 206.79709 99.130476 205.21466 C 97.406767 203.63224 96.544538 201.61252 96.544538 199.15412 C 96.544538 196.4414 97.731453 194.30789 100.10509 192.75373 C 102.47872 191.19956 105.60099 190.42365 109.47227 190.42365 C 115.51938 190.42365 120.56426 191.82147 124.60509 194.61896 L 124.60509 184.19123 C 121.24244 182.58055 116.26917 181.77521 109.68516 181.77521 z M 214.29454 200.55256 C 206.72152 200.55256 200.73006 202.78513 196.32188 207.24982 C 191.94197 211.71451 189.75157 217.80505 189.75157 225.51935 C 189.75157 232.83805 191.88507 238.68631 196.15196 243.06623 C 200.4471 247.44614 206.18353 249.63654 213.36094 249.63654 C 220.67964 249.63654 226.52986 247.37649 230.90977 242.85529 C 235.28969 238.33409 237.47813 232.30044 237.47813 224.75568 C 237.47813 217.26744 235.40152 211.36228 231.24766 207.03888 C 227.09381 202.71548 221.44369 200.55256 214.29454 200.55256 z M 274.48204 200.55256 C 267.5872 200.55256 262.33142 203.52082 258.71446 209.4549 L 258.50352 209.4549 L 258.50352 201.65607 L 248.54259 201.65607 L 248.54259 270.1092 L 258.50352 270.1092 L 258.50352 242.21857 L 258.71446 242.21857 C 261.85105 247.16364 266.38585 249.63654 272.31993 249.63654 C 278.81916 249.63654 284.00529 247.27742 287.87657 242.55841 C 291.74785 237.83941 293.68321 231.56544 293.68321 223.7381 C 293.68321 216.61721 291.97346 210.97985 288.5543 206.82599 C 285.13514 202.64388 280.44438 200.55256 274.48204 200.55256 z M 304.61876 201.65607 L 304.61876 248.53498 L 314.57969 248.53498 L 314.57969 201.65607 L 304.61876 201.65607 z M 355.10118 201.65607 L 373.66563 248.44904 L 370.40196 256.24787 C 368.62174 260.40172 365.86633 262.48029 362.13634 262.48029 C 360.38437 262.48029 358.68933 262.11147 357.0504 261.37677 L 357.0504 269.76935 C 358.63282 270.30625 360.69667 270.57599 363.23985 270.57599 C 371.01067 270.57599 376.94329 265.29079 381.04063 254.72248 L 401.68321 201.65607 L 391.63829 201.65607 L 379.89805 235.18341 C 379.27639 237.21796 378.89481 238.68738 378.75352 239.59162 L 378.54063 239.59162 C 378.06025 237.30276 377.69339 235.80392 377.43907 235.09748 L 366.16368 201.65607 L 355.10118 201.65607 z M 213.82774 208.52131 C 218.20766 208.52131 221.55555 209.93383 223.87266 212.75959 C 226.18978 215.55708 227.34923 219.64066 227.34923 225.00959 C 227.34923 236.11479 222.84189 241.66779 213.82774 241.66779 C 209.5326 241.66779 206.12782 240.22584 203.6129 237.34357 C 201.12624 234.4613 199.88243 230.44933 199.88243 225.30646 C 199.88243 220.10708 201.11152 216.01074 203.56993 213.01545 C 206.02833 210.02015 209.44783 208.52131 213.82774 208.52131 z M 271.38829 208.52131 C 275.20305 208.52131 278.16936 209.84947 280.28868 212.50568 C 282.40799 215.13363 283.46837 218.8631 283.46837 223.69513 C 283.46837 229.31838 282.32363 233.72664 280.03477 236.91974 C 277.74591 240.08459 274.52457 241.66779 270.37071 241.66779 C 266.92329 241.66779 264.06881 240.43869 261.80821 237.98029 C 259.54761 235.49363 258.41759 232.42824 258.41759 228.78302 L 258.41759 223.18732 C 258.41759 218.94869 259.61921 215.44484 262.0211 212.6756 C 264.45125 209.90636 267.57352 208.52131 271.38829 208.52131 z " />
      </g>
      <path
         id="text16-5-7"
         style="font-style:normal;font-variant:normal;font-weight:normal;font-stretch:normal;font-size:120.869px;font-family:'Segoe MDL2 Assets';-inkscape-font-specification:'Segoe MDL2 Assets';text-align:center;text-anchor:middle;fill:#009100;fill-opacity:1;fill-rule:evenodd;stroke:#4d4d4d;stroke-width:0"
         d="M 870.03932 175.89954 L 870.03932 272.51087 L 879.83619 272.51087 L 879.83619 175.89954 L 870.03932 175.89954 z M 619.21315 181.0929 L 619.21315 272.51087 L 667.25221 272.51087 L 667.25221 263.30384 L 629.24635 263.30384 L 629.24635 230.60852 L 662.47291 230.60852 L 662.47291 221.40149 L 629.24635 221.40149 L 629.24635 190.29993 L 665.18776 190.29993 L 665.18776 181.0929 L 619.21315 181.0929 z M 771.00612 205.70227 C 760.81567 205.70227 752.6518 208.94858 746.51393 215.44056 C 740.37606 221.93254 737.3069 230.58934 737.3069 241.40931 C 737.3069 251.08826 740.14117 258.95755 745.8069 265.01673 C 751.51197 271.03656 758.98652 274.04602 768.23268 274.04602 C 774.96073 274.04602 780.86221 272.51145 785.93776 269.44251 L 785.93776 259.94056 C 780.9409 263.75705 775.5516 265.66517 769.76784 265.66517 C 762.92175 265.66517 757.47275 263.42202 753.42018 258.93665 C 749.36761 254.45128 747.3401 248.31296 747.3401 240.52259 C 747.3401 232.53548 749.5043 226.14303 753.83229 221.3429 C 758.19962 216.50342 763.72757 214.08313 770.41627 214.08313 C 775.96397 214.08313 781.17808 215.79486 786.0569 219.2179 L 786.0569 208.88977 C 781.65022 206.76513 776.6325 205.70227 771.00612 205.70227 z M 827.3108 205.70227 C 818.77287 205.70227 811.65064 208.94858 805.94557 215.44056 C 800.27984 221.93254 797.44752 230.13686 797.44752 240.05188 C 797.44752 250.83251 800.0642 259.19277 805.29713 265.13392 C 810.56941 271.07506 817.74937 274.04602 826.83815 274.04602 C 836.24168 274.04602 843.79518 271.92032 849.50026 267.67102 L 849.50026 258.22962 C 843.28369 263.14779 836.49651 265.60657 829.13893 265.60657 C 822.56826 265.60657 817.3946 263.60026 813.61744 259.58704 C 809.84029 255.57382 807.85323 249.80903 807.65651 242.29407 L 853.92799 242.29407 L 853.92799 236.98157 C 853.92799 227.14524 851.58665 219.47429 846.90455 213.96595 C 842.22246 208.4576 835.69136 205.70227 827.3108 205.70227 z M 675.57448 207.23743 L 696.93971 240.58313 L 674.63112 272.51087 L 685.96119 272.51087 L 699.29909 251.08704 C 701.26635 247.86072 702.25026 246.22795 702.25026 246.1886 L 702.54518 246.1886 C 703.56816 247.95914 704.53281 249.59192 705.43776 251.08704 L 718.42213 272.51087 L 729.92994 272.51087 L 708.38893 240.4054 L 730.28346 207.23743 L 719.48463 207.23743 L 704.13893 232.67493 C 703.70613 233.42249 703.2729 234.12911 702.8401 234.79798 L 702.60573 234.79798 L 687.08229 207.23743 L 675.57448 207.23743 z M 827.13307 214.20227 C 832.366 214.20227 836.43831 215.91204 839.34987 219.33509 C 842.26142 222.71879 843.7363 227.48042 843.77565 233.61829 L 807.77565 233.61829 C 808.71994 227.51976 810.98233 222.75813 814.56276 219.33509 C 818.18253 215.91204 822.37228 214.20227 827.13307 214.20227 z " />
    </g>
  </g>
</svg>
