<svg xmlns="http://www.w3.org/2000/svg" xmlns:xlink="http://www.w3.org/1999/xlink" width="800" height="400" viewBox="0 0 800 400" xml:space="preserve"><desc>Created with Fabric.js 5.3.0</desc><defs></defs><g transform="matrix(1 0 0 1 399.5240985442 200)" id="ih3Kuf8m1kcVNVv1LVyXA"><g style="">		<g transform="matrix(1.560844536 0 0 0.5853066529 0 17.2017264753)" id="pO_6K9RkmLS60X-A1vSjQ"><path style="stroke: none; stroke-width: 1; stroke-dasharray: none; stroke-linecap: butt; stroke-dashoffset: 0; stroke-linejoin: miter; stroke-miterlimit: 4; fill: rgb(47,193,255); fill-rule: nonzero; opacity: 1;" transform=" translate(0, 0.000005)" d="M 13.67793 28.88925 L 40 -0.3510099999999987 L 13.67793 -28.88926 L 13.67793 -12.246010000000002 L -40 -12.246010000000002 L -40 11.60099 L 13.677930000000003 11.60099 z" stroke-linecap="round"></path></g>		<g transform="matrix(-1.560844536 0 0 -0.5853066529 -1.9e-9 -17.2017256923)" id="7Us8dCiZWPrP5ER07V9de"><path style="stroke: none; stroke-width: 1; stroke-dasharray: none; stroke-linecap: butt; stroke-dashoffset: 0; stroke-linejoin: miter; stroke-miterlimit: 4; fill: rgb(103,103,103); fill-rule: nonzero; opacity: 1;" transform=" translate(0, 0.000005)" d="M 13.67793 28.88925 L 40 -0.3510099999999987 L 13.67793 -28.88926 L 13.67793 -12.246010000000002 L -40 -12.246010000000002 L -40 11.60099 L 13.677930000000003 11.60099 z" stroke-linecap="round"></path></g></g></g><g transform="matrix(3.6339309516 0 0 3.6339309516 179.4132093381 200)" id="Jo1gABDEWpCvynXBARy5u"><path style="stroke: none; stroke-width: 1; stroke-dasharray: none; stroke-linecap: butt; stroke-dashoffset: 0; stroke-linejoin: miter; stroke-miterlimit: 4; fill: rgb(129,181,161); fill-rule: evenodd; opacity: 1;" transform=" translate(-31.9996859718, -31.9995228854)" d="M 32.195 3.312 C 19.030258133134133 3.341248013771275 7.203413604975861 11.3652281627031 2.310802432748588 23.5870790775571 C -2.5818087394786886 35.808929992411095 0.44105225252042146 49.77749542865861 9.948999999999991 58.882999999999996 C 12.218555452895114 61.049646471678194 15.730835609655365 61.232400642467994 18.213 59.313 C 26.362830302890572 53.2682870847876 37.50816969710941 53.2682870847876 45.65799999999999 59.31299999999999 C 48.165253597946105 61.29757554578633 51.755802727027955 61.11353261748675 54.047 58.883 C 63.50547343787059 49.82750185825287 66.55338859926242 35.95372107170927 61.76146892723187 23.767570234513137 C 56.969549255201315 11.581419397317006 45.28811145797034 3.499613217165674 32.19500000000001 3.3119999999999976 M 32.015 51.586999999999996 C 27.713753456996244 51.72635040455611 23.54531449939833 50.086301203370574 20.4921702120158 47.053406493794405 C 17.43902592463327 44.02051178421823 15.771274732737382 39.86307859925192 15.882000000000001 35.561 C 15.685741392716862 29.70412424249063 18.69834528380681 24.206167407451424 23.740363810566933 21.219604122395967 C 28.78238233732706 18.23304083734051 35.051617662672925 18.23304083734051 40.093636189433056 21.219604122395964 C 45.13565471619319 24.20616740745142 48.148258607283125 29.704124242490618 47.952 35.560999999999986 C 48.06662606251513 39.84547177728118 46.41501337409355 43.98868719172605 43.38435028290981 47.01935028290979 C 40.35368719172607 50.05001337409353 36.2104717772812 51.70162606251512 31.92600000000001 51.58699999999999" stroke-linecap="round"></path></g><g transform="matrix(3.6230662129 0 0 3.6230662129 619.6349877504 200)" id="_5i0eICiZUlaFcjt7psfc"><g style="">		<g transform="matrix(6.249587 0 0 6.249587 -0.000996142 0.0019645415)" id="JU6YD68Ojhr8QXi3lXw0L"><path style="stroke: none; stroke-width: 1; stroke-dasharray: none; stroke-linecap: butt; stroke-dashoffset: 0; stroke-linejoin: miter; stroke-miterlimit: 4; fill: rgb(38,132,255); fill-rule: nonzero; opacity: 1;" transform=" translate(-41.734, -32.2045)" d="M 46.568 31.918 L 41.733999999999995 27.084 L 36.89999999999999 31.918 C 36.74222602032366 32.07641802531033 36.74222602032366 32.33258197468967 36.89999999999999 32.491 L 41.733999999999995 37.325 L 46.568 32.491 C 46.725773979676326 32.33258197468967 46.725773979676326 32.07641802531033 46.568 31.918 z M 41.733999999999995 33.717999999999996 L 40.21999999999999 32.20399999999999 L 41.733999999999995 30.689999999999994 L 43.248 32.20399999999999 z" stroke-linecap="round"></path></g>		<g transform="matrix(6.249587 0 0 6.249587 -10.419057671 -15.9094839605)" id="u248wSb_AX2wjezeu_cW_"><linearGradient id="SVGID_47" gradientUnits="userSpaceOnUse" gradientTransform="matrix(1 0 0 1 0 0)" x1="41.464" y1="29.159" x2="39.35" y2="31.273"><stop offset="18%" style="stop-color:rgb(0,82,204);stop-opacity: 1"></stop><stop offset="100%" style="stop-color:rgb(38,132,255);stop-opacity: 1"></stop></linearGradient><path style="stroke: none; stroke-width: 1; stroke-dasharray: none; stroke-linecap: butt; stroke-dashoffset: 0; stroke-linejoin: miter; stroke-miterlimit: 4; fill: url(#SVGID_47); fill-rule: nonzero; opacity: 1;" transform=" translate(-40.067, -29.6585)" d="M 41.734 30.7 C 40.74270279193506 29.70883243141924 40.73778855433536 28.103216982935525 41.723 27.105999999999998 L 38.4 30.408 L 40.202999999999996 32.211 z" stroke-linecap="round"></path></g>		<g transform="matrix(6.249587 0 0 6.249587 10.373318278 15.985283294)" id="za7pbkNPaeDkLr18GmLU-"><linearGradient id="SVGID_48" gradientUnits="userSpaceOnUse" gradientTransform="matrix(1 0 0 1 0 0)" x1="42.023" y1="35.232" x2="44.133" y2="33.122"><stop offset="18%" style="stop-color:rgb(0,82,204);stop-opacity: 1"></stop><stop offset="100%" style="stop-color:rgb(38,132,255);stop-opacity: 1"></stop></linearGradient><path style="stroke: none; stroke-width: 1; stroke-dasharray: none; stroke-linecap: butt; stroke-dashoffset: 0; stroke-linejoin: miter; stroke-miterlimit: 4; fill: url(#SVGID_48); fill-rule: nonzero; opacity: 1;" transform=" translate(-43.394, -34.762)" d="M 43.252 32.2 L 41.734 33.718 C 42.21238808431084 34.19607769738642 42.48116981932259 34.84467652417731 42.48116981932259 35.521 C 42.48116981932259 36.1973234758227 42.21238808431084 36.84592230261359 41.734 37.324000000000005 L 45.054 34.004000000000005 z" stroke-linecap="round"></path></g></g></g></svg>