<svg xmlns:inkscape="http://www.inkscape.org/namespaces/inkscape" xmlns:sodipodi="http://sodipodi.sourceforge.net/DTD/sodipodi-0.dtd" xmlns:xlink="http://www.w3.org/1999/xlink" xmlns="http://www.w3.org/2000/svg" xmlns:svg="http://www.w3.org/2000/svg" id="svg1" width="1000" height="500" viewBox="0 0 1000 500" sodipodi:docname="snow-jira.svg" inkscape:version="1.3.2 (091e20e, 2023-11-25, custom)" xml:space="preserve"><defs id="defs1"><clipPath id="CLIPPATH_56">	<path id="pO20KKJNwU1CrE_FoZeM0" d="M -256,-256 H 256 V 256 H -256 Z" stroke-linecap="round"></path></clipPath><style id="style1">.cls-1{fill:#2684ff;}.cls-2{fill:url(#linear-gradient);}.cls-3{fill:url(#linear-gradient-2);}</style><linearGradient id="linear-gradient" x1="34.64" y1="15.35" x2="19" y2="30.99" gradientUnits="userSpaceOnUse"><stop offset="0.18" stop-color="#0052cc" id="stop1"></stop><stop offset="1" stop-color="#2684ff" id="stop2"></stop></linearGradient><linearGradient id="linear-gradient-2" x1="38.78" y1="60.28" x2="54.39" y2="44.67" xlink:href="#linear-gradient"></linearGradient></defs><g id="g1" inkscape:groupmode="layer" inkscape:label="1"><path id="path3" d="m 318.137,130.637 c 77.636,0 36.09,113.726 113.726,113.726" style="fill:none;stroke:#00aaff;stroke-width:17.0079;stroke-linecap:butt;stroke-linejoin:miter;stroke-miterlimit:4;stroke-dasharray:none;stroke-opacity:1" transform="scale(1.3333333)"></path><path id="path4" d="m 318.031,244.469 c 77.637,0 36.09,-113.938 113.938,-113.938" style="fill:none;stroke:#696969;stroke-width:17.0079;stroke-linecap:butt;stroke-linejoin:miter;stroke-miterlimit:4;stroke-dasharray:none;stroke-opacity:1" transform="scale(1.3333333)"></path><path id="path5" d="m 330.848,187.5 c 0,81.004 -65.668,146.668 -146.672,146.668 -81,0 -146.668,-65.664 -146.668,-146.668 0,-81.004 65.668,-146.668 146.668,-146.668 81.004,0 146.672,65.664 146.672,146.668 z" style="fill:none;stroke:#4d4d4d;stroke-width:11.3386;stroke-linecap:butt;stroke-linejoin:miter;stroke-miterlimit:4;stroke-dasharray:none;stroke-opacity:1" transform="scale(1.3333333)"></path><path id="path6" d="m 711.984,187.5 c 0,81.004 -65.664,146.668 -146.668,146.668 -81.004,0 -146.671,-65.664 -146.671,-146.668 0,-81.004 65.667,-146.668 146.671,-146.668 81.004,0 146.668,65.664 146.668,146.668 z" style="fill:none;stroke:#4d4d4d;stroke-width:11.3386;stroke-linecap:butt;stroke-linejoin:miter;stroke-miterlimit:4;stroke-dasharray:none;stroke-opacity:1" transform="scale(1.3333333)"></path><path id="path15" d="m 457.152,243.441 -36.043,21.977 -1.007,-42.199 z" style="fill:#00aaff;fill-opacity:1;fill-rule:evenodd;stroke:none" transform="scale(1.3333333)"></path><path id="path16" d="m 292.48,130.711 36.04,-21.977 1.011,42.2 z" style="fill:#00aaff;fill-opacity:1;fill-rule:evenodd;stroke:none" transform="scale(1.3333333)"></path><g id="g17" transform="translate(4.4938833,22.637569)"><g id="g30" transform="matrix(1.4807359,0,0,1.4807359,-30.303103,-128.85922)"><g id="g29" transform="translate(6.1911005)"><path d="m 156.52777,210.69624 c -3.6068,0 -6.6802,1.27454 -9.15131,3.28544 v -2.95023 h -8.3499 v 32.51946 h 8.68387 v -20.78495 c 1.20258,-1.67693 4.20817,-4.02365 7.88216,-4.02365 1.30821,0 2.50525,0.0955 3.48487,0.52203 v -8.34529 c -0.83001,-0.14531 -1.6817,-0.22281 -2.54969,-0.22281" style="fill:#100f0d;fill-opacity:1;fill-rule:evenodd;stroke:none;stroke-width:0.153762" id="path12"></path><path d="m 80.818511,233.62784 c 2.20432,2.01091 5.611122,3.21759 8.883966,3.21759 2.338339,0 4.141355,-1.14001 4.141355,-2.7485 0,-4.89396 -15.696942,-3.15152 -15.696942,-13.61157 0,-6.23521 6.011736,-10.12493 12.424713,-10.12493 4.208026,0 8.817357,1.60912 10.954347,3.28559 l -4.074087,6.30302 c -1.670319,-1.20673 -3.874654,-2.21279 -6.212963,-2.21279 -2.404334,0 -4.408655,0.93887 -4.408655,2.61457 0,4.22493 15.698235,2.54907 15.698235,13.81278 0,6.23579 -6.079147,10.05822 -12.892074,10.05822 -4.476511,0 -9.218523,-1.54243 -13.025937,-4.3588 l 4.208042,-6.23518" style="fill:#100f0d;fill-opacity:1;fill-rule:evenodd;stroke:none;stroke-width:0.153762" id="path14"></path><path d="m 113.07672,223.10055 c 0.4007,-2.951 3.34018,-5.6995 6.94698,-5.6995 3.54006,0 6.1451,2.81646 6.41234,5.6995 z m 22.24324,3.88849 c 0,-9.05152 -6.34499,-16.62861 -15.29626,-16.62861 -9.6186,0 -15.76432,7.91214 -15.76432,16.96381 0,10.1921 7.28095,16.89697 16.96612,16.89697 5.00988,0 10.15369,-2.07819 13.29382,-5.83336 l -4.94314,-4.96183 c -1.5364,1.67638 -4.47602,3.75517 -8.1494,3.75517 -4.60933,0 -8.28333,-3.15213 -8.75123,-7.71033 h 22.44452 c 0.13331,-0.73815 0.19989,-1.61029 0.19989,-2.48182" style="fill:#100f0d;fill-opacity:1;fill-rule:evenodd;stroke:none;stroke-width:0.153762" id="path16-7"></path><path d="m 179.77355,230.87814 8.88392,-19.84669 h 9.01846 l -14.89679,32.51946 h -6.0118 l -14.89571,-32.51946 h 9.01784 l 8.88408,19.84669" style="fill:#100f0d;fill-opacity:1;fill-rule:evenodd;stroke:none;stroke-width:0.153762" id="path18"></path><path d="m 204.96703,195.76086 c 3.14074,0 5.67844,2.41391 5.67844,5.56496 0,3.15213 -2.5377,5.56542 -5.67844,5.56542 -3.13891,0 -5.67706,-2.41329 -5.67706,-5.56542 0,-3.15105 2.53815,-5.56496 5.67706,-5.56496" style="fill:#100f0d;fill-opacity:1;fill-rule:evenodd;stroke:none;stroke-width:0.153762" id="path20"></path><path d="m 200.6257,243.55091 h 8.68403 v -32.51946 h -8.68403 v 32.51946" style="fill:#100f0d;fill-opacity:1;fill-rule:evenodd;stroke:none;stroke-width:0.153762" id="path22"></path><path d="m 245.21383,236.9127 c -3.80715,5.09518 -8.61684,7.30851 -14.69506,7.30851 -10.02053,0 -17.36806,-7.50972 -17.36806,-16.89635 0,-9.4553 7.54819,-16.96443 17.43418,-16.96443 5.61078,0 10.6219,2.61518 13.62641,6.50429 l -6.14434,5.43088 c -1.73751,-2.27998 -4.34224,-3.88895 -7.48207,-3.88895 -5.00942,0 -8.75076,3.9563 -8.75076,8.91821 0,5.0951 3.67399,8.84966 8.95065,8.84966 3.54115,0 6.34577,-2.14546 7.74962,-4.29032 l 6.67943,5.0285" style="fill:#100f0d;fill-opacity:1;fill-rule:evenodd;stroke:none;stroke-width:0.153762" id="path24"></path><path d="m 268.67026,223.10055 c -0.26601,-2.88304 -2.87228,-5.6995 -6.41189,-5.6995 -3.60726,0 -6.54719,2.7485 -6.94697,5.6995 z m 8.08328,15.2873 c -3.13983,3.75517 -8.28317,5.83336 -13.29275,5.83336 -9.68548,0 -16.96612,-6.70487 -16.96612,-16.89697 0,-9.05167 6.14434,-16.96381 15.7637,-16.96381 8.9505,0 15.29627,7.57709 15.29627,16.62861 0,0.87153 -0.0661,1.74367 -0.19989,2.48182 h -22.44467 c 0.46743,4.5582 4.14235,7.71033 8.7506,7.71033 3.67492,0 6.61332,-2.07879 8.15094,-3.75517 l 4.94192,4.96183" style="fill:#100f0d;fill-opacity:1;fill-rule:evenodd;stroke:none;stroke-width:0.153762" id="path26"></path></g><g id="g28"><path d="m 119.40851,284.69581 v -32.51946 h 8.34929 v 2.61457 c 2.4725,-2.01106 5.54467,-3.28559 9.15193,-3.28559 4.47602,0 8.54918,2.01105 11.22157,5.23037 2.13883,2.54784 3.33971,5.83343 3.33971,11.39824 v 16.56187 h -8.68295 v -17.23212 c 0,-3.21824 -0.73499,-4.89456 -1.93741,-6.10128 -1.1363,-1.13999 -2.87227,-1.81086 -4.8758,-1.81086 -3.67491,0 -6.67943,2.34718 -7.88185,4.0235 v 21.12076 h -8.68449" style="fill:#100f0d;fill-opacity:1;fill-rule:evenodd;stroke:none;stroke-width:0.153762" id="path28"></path><path d="m 173.72041,280.01507 c -5.62001,0 -9.46714,-4.23207 -9.46714,-9.46658 0,-5.23701 3.84713,-9.53989 9.46714,-9.53989 5.62308,0 9.46714,4.30288 9.46714,9.53989 0,5.23451 -3.84406,9.46658 -9.46714,9.46658 m 0.11071,-28.50913 c -10.37588,-0.06 -18.95735,8.43048 -19.04499,18.84553 -0.0446,5.51322 2.24954,10.49068 5.94752,13.99056 1.34542,1.27215 3.42428,1.39588 4.88195,0.25828 2.15575,-1.68297 4.92347,-2.68544 8.10481,-2.68544 3.18134,0 5.94906,1.00307 8.1048,2.68544 1.47151,1.14721 3.55806,1.00005 4.91117,-0.2859 3.64416,-3.46385 5.91984,-8.36804 5.91984,-13.80256 0,-10.45888 -8.42001,-18.94579 -18.8251,-19.00591" style="fill:#6ac63f;fill-opacity:1;fill-rule:evenodd;stroke:none;stroke-width:0.153762" id="path30"></path><path d="m 209.83915,284.69581 h -6.46724 l -12.89603,-32.51946 h 8.67065 l 7.06999,18.58416 6.93313,-18.58416 h 7.24682 l 6.8701,18.58416 7.13303,-18.58416 h 8.67065 l -12.89604,32.51946 h -6.46724 l -6.93314,-18.51757 -6.93468,18.51757" style="fill:#100f0d;fill-opacity:1;fill-rule:evenodd;stroke:none;stroke-width:0.153762" id="path32"></path><path d="m 242.43828,280.47335 h 0.88875 c 0.32905,0 0.59506,-0.2799 0.59506,-0.63066 0,-0.35557 -0.26601,-0.63127 -0.59506,-0.63127 h -0.88875 z m 0.73345,0.55559 h -0.73345 v 1.37545 h -0.61966 v -3.77499 h 1.50841 c 0.67502,0 1.21318,0.53938 1.21318,1.21329 0,0.48591 -0.30598,0.91656 -0.74882,1.09436 l 0.858,1.46734 h -0.67963 l -0.79803,-1.37545" style="fill:#100f0d;fill-opacity:1;fill-rule:nonzero;stroke:none;stroke-width:0.153762" id="path34"></path><path d="m 243.09024,276.53319 c -2.23571,0 -4.04856,1.81212 -4.04856,4.04828 0,2.23555 1.81285,4.04827 4.04856,4.04827 2.2357,0 4.04856,-1.81272 4.04856,-4.04827 0,-2.23616 -1.81286,-4.04828 -4.04856,-4.04828 z m 0,0.55319 c 1.92664,0 3.49501,1.56765 3.49501,3.49509 0,1.92683 -1.56837,3.49508 -3.49501,3.49508 -1.92664,0 -3.49502,-1.56825 -3.49502,-3.49508 0,-1.92744 1.56838,-3.49509 3.49502,-3.49509" style="fill:#100f0d;fill-opacity:1;fill-rule:nonzero;stroke:none;stroke-width:0.153762" id="path36"></path></g></g><g id="g31" transform="translate(-11.146542,25.45895)"><g id="Blue" transform="matrix(2.5663184,0,0,2.5663184,666.3754,80.508071)"><path class="cls-1" d="M 72.4,35.76 39.8,3.16 36.64,0 V 0 L 12.1,24.54 v 0 L 0.88,35.76 a 3,3 0 0 0 0,4.24 L 23.3,62.42 36.64,75.76 61.18,51.22 61.56,50.84 72.4,40 a 3,3 0 0 0 0,-4.24 z m -35.76,13.32 -11.2,-11.2 11.2,-11.2 11.2,11.2 z" id="path2"></path><path class="cls-2" d="M 36.64,26.68 A 18.86,18.86 0 0 1 36.56,0.09 l -24.51,24.5 13.34,13.34 z" id="path3-2" style="fill:url(#linearGradient4)"></path><path class="cls-3" d="M 47.87,37.85 36.64,49.08 a 18.86,18.86 0 0 1 0,26.68 v 0 L 61.21,51.19 Z" id="path4-8" style="fill:url(#linear-gradient-2)"></path></g><path id="text30" style="font-style:normal;font-variant:normal;font-weight:bold;font-stretch:normal;font-size:53.3333px;font-family:'Microsoft JhengHei UI';-inkscape-font-specification:'Microsoft JhengHei UI Bold';text-align:end;text-anchor:end;fill:#2684ff;fill-opacity:1;fill-rule:evenodd;stroke:#4d4d4d;stroke-width:0" d="M 747.69758 280.382 C 746.62119 280.382 745.72579 280.72054 745.01399 281.39762 C 744.31954 282.05734 743.97297 282.89871 743.97297 283.92301 C 743.97297 284.92996 744.32953 285.77327 745.04133 286.45036 C 745.75313 287.12744 746.63855 287.46598 747.69758 287.46598 C 748.75661 287.46598 749.65006 287.13547 750.37922 286.47575 C 751.10839 285.79866 751.47297 284.94732 751.47297 283.92301 C 751.47297 282.89871 751.10839 282.05734 750.37922 281.39762 C 749.65006 280.72054 748.75661 280.382 747.69758 280.382 z M 729.3636 282.28239 L 729.3636 307.51676 C 729.3636 314.37439 727.26224 317.80387 723.06086 317.80387 C 721.32475 317.80387 719.85839 317.36116 718.66047 316.47575 L 718.66047 322.49137 C 719.94519 323.02957 721.47363 323.29801 723.24446 323.29801 C 727.11598 323.29801 730.14485 321.93581 732.33235 319.21012 C 734.51984 316.46707 735.6136 312.60486 735.6136 307.62223 L 735.6136 282.28239 L 729.3636 282.28239 z M 791.2386 293.14176 C 787.38444 293.14176 783.99098 294.01112 781.05696 295.74723 L 781.05696 301.13786 C 783.95626 298.89828 787.13335 297.77848 790.58821 297.77848 C 794.35556 297.77848 796.2386 299.92193 796.2386 304.21012 L 787.87922 305.35661 C 781.43826 306.25938 778.21711 309.41846 778.21711 314.83512 C 778.21711 317.42192 779.02441 319.47922 780.63899 321.007 C 782.27093 322.53477 784.50249 323.29801 787.33235 323.29801 C 791.20387 323.29801 794.12054 321.61528 796.08235 318.24723 L 796.21321 318.24723 L 796.21321 322.62223 L 802.15071 322.62223 L 802.15071 304.41911 C 802.15071 296.90176 798.51289 293.14176 791.2386 293.14176 z M 773.1136 293.32536 C 769.50249 293.32536 766.98447 295.39871 765.56086 299.54801 L 765.43196 299.54801 L 765.43196 293.8195 L 759.31086 293.8195 L 759.31086 322.62223 L 765.43196 322.62223 L 765.43196 308.27262 C 765.43196 305.40804 766.03895 303.10834 767.25422 301.37223 C 768.48686 299.63612 770.09342 298.76676 772.07258 298.76676 C 773.56563 298.76676 774.76355 299.0632 775.66633 299.65348 L 775.66633 293.68864 C 775.04133 293.44558 774.18998 293.32536 773.1136 293.32536 z M 744.57258 293.8195 L 744.57258 322.62223 L 750.69172 322.62223 L 750.69172 293.8195 L 744.57258 293.8195 z M 796.2386 308.37614 L 796.2386 310.92887 C 796.2386 313.13373 795.56151 314.96468 794.20735 316.42301 C 792.85318 317.86398 791.15244 318.58512 789.10383 318.58512 C 787.66286 318.58512 786.481 318.18647 785.56086 317.38786 C 784.64072 316.57189 784.18196 315.53022 784.18196 314.26286 C 784.18196 312.75244 784.60665 311.6066 785.45735 310.82536 C 786.3254 310.04411 787.80175 309.51329 789.88508 309.23551 L 796.2386 308.37614 z "></path></g></g></g></svg>