<svg xmlns:inkscape="http://www.inkscape.org/namespaces/inkscape" xmlns:sodipodi="http://sodipodi.sourceforge.net/DTD/sodipodi-0.dtd" xmlns="http://www.w3.org/2000/svg" xmlns:svg="http://www.w3.org/2000/svg" id="svg1" width="1000" height="500" viewBox="0 0 1000 500" sodipodi:docname="s4hana-subscriptionbilling.svg" inkscape:version="1.3.2 (091e20e, 2023-11-25, custom)"><defs id="defs1"><clipPath id="CLIPPATH_56"><path id="pO20KKJNwU1CrE_FoZeM0" d="M -256,-256 H 256 V 256 H -256 Z" stroke-linecap="round"></path></clipPath></defs><g id="g1" inkscape:groupmode="layer" inkscape:label="1"><path id="path3" d="m 318.137,130.637 c 77.636,0 36.09,113.726 113.726,113.726" style="fill:none;stroke:#00aaff;stroke-width:17.0079;stroke-linecap:butt;stroke-linejoin:miter;stroke-miterlimit:4;stroke-dasharray:none;stroke-opacity:1" transform="scale(1.3333333)"></path><path id="path4" d="m 318.031,244.469 c 77.637,0 36.09,-113.938 113.938,-113.938" style="fill:none;stroke:#696969;stroke-width:17.0079;stroke-linecap:butt;stroke-linejoin:miter;stroke-miterlimit:4;stroke-dasharray:none;stroke-opacity:1" transform="scale(1.3333333)"></path><path id="path5" d="m 330.848,187.5 c 0,81.004 -65.668,146.668 -146.672,146.668 -81,0 -146.668,-65.664 -146.668,-146.668 0,-81.004 65.668,-146.668 146.668,-146.668 81.004,0 146.672,65.664 146.672,146.668 z" style="fill:none;stroke:#4d4d4d;stroke-width:11.3386;stroke-linecap:butt;stroke-linejoin:miter;stroke-miterlimit:4;stroke-dasharray:none;stroke-opacity:1" transform="scale(1.3333333)"></path><path id="path6" d="m 711.984,187.5 c 0,81.004 -65.664,146.668 -146.668,146.668 -81.004,0 -146.671,-65.664 -146.671,-146.668 0,-81.004 65.667,-146.668 146.671,-146.668 81.004,0 146.668,65.664 146.668,146.668 z" style="fill:none;stroke:#4d4d4d;stroke-width:11.3386;stroke-linecap:butt;stroke-linejoin:miter;stroke-miterlimit:4;stroke-dasharray:none;stroke-opacity:1" transform="scale(1.3333333)"></path><path id="path15" d="m 457.152,243.441 -36.043,21.977 -1.007,-42.199 z" style="fill:#00aaff;fill-opacity:1;fill-rule:evenodd;stroke:none" transform="scale(1.3333333)"></path><path id="path16" d="m 292.48,130.711 36.04,-21.977 1.011,42.2 z" style="fill:#00aaff;fill-opacity:1;fill-rule:evenodd;stroke:none" transform="scale(1.3333333)"></path><g id="g17" transform="translate(4.4938833,22.637569)"><g id="g24" transform="translate(-2.6966246,3.0305789)"><g id="g2" transform="translate(3.3501521e-4,1.7830955)"><path id="text16-5" style="font-style:normal;font-variant:normal;font-weight:normal;font-stretch:normal;font-size:138.814px;font-family:'Segoe MDL2 Assets';-inkscape-font-specification:'Segoe MDL2 Assets';text-align:center;text-anchor:middle;fill:#30c3ff;fill-opacity:1;fill-rule:evenodd;stroke:#4d4d4d;stroke-width:0" d="m 154.6754,139.2381 c -11.11596,0 -20.2433,2.59844 -27.38281,7.79492 -7.13952,5.19649 -10.70899,12.31421 -10.70899,21.35157 0,6.28096 1.8745,11.7481 5.625,16.40234 3.75051,4.65424 10.34893,9.24109 19.79297,13.75977 7.68176,3.66013 12.81107,6.32613 15.38672,7.99804 2.62083,1.62673 4.69802,3.54562 6.23437,5.75977 1.53635,2.21415 2.30469,4.70063 2.30469,7.45703 0,9.53441 -6.95746,14.30078 -20.875,14.30078 -10.89002,0 -20.35714,-3.27604 -28.40039,-9.82812 v 17.55468 c 2.93714,1.80748 7.13982,3.25536 12.60742,4.33985 5.4676,1.08448 10.43666,1.625 14.91016,1.625 12.15525,0 21.66871,-2.50771 28.53711,-7.52344 6.86839,-5.01574 10.30078,-12.26858 10.30078,-21.75781 0,-6.37134 -1.98645,-11.99678 -5.96289,-16.87696 -3.97644,-4.92536 -11.1849,-9.82685 -21.62305,-14.70703 -8.94699,-4.24756 -14.82146,-7.63751 -17.62305,-10.16797 -2.75639,-2.53046 -4.13476,-5.76015 -4.13476,-9.6914 0,-4.33794 1.89767,-7.75106 5.69336,-10.23633 3.79569,-2.48527 8.78988,-3.72656 14.98047,-3.72656 9.66997,0 17.73555,2.23549 24.19726,6.70898 v -16.67383 c -5.37723,-2.57564 -13.33085,-3.86328 -23.85937,-3.86328 z m 75.71094,1.76172 -39.58399,104.99219 h 17.89453 l 9.35352,-27.31445 h 42.02344 l 9.82812,27.31445 h 17.89453 l -39.3125,-104.99219 z m 72.05078,0 v 104.99219 h 16.26757 v -38.43164 h 12.94532 c 11.11595,0.36149 20.44794,-2.64234 27.99414,-9.01367 7.54619,-6.41653 11.31836,-14.88945 11.31836,-25.41797 0,-10.43815 -3.16213,-18.39177 -9.48828,-23.85938 -6.32616,-5.51279 -15.43228,-8.26953 -27.31641,-8.26953 z m 16.26757,13.625 h 12.60743 c 15.0472,0 22.57031,6.39378 22.57031,19.18164 0,13.46567 -7.83971,20.19922 -23.51953,20.19922 h -11.65821 z m -79.91406,1.21875 h 0.47461 c 0.54224,3.79569 1.08471,6.44048 1.62695,7.93164 l 14.64063,41.41406 h -33.00781 l 14.57226,-41.55078 c 0.72299,-2.07859 1.28668,-4.67703 1.69336,-7.79492 z"></path><path id="text1" style="font-style:normal;font-variant:normal;font-weight:bold;font-stretch:normal;font-size:47.8504px;font-family:'Microsoft JhengHei UI';-inkscape-font-specification:'Microsoft JhengHei UI Bold';text-align:end;text-anchor:end;fill:#333333;fill-opacity:1;fill-rule:evenodd;stroke:#4d4d4d;stroke-width:0" d="M 356.0735 262.91594 C 350.73083 262.91594 346.20644 264.74575 342.49928 268.40618 C 338.8077 272.05103 336.96217 276.51449 336.96217 281.79485 C 336.96217 287.12194 338.79198 291.59131 342.45241 295.20501 C 346.11283 298.8187 350.63132 300.62493 356.00514 300.62493 C 361.33223 300.62493 365.8409 298.79512 369.53248 295.13469 C 373.22406 291.47427 375.06959 287.02062 375.06959 281.77141 C 375.06959 276.4599 373.23193 271.98858 369.55592 268.3593 C 365.87992 264.73003 361.38501 262.91594 356.0735 262.91594 z M 125.6067 263.05657 C 121.77494 263.05657 118.6283 263.95084 116.16725 265.74212 C 113.7062 267.53339 112.47584 269.98623 112.47584 273.10149 C 112.47584 275.26659 113.12247 277.15143 114.4153 278.75579 C 115.70813 280.36015 117.98212 281.9423 121.23756 283.49993 C 123.88553 284.76161 125.6544 285.67947 126.54225 286.25579 C 127.44567 286.81653 128.16109 287.47888 128.69069 288.24212 C 129.22028 289.00535 129.48561 289.86228 129.48561 290.81243 C 129.48561 294.09902 127.08779 295.74212 122.2903 295.74212 C 118.53641 295.74212 115.27186 294.61396 112.49928 292.3554 L 112.49928 298.40618 C 113.51174 299.02923 114.96025 299.52844 116.84498 299.90227 C 118.72972 300.2761 120.44356 300.46282 121.98561 300.46282 C 126.17563 300.46282 129.45395 299.59804 131.82155 297.86907 C 134.18914 296.1401 135.37428 293.64009 135.37428 290.36907 C 135.37428 288.17281 134.68835 286.23295 133.31764 284.55071 C 131.94693 282.85289 129.46264 281.16264 125.86452 279.4804 C 122.78041 278.01623 120.75603 276.84876 119.7903 275.97649 C 118.84014 275.10422 118.36452 273.98983 118.36452 272.63469 C 118.36452 271.13937 119.019 269.96405 120.32741 269.10735 C 121.63581 268.25065 123.35752 267.82219 125.49147 267.82219 C 128.82479 267.82219 131.6039 268.59264 133.83131 270.13469 L 133.83131 264.38665 C 131.97773 263.4988 129.23598 263.05657 125.6067 263.05657 z M 154.67311 263.66399 C 153.16221 266.90386 150.94916 270.64208 148.03639 274.87883 C 145.12363 279.10001 142.03202 283.12519 138.761 286.95696 L 138.761 291.81829 L 155.06959 291.81829 L 155.06959 299.8554 L 159.97584 299.8554 L 159.97584 291.81829 L 165.16334 291.81829 L 165.16334 287.54094 L 159.97584 287.54094 L 159.97584 263.66399 L 154.67311 263.66399 z M 182.63991 263.66399 L 165.23366 305.8593 L 170.23366 305.8593 L 187.68678 263.66399 L 182.63991 263.66399 z M 191.77467 263.66399 L 191.77467 299.8554 L 197.38209 299.8554 L 197.38209 283.96673 L 214.7903 283.96673 L 214.7903 299.8554 L 220.39772 299.8554 L 220.39772 263.66399 L 214.7903 263.66399 L 214.7903 279.03704 L 197.38209 279.03704 L 197.38209 263.66399 L 191.77467 263.66399 z M 239.04225 263.66399 L 225.39772 299.8554 L 231.56569 299.8554 L 234.7903 290.43938 L 249.27467 290.43938 L 252.66334 299.8554 L 258.83131 299.8554 L 245.28053 263.66399 L 239.04225 263.66399 z M 263.87819 263.66399 L 263.87819 299.8554 L 269.32155 299.8554 L 269.32155 275.90618 C 269.32155 273.32051 269.25275 271.55951 269.11256 270.62493 L 269.25123 270.62493 C 269.54718 271.34144 270.01495 272.1905 270.65358 273.1718 L 287.96608 299.8554 L 294.2278 299.8554 L 294.2278 263.66399 L 288.761 263.66399 L 288.761 287.23821 C 288.761 289.57465 288.84747 291.30422 289.01881 292.42571 L 288.90163 292.42571 C 288.63683 291.94284 288.10617 291.07806 287.31178 289.83196 L 270.51295 263.66399 L 263.87819 263.66399 z M 312.85084 263.66399 L 299.20436 299.8554 L 305.37428 299.8554 L 308.59694 290.43938 L 323.08327 290.43938 L 326.47194 299.8554 L 332.63991 299.8554 L 319.08913 263.66399 L 312.85084 263.66399 z M 356.02663 265.34563 C 360.5749 265.34563 364.44677 266.93369 367.63991 270.11126 C 370.84862 273.27324 372.45241 277.16869 372.45241 281.79485 C 372.45241 286.3587 370.84862 290.22862 367.63991 293.40618 C 364.44677 296.58374 360.5749 298.1718 356.02663 298.1718 C 351.47835 298.1718 347.60057 296.5916 344.39186 293.42962 C 341.18314 290.26763 339.57936 286.38199 339.57936 281.77141 C 339.57936 277.17641 341.17528 273.28882 344.36842 270.11126 C 347.56156 266.93369 351.4472 265.34563 356.02663 265.34563 z M 241.93873 268.77923 L 242.1028 268.77923 C 242.28971 270.08763 242.47643 270.99958 242.66334 271.5136 L 247.71022 285.78899 L 236.33131 285.78899 L 241.35475 271.46673 C 241.60397 270.75022 241.79855 269.85399 241.93873 268.77923 z M 315.74733 268.77923 L 315.91139 268.77923 C 316.09831 270.08763 316.28502 270.99958 316.47194 271.5136 L 321.51881 285.78899 L 310.13991 285.78899 L 315.16334 271.46673 C 315.41256 270.75022 315.60714 269.85399 315.74733 268.77923 z M 348.2942 269.6679 L 348.2942 293.45305 L 352.31178 293.45305 L 352.31178 283.75579 L 354.4153 283.75579 C 355.84832 283.75579 357.10225 285.05689 358.17702 287.65813 L 360.55983 293.45305 L 365.46608 293.45305 L 362.42897 286.93352 C 361.2919 284.45689 360.02224 283.07127 358.62038 282.77532 L 358.62038 282.65813 C 362.53002 281.78586 364.48561 279.65142 364.48561 276.25579 C 364.48561 274.15299 363.72302 272.53348 362.19655 271.39641 C 360.67007 270.24377 358.44129 269.6679 355.51295 269.6679 L 348.2942 269.6679 z M 155.06959 270.13469 L 155.06959 287.54094 L 142.78053 287.54094 C 145.02352 285.04874 147.34467 282.09077 149.74342 278.66399 C 152.15775 275.23721 153.93252 272.39326 155.06959 270.13469 z M 352.31178 273.08001 L 355.06959 273.08001 C 356.81414 273.08001 358.0838 273.36697 358.87819 273.94329 C 359.68815 274.50403 360.09303 275.43171 360.09303 276.72454 C 360.09303 279.21674 358.61307 280.46282 355.65358 280.46282 L 352.31178 280.46282 L 352.31178 273.08001 z "></path></g></g><g id="g23" transform="translate(-4.7537593,-17.311666)"><g id="g3" transform="translate(-2.0793727,1.2456651)"><path id="text16-5-7" style="font-style:normal;font-variant:normal;font-weight:normal;font-stretch:normal;font-size:138.814px;font-family:'Segoe MDL2 Assets';-inkscape-font-specification:'Segoe MDL2 Assets';text-align:center;text-anchor:middle;fill:#30c3ff;fill-opacity:1;fill-rule:evenodd;stroke:#4d4d4d;stroke-width:0" d="m 666.99425,134.69363 c -11.11595,0 -20.2433,2.59844 -27.38281,7.79492 -7.13952,5.19648 -10.70899,12.3142 -10.70899,21.35156 0,6.28097 1.8745,11.74811 5.625,16.40235 3.75051,4.65424 10.34893,9.24108 19.79297,13.75976 7.68176,3.66013 12.81107,6.32614 15.38672,7.99805 2.62084,1.62672 4.69803,3.54561 6.23438,5.75976 1.53635,2.21416 2.30468,4.70064 2.30468,7.45704 0,9.53441 -6.95746,14.30078 -20.875,14.30078 -10.89002,0 -20.35714,-3.27604 -28.40039,-9.82813 v 17.55469 c 2.93715,1.80747 7.13982,3.25341 12.60743,4.33789 5.4676,1.08448 10.43666,1.62695 14.91015,1.62695 12.15525,0 21.66872,-2.5077 28.53711,-7.52343 6.86839,-5.01574 10.30078,-12.26859 10.30078,-21.75782 0,-6.37134 -1.98645,-11.99678 -5.96289,-16.87695 -3.97644,-4.92536 -11.18489,-9.82686 -21.62305,-14.70703 -8.94698,-4.24756 -14.82146,-7.63751 -17.62304,-10.16797 -2.7564,-2.53046 -4.13477,-5.76015 -4.13477,-9.69141 0,-4.33793 1.89767,-7.75105 5.69336,-10.23632 3.79569,-2.48528 8.78988,-3.72657 14.98047,-3.72657 9.66998,0 17.73555,2.23549 24.19727,6.70899 v -16.67383 c -5.37723,-2.57565 -13.33085,-3.86328 -23.85938,-3.86328 z m 75.71094,1.76172 -39.58399,104.99218 h 17.89454 l 9.35351,-27.31445 h 42.02344 l 9.82812,27.31445 h 17.89453 l -39.3125,-104.99218 z m 72.05078,0 v 104.99218 h 16.26758 v -38.43164 h 12.94531 c 11.11595,0.3615 20.44795,-2.64233 27.99414,-9.01367 7.5462,-6.41652 11.31836,-14.88944 11.31836,-25.41797 0,-10.43815 -3.16213,-18.39177 -9.48828,-23.85937 -6.32615,-5.51279 -15.43228,-8.26953 -27.31641,-8.26953 z m 16.26758,13.625 h 12.60742 c 15.0472,0 22.57031,6.39377 22.57031,19.18164 0,13.46566 -7.83971,20.19922 -23.51953,20.19922 h -11.6582 z m -79.91406,1.21875 h 0.4746 c 0.54225,3.79569 1.08472,6.44047 1.62696,7.93164 l 14.64062,41.41406 h -33.00781 l 14.57227,-41.55078 c 0.72298,-2.07859 1.28667,-4.67703 1.69336,-7.79492 z"></path><path id="text2" style="font-style:normal;font-variant:normal;font-weight:bold;font-stretch:normal;font-size:43.4951px;font-family:'Microsoft JhengHei UI';-inkscape-font-specification:'Microsoft JhengHei UI Bold';text-align:end;text-anchor:end;fill:#333333;fill-opacity:1;fill-rule:evenodd;stroke:#4d4d4d;stroke-width:0" d="M 680.26308 251.98507 L 680.26308 286.7507 L 685.25331 286.7507 L 685.25331 283.58664 L 685.35878 283.58664 C 686.90206 286.06438 689.18823 287.30343 692.21815 287.30343 C 695.46046 287.30343 698.04455 286.12103 699.97011 283.75656 C 701.90983 281.37792 702.88026 278.23463 702.88026 274.32687 C 702.88026 270.75892 702.02314 267.93357 700.30995 265.85226 C 698.61093 263.7568 696.27543 262.70968 693.30214 262.70968 C 689.81914 262.70968 687.17107 264.19537 685.35878 267.16867 L 685.25331 267.16867 L 685.25331 251.98507 L 680.26308 251.98507 z M 770.60878 252.30343 C 769.73095 252.30343 769.00178 252.57937 768.42128 253.13156 C 767.85494 253.66958 767.57167 254.35675 767.57167 255.1921 C 767.57167 256.0133 767.86031 256.69851 768.44081 257.2507 C 769.02131 257.80288 769.74511 258.07882 770.60878 258.07882 C 771.47245 258.07882 772.20162 257.81021 772.79628 257.27218 C 773.39094 256.72 773.6869 256.02746 773.6869 255.1921 C 773.6869 254.35675 773.39094 253.66958 772.79628 253.13156 C 772.20162 252.57937 771.47245 252.30343 770.60878 252.30343 z M 827.48378 252.30343 C 826.60595 252.30343 825.87678 252.57937 825.29628 253.13156 C 824.72994 253.66958 824.44667 254.35675 824.44667 255.1921 C 824.44667 256.0133 824.73531 256.69851 825.31581 257.2507 C 825.89631 257.80288 826.62011 258.07882 827.48378 258.07882 C 828.34745 258.07882 829.07662 257.81021 829.67128 257.27218 C 830.26594 256.72 830.5619 256.02746 830.5619 255.1921 C 830.5619 254.35675 830.26594 253.66958 829.67128 253.13156 C 829.07662 252.57937 828.34745 252.30343 827.48378 252.30343 z M 638.59315 253.30148 C 635.11015 253.30148 632.25013 254.11465 630.01308 255.74289 C 627.77603 257.37112 626.65761 259.60258 626.65761 262.43429 C 626.65761 264.40233 627.24612 266.11463 628.42128 267.57296 C 629.59644 269.03129 631.66332 270.46766 634.62245 271.88351 C 637.0294 273.03035 638.63573 273.8655 639.44276 274.38937 C 640.26396 274.89908 640.91645 275.50224 641.39784 276.19601 C 641.87923 276.88978 642.11855 277.66828 642.11855 278.53195 C 642.11855 281.5194 639.93836 283.01242 635.57753 283.01242 C 632.16532 283.01242 629.19931 281.98728 626.67909 279.93429 L 626.67909 285.43429 C 627.5994 286.00063 628.91708 286.45386 630.63026 286.79367 C 632.34345 287.13347 633.90044 287.30343 635.30214 287.30343 C 639.11079 287.30343 642.09145 286.51761 644.24355 284.94601 C 646.39564 283.37441 647.47011 281.10095 647.47011 278.12765 C 647.47011 276.1313 646.84887 274.36966 645.60292 272.84054 C 644.35697 271.29726 642.09815 269.76029 638.82753 268.23117 C 636.02414 266.90026 634.18388 265.8385 633.30605 265.04562 C 632.44237 264.25274 632.00917 263.2403 632.00917 262.00851 C 632.00917 260.64929 632.60501 259.5802 633.79433 258.80148 C 634.98364 258.02276 636.54797 257.63351 638.48769 257.63351 C 641.51762 257.63351 644.04505 258.33533 646.06972 259.73703 L 646.06972 254.51242 C 644.38485 253.70538 641.8921 253.30148 638.59315 253.30148 z M 814.5912 256.25265 L 809.62245 257.76046 L 809.62245 263.26242 L 805.6498 263.26242 L 805.6498 267.21164 L 809.62245 267.21164 L 809.62245 280.01828 C 809.62245 284.8605 811.85196 287.28195 816.3119 287.28195 C 818.03925 287.28195 819.3623 287.02066 820.28261 286.49679 L 820.28261 282.52414 C 819.56052 283.03384 818.75467 283.28976 817.86269 283.28976 C 816.71584 283.28976 815.88069 282.96254 815.35683 282.31124 C 814.84712 281.65995 814.5912 280.60551 814.5912 279.14718 L 814.5912 267.21164 L 820.28261 267.21164 L 820.28261 263.26242 L 814.5912 263.26242 L 814.5912 256.25265 z M 716.79042 262.70968 C 714.11446 262.70968 711.87029 263.3402 710.058 264.60031 C 708.2457 265.86042 707.3412 267.57272 707.3412 269.73898 C 707.3412 271.31058 707.7578 272.62093 708.59315 273.66867 C 709.42851 274.70224 711.04216 275.67805 713.43495 276.59835 C 715.71448 277.44787 717.18014 278.13503 717.83144 278.6589 C 718.48273 279.16861 718.808 279.82647 718.808 280.63351 C 718.808 282.55907 717.251 283.52218 714.13612 283.52218 C 711.77165 283.52218 709.49281 282.77836 707.29823 281.29171 L 707.29823 285.98703 C 709.18132 286.86486 711.38348 287.30343 713.9037 287.30343 C 716.84868 287.30343 719.22617 286.66559 721.03847 285.39132 C 722.85076 284.11705 723.75722 282.36812 723.75722 280.14523 C 723.75722 278.57363 723.28934 277.26523 722.35487 276.21749 C 721.43457 275.1556 719.70029 274.15586 717.15175 273.2214 C 715.0846 272.42852 713.76155 271.79263 713.18105 271.31124 C 712.6147 270.82985 712.33144 270.17004 712.33144 269.33468 C 712.33144 268.48517 712.72068 267.79995 713.4994 267.27609 C 714.27813 266.75222 715.29789 266.48898 716.558 266.48898 C 718.76673 266.48898 720.7623 267.04282 722.54628 268.14718 L 722.54628 263.72921 C 720.7623 263.0496 718.84341 262.70968 716.79042 262.70968 z M 739.9623 262.70968 C 736.16781 262.70968 733.13049 263.8701 730.85097 266.1921 C 728.57144 268.51411 727.43105 271.63737 727.43105 275.55929 C 727.43105 279.05645 728.49281 281.88717 730.61659 284.05343 C 732.74037 286.21969 735.5164 287.30343 738.94276 287.30343 C 741.64705 287.30343 743.86191 286.78622 745.58925 285.75265 L 745.58925 281.39914 C 743.83359 282.6734 741.96598 283.30929 739.98378 283.30929 C 737.70425 283.30929 735.88402 282.59477 734.5248 281.16476 C 733.17973 279.72059 732.50722 277.73234 732.50722 275.19796 C 732.50722 272.60695 733.21441 270.54545 734.63026 269.01632 C 736.06028 267.47304 737.92252 266.70187 740.2162 266.70187 C 742.15592 266.70187 743.96151 267.30308 745.63222 268.50656 L 745.63222 263.83468 C 744.18805 263.08428 742.29846 262.70968 739.9623 262.70968 z M 793.07753 262.70968 C 789.62284 262.70968 786.98943 264.19537 785.17714 267.16867 L 785.07167 267.16867 L 785.07167 263.26242 L 780.07948 263.26242 L 780.07948 297.56124 L 785.07167 297.56124 L 785.07167 283.58664 L 785.17714 283.58664 C 786.74874 286.06438 789.02025 287.30343 791.99355 287.30343 C 795.25001 287.30343 797.84875 286.12103 799.78847 283.75656 C 801.72819 281.39208 802.69862 278.24879 802.69862 274.32687 C 802.69862 270.75892 801.8415 267.93357 800.12831 265.85226 C 798.41513 263.7568 796.06498 262.70968 793.07753 262.70968 z M 847.74355 262.70968 C 843.94906 262.70968 840.94837 263.8281 838.73964 266.06515 C 836.54506 268.3022 835.44667 271.35416 835.44667 275.21945 C 835.44667 278.88651 836.51576 281.81589 838.6537 284.01046 C 840.8058 286.20504 843.68048 287.30343 847.27675 287.30343 C 850.94381 287.30343 853.87514 286.17036 856.06972 283.90499 C 858.26429 281.63963 859.36073 278.61697 859.36073 274.83664 C 859.36073 271.08462 858.32095 268.12594 856.23964 265.95968 C 854.15833 263.79342 851.32566 262.70968 847.74355 262.70968 z M 877.64589 262.70968 C 874.29031 262.70968 871.74286 264.17535 870.00136 267.10617 L 869.89394 267.10617 L 869.89394 263.26242 L 864.9037 263.26242 L 864.9037 286.7507 L 869.89394 286.7507 L 869.89394 273.35031 C 869.89394 271.42474 870.43312 269.83845 871.50917 268.59249 C 872.59938 267.33238 873.97176 266.70187 875.62831 266.70187 C 878.91309 266.70187 880.55605 268.96068 880.55605 273.47726 L 880.55605 286.7507 L 885.52675 286.7507 L 885.52675 272.39328 C 885.52675 265.93698 882.89871 262.70968 877.64589 262.70968 z M 762.19862 262.85812 C 759.25365 262.85812 757.19947 264.5504 756.03847 267.93429 L 755.933 267.93429 L 755.933 263.26242 L 750.94081 263.26242 L 750.94081 286.7507 L 755.933 286.7507 L 755.933 275.04953 C 755.933 272.71337 756.42823 270.83647 757.41933 269.42062 C 758.42458 268.00476 759.73494 267.29757 761.34901 267.29757 C 762.56665 267.29757 763.54246 267.53689 764.2787 268.01828 L 764.2787 263.15499 C 763.76899 262.95677 763.07645 262.85812 762.19862 262.85812 z M 652.61073 263.26242 L 652.61073 277.34249 C 652.61073 283.98285 655.37943 287.30343 660.91542 287.30343 C 664.10109 287.30343 666.50789 285.89442 668.13612 283.07687 L 668.24159 283.07687 L 668.24159 286.7507 L 673.21034 286.7507 L 673.21034 263.26242 L 668.24159 263.26242 L 668.24159 276.76828 C 668.24159 278.72216 667.71706 280.30113 666.66933 281.5046 C 665.62159 282.70808 664.27656 283.30929 662.63417 283.30929 C 659.26444 283.30929 657.57948 281.11641 657.57948 276.72726 L 657.57948 263.26242 L 652.61073 263.26242 z M 768.05995 263.26242 L 768.05995 286.7507 L 773.05019 286.7507 L 773.05019 263.26242 L 768.05995 263.26242 z M 824.93495 263.26242 L 824.93495 286.7507 L 829.92519 286.7507 L 829.92519 263.26242 L 824.93495 263.26242 z M 691.71034 266.70187 C 693.57927 266.70187 695.05031 267.38171 696.12636 268.74093 C 697.21657 270.08599 697.76308 271.94091 697.76308 274.30539 C 697.76308 277.12294 697.18922 279.33242 696.04237 280.93234 C 694.89553 282.5181 693.28188 283.30929 691.20058 283.30929 C 689.48739 283.30929 688.0564 282.69343 686.90956 281.46164 C 685.77688 280.22984 685.21034 278.72217 685.21034 276.9382 L 685.21034 273.96554 C 685.21034 271.8276 685.82621 270.08599 687.058 268.74093 C 688.28979 267.38171 689.84141 266.70187 691.71034 266.70187 z M 791.52675 266.70187 C 793.43815 266.70187 794.9258 267.36706 795.98769 268.69796 C 797.04958 270.01471 797.57948 271.88427 797.57948 274.30539 C 797.57948 277.12294 797.00758 279.33242 795.86073 280.93234 C 794.71389 282.5181 793.09829 283.30929 791.01698 283.30929 C 789.28964 283.30929 787.8606 282.69343 786.72792 281.46164 C 785.59524 280.21568 785.0287 278.68067 785.0287 276.85421 L 785.0287 274.04953 C 785.0287 271.92574 785.62991 270.17144 786.83339 268.7839 C 788.05102 267.39636 789.61534 266.70187 791.52675 266.70187 z M 847.51112 266.70187 C 849.7057 266.70187 851.38333 267.41101 852.54433 268.82687 C 853.70533 270.22857 854.28456 272.27346 854.28456 274.96359 C 854.28456 280.5279 852.0277 283.30929 847.51112 283.30929 C 845.35902 283.30929 843.65209 282.58745 842.39198 281.14328 C 841.14603 279.6991 840.52284 277.68888 840.52284 275.11203 C 840.52284 272.50685 841.13871 270.45463 842.3705 268.95382 C 843.60229 267.45302 845.31655 266.70187 847.51112 266.70187 z M 759.2455 306.35226 L 759.2455 341.11984 L 764.23573 341.11984 L 764.23573 306.35226 L 759.2455 306.35226 z M 771.22401 306.35226 L 771.22401 341.11984 L 776.21425 341.11984 L 776.21425 306.35226 L 771.22401 306.35226 z M 749.81581 306.67257 C 748.93798 306.67257 748.20881 306.94851 747.62831 307.5007 C 747.06197 308.03872 746.7787 308.72394 746.7787 309.55929 C 746.7787 310.38049 747.0693 311.06765 747.6498 311.61984 C 748.2303 312.17202 748.95214 312.44796 749.81581 312.44796 C 750.67948 312.44796 751.40865 312.17935 752.00331 311.64132 C 752.59797 311.08914 752.89589 310.39465 752.89589 309.55929 C 752.89589 308.72394 752.59797 308.03872 752.00331 307.5007 C 751.40865 306.94851 750.67948 306.67257 749.81581 306.67257 z M 785.75136 306.67257 C 784.87353 306.67257 784.14436 306.94851 783.56386 307.5007 C 782.99752 308.03872 782.71425 308.72394 782.71425 309.55929 C 782.71425 310.38049 783.00289 311.06765 783.58339 311.61984 C 784.16389 312.17202 784.88769 312.44796 785.75136 312.44796 C 786.61503 312.44796 787.3442 312.17935 787.93886 311.64132 C 788.53352 311.08914 788.82948 310.39465 788.82948 309.55929 C 788.82948 308.72394 788.53352 308.03872 787.93886 307.5007 C 787.3442 306.94851 786.61503 306.67257 785.75136 306.67257 z M 867.89784 307.54171 C 863.04146 307.54171 858.92969 309.20664 855.55995 312.5339 C 852.20438 315.847 850.52675 319.90212 850.52675 324.70187 C 850.52675 329.54409 852.18972 333.60849 855.51698 336.89328 C 858.84424 340.17806 862.95064 341.82101 867.83534 341.82101 C 872.67757 341.82101 876.77664 340.15608 880.13222 336.82882 C 883.48779 333.50156 885.16542 329.45377 885.16542 324.68234 C 885.16542 319.85427 883.49512 315.78987 880.1537 312.49093 C 876.81228 309.19199 872.72591 307.54171 867.89784 307.54171 z M 719.8705 308.2214 L 719.8705 341.11984 L 730.51112 341.11984 C 733.8667 341.11984 736.56409 340.24269 738.60292 338.48703 C 740.65591 336.71721 741.683 334.40174 741.683 331.54171 C 741.683 329.34714 740.99583 327.53423 739.62245 326.10421 C 738.26323 324.6742 736.46497 323.83172 734.22792 323.57687 L 734.22792 323.49289 C 736.0119 322.9407 737.44826 321.97759 738.53847 320.60421 C 739.62868 319.23083 740.17323 317.63721 740.17323 315.82492 C 740.17323 313.50291 739.2741 311.65533 737.47597 310.28195 C 735.69199 308.90857 733.25052 308.2214 730.1498 308.2214 L 719.8705 308.2214 z M 867.85683 309.7507 C 871.99112 309.7507 875.50901 311.19634 878.41151 314.08468 C 881.32817 316.95887 882.78651 320.49678 882.78651 324.70187 C 882.78651 328.85032 881.32817 332.37017 878.41151 335.25851 C 875.50901 338.14685 871.99112 339.59054 867.85683 339.59054 C 863.72253 339.59054 860.19536 338.15418 857.2787 335.27999 C 854.36204 332.40581 852.9037 328.87327 852.9037 324.68234 C 852.9037 320.50557 854.35667 316.97303 857.25917 314.08468 C 860.16167 311.19634 863.69421 309.7507 867.85683 309.7507 z M 724.96815 312.40695 L 728.8119 312.40695 C 732.80462 312.40695 734.80019 313.86529 734.80019 316.78195 C 734.80019 318.41018 734.26295 319.69123 733.1869 320.6257 C 732.11086 321.56016 730.60319 322.02609 728.66347 322.02609 L 724.96815 322.02609 L 724.96815 312.40695 z M 860.82558 313.68039 L 860.82558 335.29953 L 864.47987 335.29953 L 864.47987 326.48703 L 866.39003 326.48703 C 867.69262 326.48703 868.83301 327.66942 869.80995 330.0339 L 871.97597 335.29953 L 876.4369 335.29953 L 873.67519 329.3757 C 872.64161 327.12449 871.48852 325.86346 870.21425 325.59445 L 870.21425 325.48898 C 873.76804 324.6961 875.54433 322.75523 875.54433 319.66867 C 875.54433 317.75726 874.84983 316.28622 873.4623 315.25265 C 872.07476 314.20492 870.04988 313.68039 867.38808 313.68039 L 860.82558 313.68039 z M 864.47987 316.78195 L 866.98573 316.78195 C 868.57149 316.78195 869.72458 317.04324 870.44667 317.5671 C 871.18291 318.07681 871.55214 318.91929 871.55214 320.09445 C 871.55214 322.35981 870.20711 323.49289 867.51698 323.49289 L 864.47987 323.49289 L 864.47987 316.78195 z M 807.9662 317.07882 C 804.61063 317.07882 802.06122 318.54449 800.31972 321.47531 L 800.21425 321.47531 L 800.21425 317.6296 L 795.22206 317.6296 L 795.22206 341.11984 L 800.21425 341.11984 L 800.21425 327.71749 C 800.21425 325.79193 800.75148 324.20759 801.82753 322.96164 C 802.91774 321.70152 804.29207 321.07101 805.94862 321.07101 C 809.23341 321.07101 810.8744 323.32982 810.8744 327.8464 L 810.8744 341.11984 L 815.84511 341.11984 L 815.84511 326.76242 C 815.84511 320.30612 813.21902 317.07882 807.9662 317.07882 z M 831.64589 317.07882 C 828.40358 317.07882 825.80485 318.26122 823.85097 320.6257 C 821.91125 322.97602 820.94081 326.13201 820.94081 330.0964 C 820.94081 333.60772 821.82724 336.41842 823.59706 338.52804 C 825.38104 340.62351 827.74388 341.67257 830.68886 341.67257 C 834.1577 341.67257 836.75644 340.23426 838.48378 337.36007 L 838.56972 337.36007 L 838.56972 339.69601 C 838.56972 345.37359 835.7937 348.21359 830.24355 348.21359 C 827.82243 348.21359 825.32431 347.49174 822.74745 346.04757 L 822.74745 350.63351 C 824.82876 351.65293 827.36351 352.16281 830.35097 352.16281 C 839.15758 352.16281 843.55995 347.76044 843.55995 338.95382 L 843.55995 317.6296 L 838.56972 317.6296 L 838.56972 320.70968 L 838.48378 320.70968 C 836.99713 318.28857 834.71829 317.07882 831.64589 317.07882 z M 747.26698 317.6296 L 747.26698 341.11984 L 752.25917 341.11984 L 752.25917 317.6296 L 747.26698 317.6296 z M 783.20253 317.6296 L 783.20253 341.11984 L 788.19276 341.11984 L 788.19276 317.6296 L 783.20253 317.6296 z M 832.64394 321.07101 C 834.3288 321.07101 835.74514 321.68687 836.89198 322.91867 C 838.03883 324.1363 838.61073 325.61662 838.61073 327.35812 L 838.61073 330.26632 C 838.61073 332.40426 838.00952 334.17517 836.80605 335.57687 C 835.61673 336.97857 834.08171 337.67843 832.19862 337.67843 C 830.34385 337.67843 828.84889 336.97124 827.7162 335.55539 C 826.58352 334.12537 826.01698 332.22113 826.01698 329.84249 C 826.01698 327.09574 826.6055 324.95023 827.78065 323.40695 C 828.96997 321.84951 830.59095 321.07101 832.64394 321.07101 z M 724.96815 326.23117 L 729.25722 326.23117 C 733.97201 326.23117 736.32948 327.9801 736.32948 331.47726 C 736.32948 333.19044 735.75758 334.52815 734.61073 335.49093 C 733.46389 336.45371 731.84829 336.93624 729.76698 336.93624 L 724.96815 336.93624 L 724.96815 326.23117 z "></path></g></g></g></g></svg>