<svg xmlns:inkscape="http://www.inkscape.org/namespaces/inkscape" xmlns:sodipodi="http://sodipodi.sourceforge.net/DTD/sodipodi-0.dtd" xmlns="http://www.w3.org/2000/svg" xmlns:svg="http://www.w3.org/2000/svg" id="svg1" width="1000" height="500" viewBox="0 0 1000 500" sodipodi:docname="sap-idm-sap-hr.svg" inkscape:version="1.3.2 (091e20e, 2023-11-25, custom)"><defs id="defs1"><clipPath id="CLIPPATH_56"><path id="pO20KKJNwU1CrE_FoZeM0" d="M -256,-256 H 256 V 256 H -256 Z" stroke-linecap="round"></path></clipPath></defs><g id="g1" inkscape:groupmode="layer" inkscape:label="1"><path id="path3" d="m 318.137,130.637 c 77.636,0 36.09,113.726 113.726,113.726" style="fill:none;stroke:#00aaff;stroke-width:17.0079;stroke-linecap:butt;stroke-linejoin:miter;stroke-miterlimit:4;stroke-dasharray:none;stroke-opacity:1" transform="scale(1.3333333)"></path><path id="path4" d="m 318.031,244.469 c 77.637,0 36.09,-113.938 113.938,-113.938" style="fill:none;stroke:#696969;stroke-width:17.0079;stroke-linecap:butt;stroke-linejoin:miter;stroke-miterlimit:4;stroke-dasharray:none;stroke-opacity:1" transform="scale(1.3333333)"></path><path id="path5" d="m 330.848,187.5 c 0,81.004 -65.668,146.668 -146.672,146.668 -81,0 -146.668,-65.664 -146.668,-146.668 0,-81.004 65.668,-146.668 146.668,-146.668 81.004,0 146.672,65.664 146.672,146.668 z" style="fill:none;stroke:#4d4d4d;stroke-width:11.3386;stroke-linecap:butt;stroke-linejoin:miter;stroke-miterlimit:4;stroke-dasharray:none;stroke-opacity:1" transform="scale(1.3333333)"></path><path id="path6" d="m 711.984,187.5 c 0,81.004 -65.664,146.668 -146.668,146.668 -81.004,0 -146.671,-65.664 -146.671,-146.668 0,-81.004 65.667,-146.668 146.671,-146.668 81.004,0 146.668,65.664 146.668,146.668 z" style="fill:none;stroke:#4d4d4d;stroke-width:11.3386;stroke-linecap:butt;stroke-linejoin:miter;stroke-miterlimit:4;stroke-dasharray:none;stroke-opacity:1" transform="scale(1.3333333)"></path><path id="path15" d="m 457.152,243.441 -36.043,21.977 -1.007,-42.199 z" style="fill:#00aaff;fill-opacity:1;fill-rule:evenodd;stroke:none" transform="scale(1.3333333)"></path><path id="path16" d="m 292.48,130.711 36.04,-21.977 1.011,42.2 z" style="fill:#00aaff;fill-opacity:1;fill-rule:evenodd;stroke:none" transform="scale(1.3333333)"></path><g id="g17" transform="translate(4.4938833,22.637569)"><g id="g22" transform="translate(9.7689399,-7.681884)"><g id="g2" transform="translate(3.4245194e-4,2.5179467)"><path id="text16-5" style="font-style:normal;font-variant:normal;font-weight:normal;font-stretch:normal;font-size:138.814px;font-family:'Segoe MDL2 Assets';-inkscape-font-specification:'Segoe MDL2 Assets';text-align:center;text-anchor:middle;fill:#30c3ff;fill-opacity:1;fill-rule:evenodd;stroke:#4d4d4d;stroke-width:0" d="m 142.20983,142.37635 c -11.11595,0 -20.24329,2.59844 -27.38281,7.79492 -7.13951,5.19648 -10.70898,12.31225 -10.70898,21.34961 0,6.28096 1.87449,11.7481 5.625,16.40234 3.7505,4.65424 10.34892,9.24109 19.79296,13.75977 7.68176,3.66013 12.81108,6.32613 15.38672,7.99804 2.62084,1.62673 4.69803,3.54757 6.23438,5.76172 1.53635,2.21416 2.30469,4.69869 2.30469,7.45508 0,9.53442 -6.95747,14.30274 -20.875,14.30274 -10.89002,0 -20.35714,-3.27604 -28.40039,-9.82813 v 17.55469 c 2.93714,1.80747 7.13981,3.2534 12.60742,4.33789 5.4676,1.08448 10.43666,1.62695 14.91015,1.62695 12.15525,0 21.66872,-2.5077 28.53711,-7.52344 6.8684,-5.01573 10.30078,-12.26858 10.30078,-21.75781 0,-6.37134 -1.98645,-11.99678 -5.96289,-16.87695 -3.97643,-4.92536 -11.18489,-9.82881 -21.62304,-14.70899 -8.94699,-4.24756 -14.82147,-7.63555 -17.62305,-10.16601 -2.7564,-2.53046 -4.13477,-5.76211 -4.13477,-9.69336 0,-4.33793 1.89767,-7.7491 5.69336,-10.23438 3.7957,-2.48527 8.78988,-3.72851 14.98047,-3.72851 9.66998,0 17.73556,2.23744 24.19727,6.71094 v -16.67383 c -5.37723,-2.57565 -13.33085,-3.86328 -23.85938,-3.86328 z m 75.71094,1.76172 -39.58398,104.99218 h 17.89453 l 9.35351,-27.3164 h 42.02344 l 9.82813,27.3164 h 17.89453 l -39.3125,-104.99218 z m 72.05078,0 v 104.99218 h 16.26758 v -38.43164 h 12.94531 c 11.11596,0.3615 20.44795,-2.64428 27.99414,-9.01562 7.5462,-6.41653 11.31836,-14.88945 11.31836,-25.41797 0,-10.43815 -3.16213,-18.38982 -9.48828,-23.85742 -6.32615,-5.51279 -15.43228,-8.26953 -27.31641,-8.26953 z m 16.26758,13.62304 h 12.60742 c 15.04721,0 22.57031,6.39378 22.57031,19.18164 0,13.46567 -7.83971,20.19922 -23.51953,20.19922 h -11.6582 z m -79.91406,1.22071 h 0.47461 c 0.54224,3.79569 1.08471,6.43852 1.62695,7.92968 l 14.64062,41.41407 h -33.00781 l 14.57227,-41.54883 c 0.72299,-2.0786 1.28668,-4.67704 1.69336,-7.79492 z"></path><path id="text1" style="font-weight:bold;font-size:71.3171px;font-family:'Microsoft JhengHei UI';-inkscape-font-specification:'Microsoft JhengHei UI Bold';text-align:end;text-anchor:end;fill:#333333;fill-rule:evenodd;stroke:#4d4d4d;stroke-width:0" d="M 330.18605 266.47168 C 322.22325 266.47168 315.47884 269.19971 309.95363 274.65527 C 304.45163 280.08763 301.70168 286.73845 301.70168 294.6084 C 301.70168 302.54799 304.4297 309.21076 309.88527 314.59668 C 315.34084 319.9826 322.07135 322.67676 330.08058 322.67676 C 338.02018 322.67676 344.74265 319.94873 350.24465 314.49317 C 355.74664 309.0376 358.4966 302.39871 358.4966 294.5752 C 358.4966 286.65882 355.75663 279.99605 350.27785 274.58692 C 344.79907 269.17778 338.10243 266.47168 330.18605 266.47168 z M 155.13137 267.58692 L 155.13137 274.41113 L 155.13137 274.44629 L 155.13137 314.66699 L 155.13137 314.70215 L 155.13137 321.52637 L 163.48879 321.52637 L 163.48879 314.70215 L 163.48879 314.66699 L 163.48879 274.44629 L 163.48879 274.41113 L 163.48879 267.58692 L 155.13137 267.58692 z M 177.03566 267.58692 L 177.03566 321.52637 L 192.98488 321.52637 C 201.45842 321.52637 208.39996 319.0313 213.8091 314.04004 C 219.24145 309.02556 221.95754 302.30504 221.95754 293.87793 C 221.95754 276.35047 212.4393 267.58692 193.40285 267.58692 L 177.03566 267.58692 z M 232.02004 267.58692 L 232.02004 321.52637 L 239.78566 321.52637 L 239.78566 287.64551 C 239.78566 283.0489 239.67016 279.12415 239.43801 275.87402 L 239.64699 275.87402 C 240.32023 279.00807 240.86584 281.07499 241.28371 282.07324 L 257.75441 321.52637 L 263.22121 321.52637 L 279.62355 281.75879 C 280.01821 280.83018 280.56382 278.86878 281.26027 275.87402 L 281.46926 275.87402 C 281.14424 280.05276 280.98097 283.66291 280.98097 286.7041 L 280.98097 321.52637 L 289.27004 321.52637 L 289.27004 267.58692 L 278.05715 267.58692 L 263.22121 303.10645 C 262.03724 306.33336 261.2248 308.67709 260.78371 310.13965 L 260.53957 310.13965 C 260.16813 308.30565 259.41539 305.99578 258.27785 303.20996 L 243.68605 267.58692 L 232.02004 267.58692 z M 330.11574 270.09473 C 336.89457 270.09473 342.66327 272.46235 347.42238 277.19824 C 352.20471 281.91092 354.59621 287.71349 354.59621 294.6084 C 354.59621 301.41045 352.20471 307.1811 347.42238 311.91699 C 342.66327 316.65289 336.89457 319.02051 330.11574 319.02051 C 323.33691 319.02051 317.55627 316.66288 312.77394 311.9502 C 307.99162 307.23752 305.60207 301.44689 305.60207 294.5752 C 305.60207 287.72672 307.98163 281.93414 312.74074 277.19824 C 317.49985 272.46235 323.29048 270.09473 330.11574 270.09473 z M 185.39308 274.76074 L 192.94972 274.76074 C 199.51962 274.76074 204.53363 276.40755 207.99269 279.7041 C 211.45176 282.97744 213.18215 287.76045 213.18215 294.05176 C 213.18215 300.45915 211.35818 305.45123 207.7134 309.02637 C 204.09183 312.57829 199.1017 314.35449 192.74074 314.35449 L 185.39308 314.35449 L 185.39308 274.76074 z M 318.59035 276.53613 L 318.59035 311.98535 L 324.57863 311.98535 L 324.57863 297.53418 L 327.7134 297.53418 C 329.84919 297.53418 331.71897 299.47365 333.32082 303.35059 L 336.8716 311.98535 L 344.1841 311.98535 L 339.65871 302.27051 C 337.964 298.5793 336.07034 296.51238 333.98097 296.07129 L 333.98097 295.89746 C 339.80798 294.59741 342.72316 291.41736 342.72316 286.35645 C 342.72316 283.2224 341.58419 280.80701 339.3091 279.11231 C 337.03401 277.39438 333.71457 276.53613 329.35012 276.53613 L 318.59035 276.53613 z M 324.57863 281.62012 L 328.68801 281.62012 C 331.28811 281.62012 333.17981 282.05022 334.36379 282.90918 C 335.57098 283.74493 336.17629 285.1249 336.17629 287.05176 C 336.17629 290.76619 333.96998 292.62402 329.5591 292.62402 L 324.57863 292.62402 L 324.57863 281.62012 z "></path></g></g><g id="g23" transform="translate(19.44263,13.679597)"><g id="g3" transform="translate(6.928211e-4,3.0543962)"><path id="text16-5-7" style="font-style:normal;font-variant:normal;font-weight:normal;font-stretch:normal;font-size:138.814px;font-family:'Segoe MDL2 Assets';-inkscape-font-specification:'Segoe MDL2 Assets';text-align:center;text-anchor:middle;fill:#30c3ff;fill-opacity:1;fill-rule:evenodd;stroke:#4d4d4d;stroke-width:0" d="m 640.71974,121.01487 c -11.11596,0 -20.24525,2.59843 -27.38477,7.79492 -7.13951,5.19648 -10.70898,12.31225 -10.70898,21.34961 0,6.28096 1.87645,11.7481 5.62695,16.40234 3.7505,4.65424 10.34697,9.24109 19.79102,13.75977 7.68175,3.66013 12.81107,6.32613 15.38671,7.99804 2.62084,1.62673 4.69803,3.54757 6.23438,5.76172 1.53635,2.21415 2.30469,4.69868 2.30469,7.45508 0,9.53441 -6.95747,14.30273 -20.875,14.30273 -10.89002,0 -20.35714,-3.27603 -28.40039,-9.82812 v 17.55469 c 2.93714,1.80747 7.13981,3.2534 12.60742,4.33789 5.4676,1.08448 10.43861,1.62695 14.91211,1.62695 12.15525,0 21.66676,-2.5077 28.53515,-7.52344 6.8684,-5.01573 10.30274,-12.26858 10.30274,-21.75781 0,-6.37134 -1.98841,-11.99678 -5.96485,-16.87695 -3.97643,-4.92536 -11.18489,-9.82881 -21.62304,-14.70899 -8.94699,-4.24756 -14.82147,-7.63555 -17.62305,-10.16601 -2.75639,-2.53046 -4.13281,-5.76211 -4.13281,-9.69336 0,-4.33794 1.89767,-7.7491 5.69336,-10.23438 3.79569,-2.48527 8.78792,-3.72851 14.97851,-3.72851 9.66998,0 17.73556,2.23744 24.19727,6.71093 v -16.67382 c -5.37723,-2.57565 -13.3289,-3.86328 -23.85742,-3.86328 z m 75.70898,1.76171 -39.58203,104.99219 h 17.89258 l 9.35351,-27.3164 h 42.02539 l 9.82813,27.3164 h 17.89258 l -39.3125,-104.99219 z m 72.05078,0 v 104.99219 h 16.26758 v -38.43164 h 12.94531 c 11.11596,0.3615 20.44795,-2.64429 27.99414,-9.01562 7.5462,-6.41653 11.31836,-14.88945 11.31836,-25.41797 0,-10.43815 -3.16213,-18.38982 -9.48828,-23.85742 -6.32615,-5.51279 -15.43228,-8.26954 -27.3164,-8.26954 z m 16.26758,13.62305 h 12.60742 c 15.04721,0 22.57031,6.39378 22.57031,19.18164 0,13.46567 -7.83971,20.19922 -23.51953,20.19922 h -11.6582 z m -79.91211,1.2207 h 0.47461 c 0.54224,3.7957 1.08276,6.43853 1.625,7.92969 l 14.64063,41.41406 h -33.00782 l 14.57227,-41.54882 c 0.72299,-2.0786 1.28863,-4.67704 1.69531,-7.79493 z"></path><path id="text2" style="font-weight:bold;font-size:71.469px;font-family:'Microsoft JhengHei UI';-inkscape-font-specification:'Microsoft JhengHei UI Bold';text-align:end;text-anchor:end;fill:#333333;fill-rule:evenodd;stroke:#4d4d4d;stroke-width:0" d="M 828.63311 243.9175 C 820.65334 243.9175 813.8947 246.65149 808.35772 252.11867 C 802.844 257.56259 800.08818 264.22806 800.08818 272.11477 C 800.08818 280.07127 802.82217 286.74862 808.28936 292.14602 C 813.75654 297.54341 820.50329 300.24172 828.52959 300.24172 C 836.48609 300.24172 843.22095 297.50773 848.73467 292.04055 C 854.24839 286.57336 857.0042 279.91979 857.0042 272.07961 C 857.0042 264.14637 854.26028 257.46902 848.76983 252.04836 C 843.27937 246.6277 836.56634 243.9175 828.63311 243.9175 z M 697.21123 245.03469 L 697.21123 299.09133 L 705.58623 299.09133 L 705.58623 275.36086 L 731.58428 275.36086 L 731.58428 299.09133 L 739.96123 299.09133 L 739.96123 245.03469 L 731.58428 245.03469 L 731.58428 267.99758 L 705.58623 267.99758 L 705.58623 245.03469 L 697.21123 245.03469 z M 753.53545 245.03469 L 753.53545 299.09133 L 761.91045 299.09133 L 761.91045 276.89602 L 766.44756 276.89602 C 768.2622 276.89602 769.86809 277.41942 771.26397 278.46633 C 772.68311 279.51324 774.25332 281.47995 775.9749 284.36477 L 784.76787 299.09133 L 794.57451 299.09133 L 784.41826 282.93313 C 781.41713 278.09408 778.70692 275.25503 776.2874 274.4175 L 776.2874 274.27883 C 780.07954 273.25518 783.03556 271.45105 785.15264 268.86867 C 787.26972 266.2863 788.32842 263.18155 788.32842 259.55227 C 788.32842 254.92261 786.79193 251.35195 783.721 248.83938 C 780.67333 246.30353 776.3473 245.03469 770.74053 245.03469 L 753.53545 245.03469 z M 828.56475 247.54836 C 835.35802 247.54836 841.13925 249.92152 845.9085 254.6675 C 850.70101 259.39022 853.096 265.20517 853.096 272.11477 C 853.096 278.9313 850.70101 284.71253 845.9085 289.45852 C 841.13925 294.2045 835.35802 296.57766 828.56475 296.57766 C 821.77148 296.57766 815.97835 294.21639 811.18584 289.49367 C 806.39333 284.77095 803.99639 278.96594 803.99639 272.07961 C 803.99639 265.21655 806.38144 259.41348 811.15068 254.6675 C 815.91993 249.92152 821.72495 247.54836 828.56475 247.54836 z M 761.91045 251.94484 L 769.48272 251.94484 C 776.18293 251.94484 779.5335 254.77201 779.5335 260.42531 C 779.5335 263.1938 778.60365 265.47378 776.74248 267.26516 C 774.90458 269.05653 772.43824 269.9507 769.34404 269.9507 L 761.91045 269.9507 L 761.91045 251.94484 z M 817.01201 254.00344 L 817.01201 289.52883 L 823.01592 289.52883 L 823.01592 275.04641 L 826.15654 275.04641 C 828.29689 275.04641 830.16847 276.98934 831.77373 280.87453 L 835.33428 289.52883 L 842.6624 289.52883 L 838.12529 279.7925 C 836.42698 276.09342 834.53161 274.02359 832.43779 273.58156 L 832.43779 273.40578 C 838.27721 272.10296 841.19561 268.91692 841.19561 263.84523 C 841.19561 260.70451 840.05562 258.28379 837.77568 256.58547 C 835.49575 254.86389 832.16897 254.00344 827.79522 254.00344 L 817.01201 254.00344 z M 823.01592 259.09914 L 827.13311 259.09914 C 829.73874 259.09914 831.63411 259.52937 832.82061 260.39016 C 834.03037 261.22768 834.63506 262.61154 834.63506 264.5425 C 834.63506 268.26484 832.42643 270.12648 828.00615 270.12648 L 823.01592 270.12648 L 823.01592 259.09914 z "></path></g></g></g></g></svg>